<svg xmlns="http://www.w3.org/2000/svg" xmlns:xlink="http://www.w3.org/1999/xlink" xmlns:fi="http://pattern.flaticon.com/" x="0" y="0" width="2000" height="1000" viewBox="0 0 2000 1000"><rect x="0px" y="0px" width="100%" height="100%" opacity="0" fill="#ffffff"/><defs><g transform="matrix(0.1304347813129425 0 0 0.1304347813129425 150 112.99999953825579)" id="L1_0"><path d="m208.556,326.323c11.672,0 20.474,9.487 20.474,22.092v39.29c0,4.063 3.293,7.356 7.356,7.356h64.529c3.22,0 6.065-2.094 7.023-5.167 0.289-0.927 28.169-90.907 39.669-170.263 4.297-1.769 8.335-3.769 12.052-6.003 3.264-1.961 6.278-4.084 9.044-6.358 9.939,3.222 20.096,4.867 29.659,4.867 9.842,0 19.054-1.736 26.741-5.268 14.806-6.805 25.473-18.36 30.847-33.417 7.185-20.131 4.71-46-6.622-69.199-8.605-17.617-23.924-27.837-45.533-30.378-14.361-1.687-31.179-0.064-52.712,5.093-14.905-9.319-33.487-14.028-55.535-14.028-21.594,0-40.351,4.909-55.386,14.359-22.193-5.419-39.418-7.149-54.083-5.424-10.061,1.183-18.741,4.053-26.032,8.537-24.591,3.755-52.479,12.546-82.189,29.917-9.399,5.496-17.272,11.562-23.829,17.752-1.927,0.464-49.248,11.727-53.947,43.172-0.601,4.018 2.17,7.762 6.188,8.362 0.369,0.055 0.735,0.082 1.096,0.082 3.582,0 6.721-2.621 7.266-6.27 1.588-10.628 11.933-18.654 22.282-23.966-18.411,32.534-11.396,70.835 0.536,108.586 26.059,82.449 43.434,129.733 43.606,130.201 1.066,2.892 3.82,4.813 6.902,4.813h54.816c4.063,0 7.356-3.293 7.356-7.356v-39.29c0-11.77 9.244-21.437 20.853-22.092h37.573zm-54.792-215.614c6.354-13.008 17.486-20.278 34.033-22.223 10.431-1.226 22.636-0.387 37.759,2.627-1.25,1.288-2.463,2.617-3.628,3.996-13.942,16.5-21.621,39.609-21.621,65.072 0,13.136 3.602,24.849 10.568,34.761-14.791,3.778-29.38,3.42-39.96-1.442-11.282-5.185-19.066-13.594-23.135-24.994-5.795-16.232-3.501-38.378 5.984-57.797zm-18.346,237.706v31.934h-13.599l-1.333-6.667c-2.706-13.533-0.947-24.273 5.23-31.922 3.254-4.03 7.8-7.267 13.562-9.73-2.465,4.939-3.86,10.501-3.86,16.385zm-29.359,31.934h-12.941c-5.002-13.924-20.411-57.568-41.64-124.735-18.251-57.744-18.962-99.731 33.806-130.584 18.885-11.042 37.92-19.063 57.005-24.079-0.608,1.071-1.191,2.17-1.744,3.302-11.332,23.198-13.807,49.067-6.622,69.199 5.374,15.057 16.041,26.612 30.847,33.417 7.688,3.533 16.897,5.268 26.74,5.268 9.844,0 20.319-1.744 30.536-5.157 2.86,2.383 5.987,4.604 9.389,6.648 8.314,4.995 18.216,8.836 29.131,11.448-2.449,4.472-5.551,7.379-9.396,8.808-10.203,3.791-24.217-3.305-29.769-6.534-3.271-1.902-7.229-2.372-10.856-1.288-3.635,1.086-6.693,3.655-8.391,7.05l-2.905,5.812c-2.881,5.758-1.439,12.651 3.506,16.762 8.71,7.241 27.892,20.52 51.376,20.518 8.649,0 17.887-1.803 27.392-6.372 26.058-12.526 40.402-29.408 48.292-44.575 0.72-0.168 1.435-0.34 2.146-0.518-10.202,65.422-30.688,136.192-36.501,155.611h-21.019l5.062-28.462c0.711-4-1.954-7.819-5.954-8.531-3.997-0.704-7.819,1.954-8.531,5.954l-5.521,31.039h-15.755v-31.934c0-20.992-15.127-36.793-35.186-36.793h-38.364c-26.477,0.708-45.301,7.741-55.922,20.895-8.925,11.051-11.764,30.065-8.211,47.831zm230.535-172.35c3.033-11.05 2.832-18.962 2.8-19.784-0.157-4.06-3.625-7.22-7.635-7.067-4.06,0.157-7.223,3.576-7.067,7.635 0.017,0.432 1.083,43.453-49.543,67.788-27.105,13.026-52.276-3.454-62.414-11.725l2.139-4.28c9.355,5.298 26.393,12.691 41.42,7.107 9.555-3.55 16.517-11.481 20.694-23.572 6.461-18.704-8.73-39.168-9.379-40.03-2.445-3.245-7.058-3.892-10.302-1.446-3.244,2.445-3.892,7.058-1.446,10.302 2.077,2.755 6.532,10.243 7.719,17.724-26.291-6.431-48.562-21.827-48.562-50.47 0-18.251 5.427-76.394 73.173-80.314v42.231c0,4.063 3.293,7.356 7.356,7.356s7.356-3.293 7.356-7.356v-42.238c65.855,3.684 73.173,56.952 73.173,80.32 0,25.274-17.343,40.23-39.482,47.819zm105.5-39.493c-4.069,11.4-11.852,19.809-23.134,24.994-10.334,4.75-24.497,5.215-38.935,1.721 7.094-9.971 10.764-21.781 10.764-35.04 0-18.129-3.67-44.128-21.157-65.042-1.245-1.489-2.541-2.917-3.876-4.297 10.042-1.933 18.803-2.9 26.584-2.9 3.419,0 6.655,0.183 9.737,0.545 16.546,1.945 27.678,9.215 34.032,22.223 9.484,19.418 11.778,41.564 5.985,57.796z"/><path d="m240.346,157.705c-1.932,0-3.825,0.784-5.198,2.157-1.374,1.363-2.158,3.266-2.158,5.199 0,1.942 0.784,3.835 2.158,5.208 1.373,1.363 3.266,2.148 5.198,2.148 1.942,0 3.835-0.785 5.208-2.148 1.363-1.373 2.148-3.266 2.148-5.208 0-1.932-0.784-3.835-2.148-5.199-1.373-1.372-3.266-2.157-5.208-2.157z"/><path d="m350.745,157.705c-1.932,0-3.835,0.784-5.198,2.157-1.374,1.363-2.158,3.266-2.158,5.199 0,1.942 0.784,3.835 2.158,5.198 1.363,1.373 3.256,2.158 5.198,2.158 1.932,0 3.835-0.785 5.198-2.158 1.374-1.363 2.158-3.256 2.158-5.198 0-1.932-0.784-3.835-2.158-5.199-1.363-1.372-3.265-2.157-5.198-2.157z"/><path d="m299.697,208.496h-8.3c-2.708,0-4.904,2.196-4.904,4.904s2.196,4.904 4.904,4.904h8.3c2.708,0 4.904-2.196 4.904-4.904s-2.196-4.904-4.904-4.904z"/><path d="m303.847,191.895h-16.6c-2.708,0-4.904,2.196-4.904,4.904s2.196,4.904 4.904,4.904h16.6c2.708,0 4.904-2.196 4.904-4.904s-2.195-4.904-4.904-4.904z"/></g><g transform="matrix(0.1304347813129425 0 0 0.1304347813129425 63 191)" id="L1_1"><path d="m184.34,340.217c12.836-0.362 24.463,10.426 24.463,23.267v41.072c0,4.152 3.366,7.517 7.517,7.517h102.68c2.825,0 5.412-1.584 6.696-4.101 0.504-0.988 49.404-97.322 70.866-180.054 6.245-2.357 12.064-5.113 17.324-8.273 23.451-14.089 35.846-35.362 35.846-61.52 0-11.266-1.226-25.153-5.48-39.341 10.228-4.758 15.748-12.326 15.748-22.267 0-30.879-10.225-48.589-28.053-48.589-10.641,0-24.267,4.637-34.383,12.635-16.099-8.396-35.496-12.635-58.028-12.635-22.02,0-41.481,4.406-57.693,12.915-10.149-8.166-23.956-12.915-34.718-12.915-17.46,0-27.621,16.995-28.033,46.703-22.806,3.974-65.839,11.941-127.581,25.344-40.922,8.883-70.858,19.383-83.945,41.75-13.463,23.012-7.503,55.817 6.479,101.288 26.847,87.314 64.833,143.438 66.437,145.784 1.401,2.05 3.723,3.275 6.206,3.275h66.999c4.152,0 7.517-3.366 7.517-7.517v-41.072c-0.001-12.395 10.896-22.921 23.136-23.266zm177.641-119.194c-7.196,0.956-14.71,1.46-22.446,1.46-7.736,0-15.25-0.503-22.446-1.46-5.415-7.487-8.48-17.396-8.48-27.728 0-12.426 4.081-30.767 10.154-45.637 6.447-15.787 14.407-25.594 20.772-25.594s14.325,9.807 20.773,25.594c6.073,14.871 10.154,33.211 10.154,45.637 5.68434e-14,10.333-3.065,20.242-8.481,27.728zm-28.171-157.943v49.974c-21.727,7.751-35.223,58.015-35.223,80.242 0,8.998 1.978,17.779 5.588,25.433-11.837-2.665-22.464-6.694-31.246-11.97-18.948-11.384-28.555-27.746-28.555-48.633-0.001-21.832 6.576-91.954 89.436-95.046zm-86.686-.118c6.657,0 14.54,2.649 20.997,6.659-5.038,3.889-9.643,8.282-13.776,13.173-5.508,6.518-10.148,13.949-13.9,22.061-3.748-1.904-6.34-4.574-6.34-8.338 2.84217e-14-5.603 0.628-33.555 13.019-33.555zm-100.955,300.521v33.555h-14.529l-1.422-7.108c-2.84-14.199-0.989-25.474 5.502-33.513 3.502-4.337 8.421-7.802 14.683-10.408-2.7,5.244-4.234,11.182-4.234,17.474zm39.347-38.32c-27.629,0.737-50.422,8.099-61.494,21.81-9.295,11.511-12.251,27.386-8.547,45.906l.832,4.159h-25.55c-8.403-13.176-39.782-65.068-62.343-138.443-15.094-49.09-17.228-73.287-7.872-89.278 8.831-15.094 30.316-25.133 74.157-34.651 62.67-13.604 105.914-21.573 128.173-25.435 2.7,3.955 6.794,7.208 12.198,9.677-3.748,12.132-5.731,25.365-5.731,39.216 0,26.158 12.395,47.431 35.846,61.52 19.184,11.525 45.588,17.872 74.35,17.872 14.119,0 27.664-1.538 40.072-4.459-19.364,69.279-56.192,145.66-65.254,163.98h-36.664l19.861-67.954c1.165-3.985-1.122-8.159-5.106-9.324-3.986-1.166-8.159,1.121-9.324,5.106l-21.093,72.172h-38.188v-33.555c-0.001-21.129-17.192-38.319-38.323-38.319zm220.627-118.405c-8.782,5.276-19.409,9.305-31.246,11.97 3.61-7.653 5.588-16.434 5.588-25.433 0-22.709-14.09-74.68-36.652-80.679v-49.593c81.9,2.188 90.865,66.974 90.865,95.102-5.68434e-14,20.887-9.607,37.249-28.555,48.633zm32.823-102.076c-3.445-7.536-7.917-14.94-13.702-21.858-4.197-5.019-8.841-9.5-13.92-13.443 6.382-3.874 14.081-6.419 20.603-6.419 12.391,0 13.019,27.952 13.019,33.555 0,3.65-2.433,6.273-6,8.165z"/><path d="m288.2,175.907c1.975,0 3.909-0.802 5.312-2.195 1.404-1.403 2.205-3.338 2.205-5.322 0-1.974-0.802-3.909-2.205-5.312-1.403-1.403-3.337-2.205-5.312-2.205-1.984,0-3.919,0.802-5.322,2.205-1.393,1.393-2.195,3.338-2.195,5.312 0,1.984 0.802,3.919 2.195,5.322 1.403,1.394 3.338,2.195 5.322,2.195z"/><path d="m390.873,160.873c-1.974,0-3.919,0.802-5.312,2.205-1.403,1.393-2.205,3.338-2.205,5.312 0,1.984 0.802,3.919 2.205,5.312 1.403,1.403 3.338,2.205 5.312,2.205 1.984,0 3.919-0.802 5.322-2.205 1.393-1.393 2.195-3.328 2.195-5.312 0-1.974-0.802-3.919-2.195-5.312-1.403-1.403-3.337-2.205-5.322-2.205z"/><path d="m339.535,164.383c-11.944,0-20.951,5.365-20.951,12.48 0,6.077 6.58,10.865 15.939,12.136v15.453h-5.257c-2.768,0-5.011,2.244-5.011,5.011 0,2.768 2.244,5.011 5.011,5.011h20.536c2.767,0 5.011-2.244 5.011-5.011 0-2.768-2.244-5.011-5.011-5.011h-5.257v-15.453c9.359-1.271 15.94-6.059 15.94-12.136 0.002-7.114-9.005-12.48-20.95-12.48z"/></g><path d="m275.924,202.696c0.634,4.742 0.774,11.422 2.338,16.846-20.779,6.357-88.998,27.554-149.335,49.965-12.244,4.548-21.563,12.397-27.811,23.368-0.352-5.904 0.081-11.907 1.326-17.894 3.873-18.621 14.988-34.266 31.297-44.052l68.726-41.235c19.782-11.87 33.356-30.826 38.22-53.378 4.864-22.552 0.31-45.418-12.821-64.386l-47.553-68.687c-1.777-2.567-4.953-3.768-7.983-3.026-3.031,0.744-5.289,3.281-5.676,6.377l-6.145,49.16c-2.319,18.549-13.686,34.615-30.406,42.975l-79.634,39.817c-25.459,12.73-43.178,36.055-48.612,63.997-5.434,27.941 2.251,56.207 21.084,77.55l71.154,80.642c7.177,46.134 29.32,92.221 30.685,95.029 1.259,2.592 3.888,4.237 6.77,4.237h41.39c3.796,0 6.999-2.827 7.469-6.594l11.201-84.413c4.713-6.518 8.284-14.127 9.319-22.816h52.204c14.393,0 26.102,11.709 26.102,26.102v80.194c0,4.157 3.37,7.528 7.528,7.528h62.085c3.852,0 7.083-2.909 7.486-6.74l16.811-159.706c17.32-3.1 35.405-14.251 50.886-31.646 16.661-18.721 24.706-42.43 26.951-59.197 4.33-32.327 8.858-88.981 8.868-91.679 0.012-3.05-1.818-5.806-4.633-6.979-2.815-1.172-6.061-0.531-8.217,1.626 0,0-45.335,45.636-45.703,46.546-11.2-3.106-23.913-4.706-37.842-4.706-14.501,0-27.08,1.717-37.85,4.685-0.367-0.902-45.694-46.526-45.694-46.526-2.157-2.156-5.403-2.798-8.217-1.626-2.815,1.173-4.645,3.929-4.633,6.979 0.012,2.697 4.54,59.332 8.865,91.663zm84.315,44.415c-0.98-11.739-5.592-21.598-13.757-29.354-16.388-15.567-42.649-18.282-54.997-18.653 3.08-14.377 19.607-35.087 66.952-36.455v45.253c0,2.771 2.247,5.018 5.018,5.018 2.771,0 5.018-2.247 5.018-5.018v-45.249c44.495,1.361 63.594,20.791 66.956,36.451-12.353,0.373-38.603,3.091-54.985,18.652-8.164,7.755-12.776,17.612-13.757,29.348l-6.448,.007zm84.1-117.478c-0.564,13.919-1.721,31.32-3.841,46.615-2.854-3.601-6.224-6.967-10.067-9.966-4.203-3.28-8.953-6.133-14.17-8.573l28.078-28.076zm-161.765,.001l28.018,28.018c-10.513,4.873-18.55,11.18-24.227,18.219-2.086-15.201-3.23-32.429-3.791-46.237zm-107.128-72.013l3.701-29.609 36.339,52.488c10.737,15.508 14.459,34.204 10.483,52.642s-15.074,33.938-31.249,43.642l-12.351,7.411-51.692-68.923 6.158-3.079c21.233-10.615 35.667-31.017 38.611-54.572zm-141.218,212.51c-15.716-17.811-22.129-41.399-17.594-64.715 4.535-23.316 19.321-42.782 40.567-53.405l64.351-32.176 52.164,69.552-47.723,28.633c-19.665,11.799-33.621,31.443-38.291,53.896-3.438,16.529-1.622,33.655 4.881,48.992-0.535,4.716-0.756,9.587-0.707,14.558l-57.648-65.335zm132.066,174.814h-6.522v-49.835c3.443-1.784 8.458-4.637 13.819-8.533l-7.297,58.368zm175.776,0h-16.509l2.872-95.722c0.124-4.156-3.143-7.626-7.298-7.75-4.186-0.148-7.625,3.143-7.75,7.298l-2.885,96.174h-16.21v-72.666c0-22.694-18.463-41.157-41.157-41.157h-59.498c-2.078,0-4.064,0.859-5.486,2.373-1.423,1.514-2.156,3.55-2.026,5.624 1.71,27.365-36.467,44.187-36.843,44.349-2.767,1.186-4.562,3.908-4.562,6.919v54.558h-8.359c-8.588-19.003-41.65-97.156-24.837-139.062 4.394-10.951 11.802-18.233 22.65-22.262 61.072-22.684 130.336-44.136 149.566-50.009 4.64,9.584 11.166,19.332 19.145,28.297 16.729,18.799 36.503,30.305 55.063,32.237l-15.876,150.799zm21.386-165.561c-33.11,0-68.011-43.175-72.125-70.226 8.425,0.281 24.028,1.75 37.087,8.249-0.387-0.062-0.779-0.103-1.173-0.103-1.987,0-3.924,0.803-5.33,2.198-1.395,1.405-2.208,3.342-2.208,5.33 0,1.977 0.813,3.914 2.208,5.319 1.405,1.395 3.342,2.208 5.33,2.208 1.977,0 3.914-0.813 5.319-2.208 1.395-1.405 2.208-3.342 2.208-5.319 0-1.776-0.653-3.509-1.787-4.861 2.35,1.482 4.573,3.153 6.584,5.063 6.348,6.031 9.853,13.485 10.655,22.693-0.416,0.772-0.707,1.778-0.707,3.107 0,5.328 7.117,12.087 11.359,15.643 0.746,0.625 1.662,0.938 2.579,0.938s1.833-0.313 2.579-0.938c4.242-3.555 11.359-10.315 11.359-15.643 0-1.314-0.286-2.31-0.694-3.079 0.796-9.21 4.295-16.667 10.636-22.7 2.002-1.904 4.216-3.571 6.56-5.05-1.121,1.347-1.753,3.066-1.753,4.827 0,1.977 0.803,3.914 2.208,5.319s3.342,2.208 5.32,2.208c1.977,0 3.924-0.803 5.329-2.208 1.395-1.405 2.198-3.342 2.198-5.319 0-1.987-0.803-3.925-2.198-5.33-1.405-1.395-3.342-2.198-5.329-2.198-0.38,0-0.757,0.039-1.131,0.096 13.031-6.463 28.612-7.944 37.04-8.234-4.12,27.051-39.017,70.218-72.123,70.218z" transform="matrix(0.1304347813129425 0 0 0.1304347813129425 -10.999999044667106 106)" id="L1_2"/><g transform="matrix(0.1304347813129425 0 0 0.1304347813129425 74 32.00000022291101)" id="L1_3"><path d="m29.406,226.401c0-7.884 2.382-14.766 7.036-18.377 6.077-4.715 15.636-5.734 24.086-5.395-1.263,2.253-2.434,4.605-3.506,7.062-32.245,73.922 33.958,217.947 36.792,224.042 1.23,2.643 3.88,4.335 6.795,4.335h41.485c3.764,0 6.944-2.792 7.431-6.524l11.713-90.402c5.167-6.809 9.202-14.834 10.404-24.05 0,0 51.652,2.253 68.28,6.437 10.66,2.683 14.57,16.828 19.14,29.609 7.521,21.031 19.685,78.391 19.801,78.953 0.72,3.48 3.785,5.976 7.339,5.976h48.92c3.478,0 6.499-2.393 7.295-5.778l37.158-157.922c1.232,1.573 3.05,2.6 5.058,2.826 2.279,0.258 4.559-0.546 6.174-2.181 26.078-26.412 14.661-68.21 7.973-86.156 6.765-16.842 10.879-35.036 10.879-49.346 0-5.29-0.762-10.14-2.276-14.534h15.691c12.267,0 23.696-6.065 30.574-16.223s8.263-23.022 3.707-34.411c-0.064-0.16-0.133-0.317-0.208-0.471l-22.994-47.7c-1.517-3.149-5.014-4.83-8.419-4.052-3.408,0.779-5.826,3.81-5.826,7.306v31.056c0,5.786-4.703,10.503-10.484,10.512-9.412,0.019-19.799-0.032-30.867-0.142-18.446-0.169-29.724,5.702-36.431,11.738-6.606-5.944-18.067-11.74-36.015-11.74-11.069,0.11-21.877,0.161-31.283,0.144-5.782-0.01-10.485-4.726-10.485-10.512v-31.054c0-3.496-2.417-6.527-5.826-7.306-3.404-0.779-6.901,0.903-8.419,4.052l-22.994,47.7c-0.074,0.154-0.143,0.311-0.208,0.471-3.016,7.54-3.412,15.722-1.351,23.342-2.118,1.014-4.262,2.131-6.435,3.38-11.45,6.585-20.267,13.748-29.603,21.332-18.734,15.222-39.97,32.476-90.097,48.693-11.337,3.668-20.856,9.523-28.504,17.476-11.132-1.581-30.637-2.457-43.617,7.586-8.113,6.278-12.38,15.499-12.72,27.41-3.498,1.034-6.676,3.231-9.073,6.399-11.867,15.687-1.854,33.121 5.099,40.147 1.445,1.46 3.375,2.223 5.33,2.223 1.251,0 2.513-0.313 3.661-0.956 8.737-4.898 23.296-18.923 15.863-36.953v-0.001c-1.363-3.306-3.462-6.041-6.043-8.021zm-10.111,11.483c0.854,0.055 1.763,0.956 2.298,2.254v-0.001c2.425,5.882-0.84,10.9-4.159,14.163-2.278-4.109-4.007-9.976 0.016-15.293 0.399-0.527 1.106-1.171 1.845-1.123zm354.171-32.306c-1.522-4.713-4.068-8.099-7.721-10.351-3.226-1.989-6.959-2.842-10.986-3.205l7.77-31.524 31.966-15.983c-1.279,19.142-9.535,43.669-21.029,61.063zm-59.078-91.529l8.308,33.707-28.556-14.278c1.152-6.302 5.308-14.666 20.248-19.429zm-20.468,30.49l31.915,15.959 7.749,31.441c-5.183,0.409-9.888,1.645-13.568,5.305-1.988,1.977-3.485,4.493-4.53,7.627-1.795-2.731-3.553-5.68-5.257-8.836-8.869-16.429-15.112-36.378-16.309-51.496zm49.749,55.21c6.709,0.005 14.17-0.004 17.881,2.283 2.074,1.279 4.725,3.943 5.455,12.125-7.022,8.089-14.848,13.241-22.823,13.241-6.952,0-14.769-4.992-22.309-13.912 0.486-5.054 1.734-8.538 3.781-10.573 3.256-3.239 10.973-3.17 18.015-3.164zm50.603-66.295l-28.603,14.302 8.333-33.812c15.133,4.701 19.187,13.049 20.27,19.51zm-50.549,57.868l-19.608-79.559c5.597-0.924 12.221-1.455 20.067-1.455 7.851,0 14.48,0.514 20.079,1.41l-19.619,79.604h-0.919zm-102.997-111.189l8.682-18.009c0.847,13.277 11.914,23.837 25.394,23.86 9.472,0.014 19.915-0.032 31.041-0.142 16.053-0.193 24.177,5.279 28.135,9.79-16.839,1.036-29.66,4.755-38.97,11.304-1.361,0.957-2.637,1.977-3.833,3.054h-29.997c-7.396,0-14.016-3.513-18.163-9.637-4.102-6.059-4.931-13.415-2.289-20.22zm-105.212,342.946h-6.132v-56.287c3.609-1.863 8.961-4.905 14.661-9.083l-8.529,65.37zm137.66-74.987c-5.206-14.559-11.828-35.032-29.835-39.167-19.139-4.395-78.189-7.5-78.189-7.5-2.188-0.209-4.345,0.554-5.918,2.078-1.574,1.525-2.401,3.662-2.265,5.85 1.769,28.312-37.642,45.675-38.031,45.843-2.756,1.181-4.542,3.891-4.542,6.888v60.994h-8.928c-10.734-24.481-61.363-146.283-34.706-207.394 6.688-15.332 17.569-25.254 33.265-30.332 52.791-17.079 75.18-35.271 94.935-51.32 8.854-7.194 17.217-13.989 27.622-19.972 1.942-1.117 3.854-2.107 5.737-2.995 6.975,8.754 17.557,13.912 28.859,13.912h19.928c-1.586,4.436-2.398,9.301-2.398,14.534 0,11.632 3.256,27.199 9.005,42.698-14.927,25.818-14.985,47.945-11.993,62.619 3.723,18.253 12.824,29.273 13.21,29.734 1.545,1.843 3.881,2.831 6.28,2.661 2.399-0.172 4.571-1.486 5.836-3.531l2.427-3.923c10.03,18.175 31.919,29.836 33.123,30.466 1.083,0.568 2.278,0.856 3.478,0.856 0.798,0 1.599-0.128 2.372-0.385 7.154-2.387 13.009-5.767 17.803-9.644l-31.063,132.018h-10.422l7.356-94.341c0.321-4.127-2.763-7.732-6.889-8.054-4.141-0.326-7.733,2.763-8.054,6.889l-7.447,95.506h-11.45c-3.264-15.291-12.659-56.958-19.106-74.988zm112.958-91.52l-5.637-9.112c-1.688-2.727-4.925-4.079-8.053-3.36-3.127,0.719-5.449,3.35-5.775,6.542-0.027,0.261-2.826,25.077-25.946,34.715-9.677-5.804-27.431-19.452-27.205-33.837 0.053-3.37-2.152-6.362-5.387-7.309-3.233-0.948-6.704,0.382-8.479,3.248l-4.861,7.858c-4.96-10.94-9.88-30.544 0.714-55.298 11.824,23.164 29.01,42.366 48.679,42.366 16.356,0 32.177-11.938 44.988-33.767 3.516,14.42 5.329,33.284-3.038,47.954zm55.104-156.22c-4.146,6.124-10.767,9.637-18.163,9.637h-25.617c-1.176-1.065-2.435-2.077-3.779-3.033-9.951-7.074-24.145-10.853-43.23-11.519 4.015-4.462 12.119-9.75 27.96-9.596 11.126,0.11 21.571,0.161 31.042,0.142 13.48-0.023 24.546-10.584 25.393-23.86l8.682,18.01c2.642,6.806 1.813,14.161-2.288,20.219z"/><path d="m316.685,174.824c0.929-0.929 1.469-2.218 1.469-3.528 0-1.318-0.54-2.607-1.469-3.537-0.929-0.929-2.218-1.459-3.527-1.459-1.318,0-2.607,0.53-3.537,1.459-0.929,0.93-1.459,2.219-1.459,3.537 0,1.319 0.53,2.599 1.459,3.528 0.93,0.929 2.219,1.469 3.537,1.469 1.309,0 2.598-0.54 3.527-1.469z"/><path d="m378.117,167.759c-0.93-0.929-2.219-1.459-3.528-1.459-1.319,0-2.608,0.53-3.537,1.459-0.929,0.93-1.459,2.219-1.459,3.537 0,1.319 0.53,2.599 1.459,3.528 0.929,0.929 2.218,1.469 3.537,1.469 1.309,0 2.598-0.54 3.528-1.469 0.939-0.929 1.469-2.218 1.469-3.528 0-1.318-0.53-2.607-1.469-3.537z"/></g><g transform="matrix(0.1304347813129425 0 0 0.1304347813129425 208 27.000000461744207)" id="L1_4"><path d="m226.157,301.977c16.601,0 30.107,13.473 30.107,30.074v10.46c0,4.169 3.38,7.549 7.549,7.549h41.818c0.008,0 0.016,0.002 0.025,0.002 0.008,0 0.017-0.002 0.025-0.002h31.355c1.929,0 3.783-0.738 5.185-2.062 21.867-20.665 30.954-55.072 33.097-64.442 26.591-1.015 47.139-5.851 61.161-14.428 15.388-9.409 23.521-23.704 23.521-41.337 0-48.782-44.65-91.573-95.55-91.573-21.838,0-40.898,5.053-56.214,14.714-33.401-26.057-74.006-40.995-116.962-40.995-86.166,0-162.893,60.084-190.927,149.512-0.719,2.293-0.303,4.791 1.12,6.727s3.681,3.08 6.084,3.08h18.597c-0.001,0.344 0.012,0.691 0.06,1.042 6.13,45.491 42.919,76.7 44.482,78.006 1.358,1.135 3.071,1.757 4.841,1.757h73.222c4.169,0 7.549-3.38 7.549-7.549v-10.46c0-15.963 12.489-29.09 28.208-30.074h41.647zm208.57-110.214h-143.158c10.154-21.789 31.28-38.911 67.848-40.347v22.325c0,2.779 2.253,5.033 5.033,5.033s5.033-2.253 5.033-5.033v-22.242c27.377,1.787 52.027,17.956 65.244,40.264zm-274.659,62.394l-43.773-43.774 48.071-35.742h53.758c0.018,0 0.036-0.002 0.055-0.003l48.136,35.791-42.966,43.727h-63.281zm108.872-24.858c0.235,9.462 2.654,17.775 7.268,24.859h-31.694l24.426-24.859zm23.136-65.002c-8.42,9.101-14.708,20.233-18.594,32.649l-42.75-31.786 26.715-26.715c13.58,5.699 26.471,13.11 38.422,22.044-1.301,1.229-2.573,2.49-3.793,3.808zm-50.28-31.553l-26.8,26.8h-50.003l-26.189-26.189c16.762-5.433 34.393-8.321 52.469-8.321 17.379,0.001 34.344,2.676 50.523,7.71zm-118.493,6.463l27.044,27.044-48.071,35.742h-56.453c20.448-28.024 47.204-49.686 77.48-62.786zm-87.51,77.884h65.856l37.067,37.067h-120.636c4.807-13.148 10.766-25.543 17.713-37.067zm105.409,114.961v2.911h-16.096c-1.055-6.908-0.938-13.079 3.283-18.228 3.086-3.765 9.215-7.931 21.212-10.881-5.28,7.397-8.399,16.437-8.399,26.198zm42.716-45.17c-34.639,0.74-56.66,7.418-67.206,20.281-7.494,9.142-7.882,19.486-6.868,27.8h-31.421c-7.218-6.743-32.174-32.2-37.103-65.706h250.88c15.167,9.28 37.296,14.021 67.514,14.465-2.838,10.819-10.605,35.433-25.785,51.241h-17.799l7.148-21.444c1.318-3.955-0.819-8.23-4.775-9.549-3.956-1.318-8.23,0.82-9.549,4.775l-8.74,26.218h-28.851v-2.911c0-24.927-20.279-45.17-45.206-45.17h-42.239zm180.532-18.215c-80.452,0-80.452-30.767-80.452-40.876 0-6.988 0.757-14.066 2.382-20.951 0.154,0.009 0.306,0.023 0.463,0.023h154.702c2.165,6.71 3.357,13.738 3.357,20.928-5.68434e-14,27.123-27.069,40.876-80.452,40.876z"/><path d="m369.593,255.652h-9.78c-2.779,0-5.033,2.253-5.033,5.033s2.253,5.033 5.033,5.033h9.78c2.779,0 5.033-2.253 5.033-5.033s-2.254-5.033-5.033-5.033z"/><path d="m317.38,222.601c-1.993,0-3.936,0.805-5.345,2.214-1.399,1.399-2.204,3.352-2.204,5.335 0,1.993 0.805,3.936 2.204,5.345 1.409,1.399 3.362,2.204 5.345,2.204 1.983,0 3.935-0.806 5.335-2.204 1.409-1.409 2.215-3.362 2.215-5.345 0-1.983-0.806-3.936-2.215-5.335-1.4-1.409-3.352-2.214-5.335-2.214z"/><path d="m411.524,222.601c-1.993,0-3.936,0.805-5.345,2.214-1.399,1.399-2.204,3.352-2.204,5.335 0,1.993 0.805,3.936 2.204,5.345 1.409,1.399 3.352,2.204 5.345,2.204 1.983,0 3.925-0.806 5.335-2.204 1.41-1.409 2.215-3.362 2.215-5.345 0-1.983-0.805-3.936-2.215-5.335-1.399-1.409-3.352-2.214-5.335-2.214z"/><path d="m379.787,236.199c-1.057,0-2.094,0.433-2.839,1.178-0.755,0.755-1.178,1.792-1.178,2.849 0,1.057 0.423,2.104 1.178,2.849 0.745,0.755 1.782,1.178 2.839,1.178 1.067,0 2.104-0.433 2.848-1.178 0.755-0.745 1.188-1.782 1.188-2.849 0-1.057-0.433-2.094-1.188-2.849-0.744-0.745-1.782-1.178-2.848-1.178z"/><path d="m349.106,236.199c-1.057,0-2.093,0.433-2.848,1.178-0.745,0.755-1.178,1.792-1.178,2.849 0,1.067 0.433,2.104 1.178,2.849 0.755,0.745 1.791,1.178 2.848,1.178 1.057,0 2.094-0.433 2.849-1.178 0.745-0.745 1.178-1.791 1.178-2.849 0-1.057-0.432-2.094-1.178-2.849-0.755-0.745-1.791-1.178-2.849-1.178z"/></g><g transform="matrix(0.1304347813129425 0 0 0.1304347813129425 144.9999990446671 286)" id="L1_5"><path d="m400.484,350.024c23.257,0 42.746-18.91 42.746-42.167 0-9.171-2.957-17.989-8.4-25.254 2.815-9.992 4.294-19.854 4.294-28.74 0-12.504-3.814-22.115-11.58-29.17v-25.263c0-8.874-4.469-16.441-11.121-18.83-5.351-1.923-11.123-0.151-15.057,4.622l-6.984,8.471c-3.685,4.47-6.303,10.323-7.615,16.792-6.552-0.627-13.83-0.935-21.922-0.935-7.148,0-14.514,0.217-21.704,0.905-1.315-6.456-3.929-12.299-7.608-16.761l-6.984-8.471c-3.936-4.772-9.705-6.544-15.058-4.622-6.652,2.389-11.121,9.956-11.121,18.83v25.286c-7.296,6.576-11.804,15.917-11.804,29.148 0,2.276 0.1,4.61 0.275,6.979-24.768,0.745-71.175,4.639-113.98,21.965-5.646,2.286-10.69,5.061-15.136,8.305 0.572-23.085 10.226-44.328 27.316-59.99l72.377-66.33c20.465-18.756 31.905-44.372 32.21-72.13 0.306-27.758-10.567-53.621-30.614-72.822-0.072-0.069-0.145-0.136-0.219-0.202-15.934-14.082-36.388-20.982-57.587-19.424-21.203,1.555-40.428,11.362-54.134,27.615-32.687,38.76-75.845,90.01-95.83,114.056-28.281,34.026-41.709,71.269-37.812,104.867 3.095,26.687 17.121,50.142 40.562,67.829 0.064,0.049 0.13,0.096 0.196,0.143l83.685,58.97c10.274,41.514 36.286,80.677 37.857,83.015 1.381,2.056 3.695,3.289 6.172,3.289h47.217c2.093,0 4.089-0.882 5.499-2.43 1.409-1.548 2.1-3.618 1.904-5.702l-3.713-39.434c4.055-5.466 7.188-11.862 8.256-19.169h38.221c6.255,0 12.441,2.75 16.548,7.356 2.307,2.588 4.92,6.867 4.266,12.559-1.173,10.199-8.932,29.755-11.821,36.43-0.995,2.298-0.767,4.943 0.607,7.036 1.375,2.093 3.711,3.354 6.215,3.354h52.061c2.954,0 5.629-1.749 6.812-4.456 0.254-0.585 21.538-49.372 42.508-105.52zm-96.222-42.167c0-5.918 1.862-11.547 5.383-16.28 1.438-1.932 1.851-4.44 1.109-6.73-3.009-9.287-4.785-18.55-5.212-27.049l15.349,5.116c10.853,3.617 19.647,11.244 24.762,21.476l11.511,23.022c-2.679,1.262-4.336,3.205-4.336,5.464 0,2.819 3.06,8.754 7.555,11.38v11.04c0,2.112 1.472,3.872 3.444,4.334-6.06-0.177-12.047-1.909-17.81-5.197-1.134-0.647-2.405-0.977-3.685-0.977-0.774,0-1.55,0.121-2.302,0.365-2.735,0.891-5.582,1.342-8.461,1.342-15.057,0.001-27.307-12.249-27.307-27.306zm1.667-60.124c2.204-12.262 12.937-22.513 53.958-23.269v8.946c0,2.737 2.219,4.957 4.957,4.957s4.957-2.219 4.957-4.957v-8.947c42.731,0.766 52.176,11.553 54.035,23.269l-18.174,5.778c-13.365,4.455-24.195,13.848-30.494,26.447l-10.324,20.647-10.323-20.647c-6.3-12.6-17.13-21.993-30.495-26.448l-18.097-5.776zm99.926-44.582c1.979-3.318 6.818-7.485 6.818-3.722v16.497c-3.366-1.273-7.071-2.356-11.176-3.24 0.859-3.771 2.749-6.836 4.358-9.535zm-88.616-3.722c0-3.762 4.594-0.325 6.818,3.722 1.513,2.754 3.499,5.766 4.358,9.538-3.903,0.855-7.654,1.929-11.176,3.272v-16.532zm-250.383,103.212c-20.347-15.385-32.005-34.763-34.654-57.601-3.424-29.521 8.821-62.78 34.477-93.648 19.957-24.012 63.091-75.233 95.761-113.974 11.104-13.166 26.678-21.111 43.854-22.371 17.131-1.256 33.649,4.296 46.54,15.636 16.976,16.316 26.182,38.263 25.922,61.815-0.26,23.602-9.986,45.383-27.388,61.331l-72.377,66.33c-20.343,18.643-32.068,45.162-32.17,72.756-0.016,4.354 0.266,8.682 0.82,12.96-2.88,4.437-5.153,9.328-6.792,14.676-3.088,10.077-3.684,21.108-2.614,32.39l-71.379-50.3zm146.547,142.488l-1.921-11.702c3.126-1.694 7.305-4.199 11.661-7.497l1.808,19.199h-11.548zm97.53-54.404c-6.884-7.721-17.22-12.331-27.647-12.331h-45.322c-2.052,0-4.014,0.849-5.419,2.344-1.405,1.496-2.13,3.506-2.002,5.555 1.384,22.148-29.911,35.955-30.216,36.087-3.143,1.347-4.962,4.664-4.408,8.038l2.415,14.711h-8.37c-9.524-15.179-47.43-79.358-34.891-120.236 4.059-13.234 13.011-22.492 27.366-28.302 41.268-16.704 87.314-20.233 110.533-20.878 0.707,3.388 1.548,6.803 2.556,10.225-4.025,6.59-6.136,14.093-6.136,21.919 0,14.04 6.902,26.491 17.484,34.161-0.424,9.463 1.49,21.122 9.421,33.097 10.65,16.08 15.633,26.846 17.961,33.221l-13.525,36.793h-10.61c3.388-8.86 7.743-21.497 8.75-30.251 1.001-8.71-1.819-17.287-7.94-24.153zm35.342,54.404h-9.511l11.092-28.507c3.737-2.939 9.82-8.033 16.497-14.888-8.25,20.356-14.942,36.097-18.078,43.395zm-2.041-38.358c-2.401-7.166-7.751-19.132-19.672-37.131-5.21-7.866-7.264-15.549-7.719-22.264 4.587,1.715 9.548,2.658 14.727,2.658 3.343,0 6.659-0.395 9.895-1.176 7.513,3.769 15.363,5.677 23.38,5.677 6.652,0 13.246-1.473 19.692-4.344-2.277,6.042-4.136,12.171-6.791,17.776-8.846,18.67-25.284,31.973-33.512,38.804zm56.819-71.607c-3.57,0-7.049-0.684-10.341-2.032-2.214-0.907-4.73-0.693-6.759,0.576-5.981,3.738-12.056,5.711-18.073,5.916 1.962-0.469 3.425-2.222 3.425-4.328v-11.04c4.495-2.625 7.555-8.561 7.555-11.38 0-2.259-1.657-4.202-4.337-5.464l11.511-23.022c5.116-10.232 13.91-17.859 24.762-21.476l15.333-5.111c-0.418,7.549-1.997,15.84-4.652,24.244-0.804,2.545-0.182,5.326 1.63,7.286 4.677,5.059 7.252,11.638 7.252,18.524-1.13687e-13,15.057-12.249,27.307-27.306,27.307z"/><path d="m337.474,288.297c1.378-1.388 2.171-3.301 2.171-5.254 0-1.963-0.793-3.876-2.171-5.254-1.388-1.388-3.301-2.181-5.264-2.181-1.953,0-3.866,0.793-5.255,2.181-1.378,1.378-2.171,3.291-2.171,5.254 0,1.953 0.793,3.876 2.171,5.254 1.388,1.388 3.301,2.181 5.255,2.181 1.963,0 3.876-0.792 5.264-2.181z"/><path d="m396.758,275.608c-1.963,0-3.876,0.793-5.264,2.171-1.378,1.388-2.171,3.301-2.171,5.264 0,1.953 0.793,3.876 2.171,5.254 1.388,1.388 3.301,2.181 5.264,2.181 1.953,0 3.866-0.793 5.255-2.181 1.388-1.378 2.181-3.301 2.181-5.254 0-1.963-0.793-3.876-2.181-5.264-1.389-1.378-3.302-2.171-5.255-2.171z"/></g><g transform="matrix(0.1304347813129425 0 0 0.1304347813129425 236.99999972932233 198)" id="L1_6"><path d="m169.678,460c2.144,0 4.186-0.915 5.613-2.516 1.427-1.6 2.102-3.734 1.857-5.864l-4.792-41.603c5.751-7.586 10.087-16.617 10.96-27.068 0,0 38.237-7.461 51.166-8.385 8.352-0.597 16.597,3.907 22.102,10.082 4.56,5.115 6.674,11.378 5.955,17.637-1.956,17.01-6.786,48.745-6.834,49.064-0.33,2.167 0.302,4.37 1.73,6.034 1.429,1.663 3.512,2.619 5.704,2.619h57.668c2.988,0 5.693-1.769 6.89-4.507 0.348-0.797 31.197-71.505 59.584-149.054 23.704-3.053 42.083-23.349 42.083-47.87 0-10.698-3.514-20.976-9.973-29.381 3.379-11.813 5.155-23.48 5.155-33.969 0-11.324-2.719-20.574-8.248-27.935l32.641-118.018c5.001-18.079 6.487-41.467-5.778-47.882-2.996-1.567-10.956-4.017-20.151,7.033l-17.947,21.572c-11.892,14.295-22.827,37.368-30,63.302l-14.362,51.926c-6.719-0.526-14.063-0.786-22.101-0.786-5.329,0-10.763,0.104-16.18,0.388l-14.25-51.527c-7.172-25.934-18.107-49.007-30-63.303l-17.947-21.572c-9.194-11.05-17.154-8.6-20.151-7.033-12.266,6.415-10.778,29.803-5.778,47.882l31.307,113.191c-8.024,7.499-12.946,18.028-12.946,32.763 0,4.764 0.35,9.732 1.004,14.814-26.827,2.74-93.975,11.659-155.261,36.466-0.219,0.089-0.425,0.187-0.642,0.277-1.104-1.31-2.099-2.546-2.726-3.63-0.849-1.469-1.594-3.512-2.382-5.675-1.932-5.306-4.338-11.911-10.617-15.543-6.122-3.542-12.976-2.372-18.483-1.431-2.349,0.401-4.569,0.78-6.411,0.78-1.842,0-4.062-0.379-6.411-0.78-5.508-0.94-12.362-2.111-18.483,1.431-6.28,3.633-8.685,10.237-10.617,15.544-0.788,2.163-1.532,4.206-2.381,5.675-0.785,1.356-2.139,2.947-3.573,4.63-3.698,4.342-8.3,9.745-8.3,17.251 0,7.506 4.602,12.909 8.3,17.251 1.434,1.684 2.789,3.274 3.573,4.631 0.85,1.468 1.594,3.512 2.382,5.675 1.932,5.306 4.338,11.909 10.617,15.543 3.151,1.823 6.496,2.398 9.752,2.398 2.8,0 5.522-0.426 8.01-0.847-6.05,63.247 50.489,143.502 53.097,147.163 1.411,1.981 3.693,3.157 6.125,3.157h60.45zm231.518-287.06l-11.097,6.141c-13.345,7.385-24.068,22.657-30.196,43.002l-11.613,38.557c-2.343-0.679-5.044-1.061-7.968-1.061s-5.625,0.382-7.968,1.061l-11.613-38.557c-6.128-20.345-16.851-35.617-30.196-43.002l-12.904-7.141c9.136-7.242 26.24-12.133 57.668-12.451v12.405c0,2.769 2.245,5.013 5.013,5.013s5.013-2.245 5.013-5.013v-12.352c31.488,0.661 47.644,6.014 55.861,13.398zm-134.877,85.63c0-7.204 2.267-14.058 6.554-19.82 1.454-1.954 1.872-4.491 1.121-6.808-4.121-12.719-6.3-25.418-6.3-36.722 0-5.412 0.734-10.706 3.311-15.492l14.684,8.126c10.883,6.023 20.16,19.553 25.451,37.12l12.729,42.264c-0.167,0.55-0.268,1.117-0.268,1.702 0,4.15 5.129,13.632 12.208,16.711v11.345c-6.774-0.448-13.454-2.526-19.896-6.201-1.147-0.654-2.433-0.988-3.727-0.988-0.782,0-1.568,0.122-2.328,0.37-3.33,1.084-6.795,1.634-10.299,1.634-18.327-5.68434e-14-33.24-14.912-33.24-33.241zm-17.529-213.313c-4.267-15.426-3.32-25.407-2.066-29.266 0.515,0.459 1.163,1.115 1.937,2.046l17.947,21.572c10.422,12.526 20.54,34.094 27.067,57.693l13.519,48.88c-10.273,1.36-20.039,3.692-28.394,7.582l-30.01-108.507zm-209.015,249.854c-1.549-0.896-2.861-4.496-4.017-7.672-0.976-2.679-1.985-5.449-3.496-8.061-1.468-2.537-3.335-4.73-5.142-6.851-2.316-2.719-4.71-5.53-4.71-7.499 0-1.969 2.395-4.781 4.71-7.499 1.806-2.12 3.674-4.313 5.142-6.851 1.511-2.612 2.52-5.381 3.495-8.06 1.157-3.176 2.468-6.776 4.018-7.673 0.48-0.278 1.243-0.385 2.164-0.385 1.796,0 4.193,0.409 6.255,0.762 2.864,0.489 5.825,0.995 8.943,0.995 3.118,0 6.079-0.506 8.943-0.995 3.12-0.533 7.004-1.195 8.419-0.376 1.55,0.897 2.861,4.496 4.017,7.672 0.975,2.678 1.984,5.448 3.496,8.06 0.623,1.076 1.326,2.081 2.057,3.054-15.631,9.666-26.08,23.153-31.103,40.281-1.625,0.192-3.215,0.455-4.773,0.721-3.118,0.534-7,1.197-8.418,0.377zm102.501,149.849l-2.11-8.765c4.706-2.493 11.672-6.619 18.648-12.328l2.429,21.092h-18.967zm32.389-75.832c-3.811,0.625-6.53,4.035-6.289,7.89 1.861,29.778-39.485,47.988-39.894,48.164-3.369,1.444-5.207,5.107-4.349,8.671l2.674,11.107h-13.615c-11.136-16.602-60.898-94.896-45.824-146.619 5.126-17.589 17.122-29.986 36.674-37.9 59.776-24.196 127.212-32.96 152.375-35.537 0.648,2.7 1.357,5.41 2.167,8.123-4.79,7.651-7.303,16.405-7.303,25.543 0,13.608 5.668,25.91 14.756,34.694-3.655,13.205-5.958,35.863 9.691,59.489 17.371,26.228 23.528,41.978 25.697,49.433l-17.988,42.775h-11.563c1.594-10.755 4.246-29.091 5.61-40.958 1.217-10.577-2.217-21.006-9.67-29.365-8.441-9.466-21.157-16.146-33.905-15.119-14.958,1.206-59.244,9.609-59.244,9.609zm140.759,38.54c5.733-4.536 15.699-13.079 26.465-25.294-12.13,30.096-21.995,53.24-26.019,62.588h-16.12l15.674-37.294zm-4.328-9.774c-2.871-9.133-10.31-25.461-27.011-50.677-12.071-18.224-11.774-35.727-9.373-47.269 7.264,4.379 15.767,6.903 24.849,6.903 3.974,0 7.915-0.487 11.755-1.451 8.766,4.469 17.93,6.732 27.285,6.732 9.425,0 18.764-2.541 27.81-7.56 1.662,0.532 3.348,0.965 5.053,1.312-4.806,13.04-8.733,26.254-14.413,38.124-13.389,27.977-35.758,45.406-45.955,53.886-0.003-0.002 0.004,0.001 0,0zm69.988-106.082c-4.347,0-8.582-0.832-12.587-2.473-2.239-0.917-4.784-0.701-6.837,0.582-5.56,3.475-11.197,5.685-16.825,6.632v-10.9c7.079-3.078 12.208-12.561 12.208-16.711 0-0.586-0.101-1.152-0.268-1.702l12.729-42.264c5.291-17.568 14.567-31.098 25.45-37.12l12.182-6.741c1.955,4.519 2.372,9.356 2.372,14.107 0,10.152-1.956,21.712-5.658,33.43-0.813,2.574-0.184,5.386 1.648,7.369 5.692,6.159 8.828,14.168 8.828,22.551-5.68434e-14,18.328-14.912,33.24-33.242,33.24zm53.362-246.554l-30.713,111.046c-0.094-0.056-0.181-0.116-0.275-0.171-7.184-4.179-16.258-7.186-27.65-9.106l13.753-49.725c6.527-23.6 16.646-45.167 27.067-57.693l17.947-21.572c0.774-0.931 1.422-1.587 1.937-2.046 1.254,3.86 2.2,13.841-2.066,29.267z"/><path d="m304.066,245.707c0-1.975-0.802-3.91-2.196-5.314-1.404-1.404-3.338-2.206-5.314-2.206-1.985,0-3.921,0.802-5.324,2.206-1.404,1.404-2.206,3.339-2.206,5.314 0,1.985 0.802,3.921 2.206,5.324 1.404,1.393 3.339,2.196 5.324,2.196 1.975,0 3.91-0.802 5.314-2.196 1.394-1.403 2.196-3.338 2.196-5.324z"/><path d="m379.185,238.188c-1.985,0-3.921,0.802-5.324,2.206-1.394,1.394-2.196,3.339-2.196,5.314 0,1.985 0.802,3.921 2.196,5.324 1.404,1.393 3.339,2.196 5.324,2.196 1.975,0 3.91-0.802 5.314-2.196 1.404-1.404 2.206-3.339 2.206-5.324 0-1.975-0.802-3.921-2.206-5.314-1.394-1.404-3.339-2.206-5.314-2.206z"/></g><g transform="matrix(0.1304347813129425 0 0 0.1304347813129425 319.99999963378906 287)" id="L1_7"><path d="m82.09,320.427c0-7.738 2.331-14.467 6.895-18.009 7.48-5.805 20.348-5.911 29.698-4.826-1.342,2.28-2.542,4.709-3.6,7.286-21.052,51.316 22.976,146.79 24.861,150.829 1.221,2.618 3.849,4.292 6.738,4.292h40.45c3.833,0 7.039-2.914 7.403-6.73l7.587-79.551c0.006-0.058 0.004-0.115 0.008-0.172 3.887-5.157 7.032-11.073 8.605-17.744 8.414,4.345 20.406,10.684 28.143,15.4 12.761,7.778 18.965,16.303 18.965,26.06v55.302c0,4.107 3.329,7.436 7.436,7.436h57.644c3.815,0 7.012-2.888 7.398-6.684l31.939-313.984c20.949-15.716 33.542-53.644 33.542-75.823 0-2.345-0.193-4.752-0.631-7.159l5.25-5.25c4.832-4.832 7.17-11.498 6.416-18.29l-2.303-20.732c-0.316-2.841-2.232-5.25-4.929-6.196-2.697-0.945-5.698-0.262-7.719,1.759l-16.086,16.085c-2.046,2.046-3.682,4.502-4.803,7.17-1.226-0.407-2.502-0.79-3.845-1.139l3.45-10.352c4.644-0.753 8.205-4.78 8.205-9.634 0-5.388-4.384-9.771-9.771-9.771s-9.772,4.384-9.772,9.771c0,2.271 0.786,4.359 2.091,6.02l-4.032,12.097c-4.453-0.569-9.393-0.877-14.874-0.877-5.232,0-9.959,0.293-14.234,0.828l-3.867-11.601c1.529-1.725 2.467-3.986 2.467-6.468 0-5.388-4.384-9.771-9.771-9.771s-9.772,4.384-9.772,9.771c0,4.657 3.278,8.558 7.646,9.532l3.458,10.376c-1.374,0.354-2.688,0.737-3.939,1.151-1.121-2.641-2.745-5.073-4.774-7.103l-16.086-16.085c-2.021-2.021-5.023-2.705-7.719-1.759-2.698,0.946-4.614,3.355-4.929,6.196l-2.303,20.732c-0.755,6.792 1.584,13.458 6.416,18.29l4.816,4.816c-0.56,2.693-0.762,5.277-0.762,7.593 0,1.427 0.072,2.92 0.181,4.446l-44.274,158.876c-0.121,0.433-0.182,0.881-0.182,1.331v26.535c-21.536,1.219-57.862,5.857-100.726,21.778-5.305,1.97-10.018,4.637-14.139,7.966-6.43-1.448-33.577-6.547-50.05,6.199-7.989,6.181-12.196,15.256-12.54,26.974-3.438,1.027-6.56,3.192-8.916,6.308-11.704,15.47-1.833,32.659 5.021,39.587 1.434,1.449 3.35,2.207 5.289,2.206 1.242,0 2.494-0.311 3.633-0.949 8.614-4.828 22.969-18.658 15.637-36.441-1.344-3.252-3.405-5.944-5.94-7.898zm287.078-310.682c-0.066-0.03-0.131-0.061-0.199-0.089 0.021-0.012 0.041-0.028 0.066-0.028 0.069,1.77636e-15 0.119,0.052 0.133,0.117zm-298.912,338.064c-2.208-4.019-3.866-9.735 0.052-14.912 0.383-0.507 0.976-1.086 1.68-1.086 0.055,0 0.109,0.003 0.165,0.011 0.812,0.105 1.607,0.918 2.125,2.174 2.36,5.722-0.788,10.613-4.022,13.813zm286.684-305.084l-14.491,59.107-14.431-59.18c3.788-0.491 9.426-0.768 14.431-0.768 5.34,7.10543e-15 10.53,0.304 14.491,0.841zm-14.491,88.884c-5.017,0-10.715-3.659-16.292-10.195 2.102-6.495 8.393-10.837 16.481-10.837 8.234,0 14.596,4.504 16.582,11.193-5.224,6.021-10.977,9.839-16.771,9.839zm-38.481-68.099c0-3.845 0-13.338 14.297-18.371l14.598,59.231c-5.148,1.927-9.345,5.369-12.051,9.81-1.336-2.056-2.652-4.253-3.93-6.62-7.725-14.308-12.914-32.01-12.914-44.05zm-8.411-22.926c-1.619-1.62-2.404-3.855-2.15-6.131l.595-5.355 5.144,5.144c0.727,0.726 1.301,1.605 1.677,2.56l.198,1.008c-1.607,1.274-3.009,2.619-4.228,4.01l-1.236-1.236zm-40.823,188.256l38.779-139.155c1.799,6.005 4.091,12.093 6.788,17.929l-40.631,146.692c-1.415-0.012-3.071-0.008-4.936,0.022v-25.488zm-33.444,43.236l16.301,24.515-12.593,6.296-34.522-8.63-7.265-14.53c14.087-3.668 26.945-6.078 38.079-7.651zm-93.376,40.918l15.678,7.839v23.767l-17.467,17.467c-2.751-17.871-3.009-35.373 1.789-49.073zm45.419,132.134v-48.245c3.142-1.64 7.598-4.195 12.368-7.637l-5.33,55.882h-7.038zm163.364-201.454l-18.546-6.182 7.855-31.419 15.025-5.008-4.334,42.609zm5.435-53.427l-21.842,7.28c-1.608,0.536-2.831,1.857-3.242,3.501l-9.628,38.513c-0.628,2.513 0.784,5.086 3.242,5.906l25.008,8.335-19.464,191.345h-14.272l2.476-47.663c0.213-4.101-2.939-7.599-7.04-7.812-4.098-0.217-7.599,2.939-7.812,7.04l-2.516,48.435h-14.326v-47.866c0-15.164-8.78-28.204-26.096-38.759-13.435-8.189-37.932-20.447-38.969-20.964-2.379-1.189-5.211-1.017-7.429,0.452-2.217,1.468-3.482,4.009-3.316,6.663 1.568,25.09-33.593,40.589-33.937,40.738-2.734,1.172-4.507,3.86-4.507,6.835v52.9h-6.948c-4.682-10.798-16.809-40.408-23.23-71.198l23.771-23.771c0.93-0.93 1.452-2.191 1.452-3.506v-28.885c0-1.878-1.061-3.594-2.741-4.434l-18.586-9.293c4.07-6.392 9.707-10.882 17.092-13.625 8.332-3.095 16.422-5.74 24.198-8.005l9.159,18.317c0.647,1.295 1.828,2.241 3.232,2.592l38.513,9.628c0.396,0.099 0.8,0.148 1.203,0.148 0.764,0 1.524-0.177 2.217-0.523l19.256-9.628c1.272-0.636 2.21-1.787 2.575-3.162 0.365-1.374 0.122-2.839-0.667-4.022l-16.696-25.044c20.047-2.119 32.278-1.404 32.521-1.387 3.518,0.231 6.722-2.035 7.664-5.435l38.261-138.135c9.645,13.451 20.658,20.718 31.742,20.718 1.412,0 2.8-0.109 4.166-0.307l-4.484,44.078zm22.509-75.773c-2.757-4.684-7.155-8.288-12.575-10.229l14.59-59.195c14.275,4.903 14.275,14.21 14.275,18.46-0.001,14.883-6.735,36.167-16.29,50.964zm19.771-76.514l.227-1.159c0.376-0.955 0.95-1.833 1.677-2.56l5.145-5.145 .595,5.355c0.253,2.277-0.531,4.512-2.15,6.131l-1.384,1.383c-1.188-1.398-2.553-2.739-4.11-4.005z"/><path d="m321.379,85.789c0.922-0.922 1.458-2.201 1.458-3.5 0-1.309-0.535-2.588-1.458-3.51-0.922-0.922-2.201-1.458-3.5-1.458-1.309,0-2.588,0.535-3.51,1.458-0.922,0.922-1.448,2.201-1.448,3.51 0,1.299 0.525,2.577 1.448,3.5 0.922,0.922 2.201,1.458 3.51,1.458 1.299,0 2.578-0.536 3.5-1.458z"/><path d="m334.665,114.81c-1.041,0-2.062,0.416-2.806,1.16-0.733,0.734-1.16,1.765-1.16,2.806 0,1.041 0.427,2.062 1.16,2.806 0.744,0.733 1.765,1.16 2.806,1.16 1.051,0 2.073-0.427 2.806-1.16 0.744-0.744 1.16-1.765 1.16-2.806 0-1.041-0.416-2.072-1.16-2.806-0.734-0.744-1.755-1.16-2.806-1.16z"/><path d="m350.886,114.81c-1.041,0-2.073,0.427-2.806,1.16-0.734,0.734-1.16,1.755-1.16,2.806 0,1.041 0.426,2.062 1.16,2.806 0.744,0.733 1.765,1.16 2.806,1.16 1.041,0 2.062-0.427 2.805-1.16 0.734-0.744 1.16-1.765 1.16-2.806 0-1.041-0.427-2.072-1.16-2.806-0.743-0.734-1.764-1.16-2.805-1.16z"/><path d="m366.531,77.332c-1.309,0-2.588,0.525-3.51,1.448-0.922,0.922-1.448,2.201-1.448,3.5 0,1.309 0.525,2.588 1.448,3.51 0.922,0.922 2.201,1.448 3.51,1.448 1.299,0 2.578-0.525 3.5-1.448 0.922-0.922 1.458-2.201 1.458-3.51 0-1.299-0.535-2.578-1.458-3.5-0.922-0.923-2.201-1.448-3.5-1.448z"/><path d="m302.601,293.555h-38.513c-1.526,0-2.968,0.703-3.907,1.906-0.94,1.204-1.272,2.772-0.902,4.253l9.628,38.513c0.551,2.207 2.534,3.755 4.809,3.755h28.885c1.315,0 2.576-0.522 3.506-1.452l9.628-9.628c1.327-1.328 1.791-3.292 1.198-5.073l-9.628-28.885c-0.676-2.023-2.57-3.389-4.704-3.389zm-2.054,38.513h-22.96l-7.15-28.598h28.59l7.53,22.588-6.01,6.01z"/></g></defs><g fi:class="KUsePattern"><pattern id="pattern_L1_0" width="350" height="350" patternUnits="userSpaceOnUse"><use xlink:href="#L1_0" x="-350" y="-350"/><use xlink:href="#L1_0" x="0" y="-350"/><use xlink:href="#L1_0" x="350" y="-350"/><use xlink:href="#L1_0" x="-350" y="0"/><use xlink:href="#L1_0" x="0" y="0"/><use xlink:href="#L1_0" x="350" y="0"/><use xlink:href="#L1_0" x="-350" y="350"/><use xlink:href="#L1_0" x="0" y="350"/><use xlink:href="#L1_0" x="350" y="350"/></pattern><rect x="0" y="0" width="100%" height="100%" fill="url(#pattern_L1_0)"/></g><g fi:class="KUsePattern"><pattern id="pattern_L1_1" width="350" height="350" patternUnits="userSpaceOnUse"><use xlink:href="#L1_1" x="-350" y="-350"/><use xlink:href="#L1_1" x="0" y="-350"/><use xlink:href="#L1_1" x="350" y="-350"/><use xlink:href="#L1_1" x="-350" y="0"/><use xlink:href="#L1_1" x="0" y="0"/><use xlink:href="#L1_1" x="350" y="0"/><use xlink:href="#L1_1" x="-350" y="350"/><use xlink:href="#L1_1" x="0" y="350"/><use xlink:href="#L1_1" x="350" y="350"/></pattern><rect x="0" y="0" width="100%" height="100%" fill="url(#pattern_L1_1)"/></g><g fi:class="KUsePattern"><pattern id="pattern_L1_2" width="350" height="350" patternUnits="userSpaceOnUse"><use xlink:href="#L1_2" x="-350" y="-350"/><use xlink:href="#L1_2" x="0" y="-350"/><use xlink:href="#L1_2" x="350" y="-350"/><use xlink:href="#L1_2" x="-350" y="0"/><use xlink:href="#L1_2" x="0" y="0"/><use xlink:href="#L1_2" x="350" y="0"/><use xlink:href="#L1_2" x="-350" y="350"/><use xlink:href="#L1_2" x="0" y="350"/><use xlink:href="#L1_2" x="350" y="350"/></pattern><rect x="0" y="0" width="100%" height="100%" fill="url(#pattern_L1_2)"/></g><g fi:class="KUsePattern"><pattern id="pattern_L1_3" width="350" height="350" patternUnits="userSpaceOnUse"><use xlink:href="#L1_3" x="-350" y="-350"/><use xlink:href="#L1_3" x="0" y="-350"/><use xlink:href="#L1_3" x="350" y="-350"/><use xlink:href="#L1_3" x="-350" y="0"/><use xlink:href="#L1_3" x="0" y="0"/><use xlink:href="#L1_3" x="350" y="0"/><use xlink:href="#L1_3" x="-350" y="350"/><use xlink:href="#L1_3" x="0" y="350"/><use xlink:href="#L1_3" x="350" y="350"/></pattern><rect x="0" y="0" width="100%" height="100%" fill="url(#pattern_L1_3)"/></g><g fi:class="KUsePattern"><pattern id="pattern_L1_4" width="350" height="350" patternUnits="userSpaceOnUse"><use xlink:href="#L1_4" x="-350" y="-350"/><use xlink:href="#L1_4" x="0" y="-350"/><use xlink:href="#L1_4" x="350" y="-350"/><use xlink:href="#L1_4" x="-350" y="0"/><use xlink:href="#L1_4" x="0" y="0"/><use xlink:href="#L1_4" x="350" y="0"/><use xlink:href="#L1_4" x="-350" y="350"/><use xlink:href="#L1_4" x="0" y="350"/><use xlink:href="#L1_4" x="350" y="350"/></pattern><rect x="0" y="0" width="100%" height="100%" fill="url(#pattern_L1_4)"/></g><g fi:class="KUsePattern"><pattern id="pattern_L1_5" width="350" height="350" patternUnits="userSpaceOnUse"><use xlink:href="#L1_5" x="-350" y="-350"/><use xlink:href="#L1_5" x="0" y="-350"/><use xlink:href="#L1_5" x="350" y="-350"/><use xlink:href="#L1_5" x="-350" y="0"/><use xlink:href="#L1_5" x="0" y="0"/><use xlink:href="#L1_5" x="350" y="0"/><use xlink:href="#L1_5" x="-350" y="350"/><use xlink:href="#L1_5" x="0" y="350"/><use xlink:href="#L1_5" x="350" y="350"/></pattern><rect x="0" y="0" width="100%" height="100%" fill="url(#pattern_L1_5)"/></g><g fi:class="KUsePattern"><pattern id="pattern_L1_6" width="350" height="350" patternUnits="userSpaceOnUse"><use xlink:href="#L1_6" x="-350" y="-350"/><use xlink:href="#L1_6" x="0" y="-350"/><use xlink:href="#L1_6" x="350" y="-350"/><use xlink:href="#L1_6" x="-350" y="0"/><use xlink:href="#L1_6" x="0" y="0"/><use xlink:href="#L1_6" x="350" y="0"/><use xlink:href="#L1_6" x="-350" y="350"/><use xlink:href="#L1_6" x="0" y="350"/><use xlink:href="#L1_6" x="350" y="350"/></pattern><rect x="0" y="0" width="100%" height="100%" fill="url(#pattern_L1_6)"/></g><g fi:class="KUsePattern"><pattern id="pattern_L1_7" width="350" height="350" patternUnits="userSpaceOnUse"><use xlink:href="#L1_7" x="-350" y="-350"/><use xlink:href="#L1_7" x="0" y="-350"/><use xlink:href="#L1_7" x="350" y="-350"/><use xlink:href="#L1_7" x="-350" y="0"/><use xlink:href="#L1_7" x="0" y="0"/><use xlink:href="#L1_7" x="350" y="0"/><use xlink:href="#L1_7" x="-350" y="350"/><use xlink:href="#L1_7" x="0" y="350"/><use xlink:href="#L1_7" x="350" y="350"/></pattern><rect x="0" y="0" width="100%" height="100%" fill="url(#pattern_L1_7)"/></g></svg>