<svg xmlns="http://www.w3.org/2000/svg" xmlns:xlink="http://www.w3.org/1999/xlink" xmlns:fi="http://pattern.flaticon.com/" x="0" y="0" width="1500" height="750" viewBox="0 0 1500 750"><rect x="0px" y="0px" width="100%" height="100%" opacity="0" fill="#34b9f5"/><defs><g transform="matrix(0.06905339650745214 -0.041432037952342016 0.041432037952342016 0.06905339650745214 254.71572877829269 193.9289322098918)" id="L1_0"><path d="M146.125,119.398c5.444,0,10.615-2.628,13.815-7.031c5.53-7.612,3.831-18.304-3.789-23.842     c-7.347-5.333-18.5-3.55-23.834,3.789c-5.521,7.62-3.823,18.304,3.789,23.834C139.034,118.272,142.507,119.398,146.125,119.398z"/><path d="M65.877,299.196c-3.686,2.688-6.118,6.639-6.827,11.145s0.375,9.011,3.063,12.689c3.2,4.403,8.354,7.031,13.807,7.031     c3.618,0,7.083-1.118,10.035-3.26c7.586-5.53,9.284-16.222,3.755-23.842C84.395,295.629,73.207,293.845,65.877,299.196z      M75.921,321.527l-0.009-8.525l0.017-0.009L75.921,321.527z"/><path d="M503.467,494.933H256C124.245,494.933,17.067,387.746,17.067,256C17.067,124.245,124.245,17.067,256,17.067     c131.746,0,238.933,107.179,238.933,238.933c0,84.326-43.128,160.785-115.354,204.527c-4.036,2.441-5.325,7.689-2.884,11.725     c2.449,4.036,7.723,5.316,11.716,2.876C465.792,428.271,512,346.342,512,256C512,114.842,397.158,0,256,0S0,114.842,0,256     s114.842,256,256,256h247.467c4.71,0,8.533-3.823,8.533-8.533C512,498.748,508.177,494.933,503.467,494.933z"/><path d="M126.157,282.095c29.653,0,55.748-18.97,64.922-47.198c11.622-35.797-8.03-74.385-43.836-86.016     c-6.852-2.227-13.952-3.354-21.103-3.354c-29.662,0-55.74,18.961-64.913,47.181c-11.631,35.797,8.03,74.394,43.827,86.033     C111.906,280.96,119.006,282.095,126.157,282.095z M77.466,197.982c6.869-21.171,26.428-35.388,48.674-35.388     c5.359,0,10.684,0.845,15.838,2.517c26.846,8.721,41.583,37.666,32.87,64.512c-6.886,21.171-26.453,35.405-48.691,35.405     c-5.359,0-10.684-0.853-15.829-2.526C83.482,253.781,68.736,224.836,77.466,197.982z"/><path d="M254.558,461.952c1.792,0,3.567-0.282,5.282-0.836c8.934-2.91,13.85-12.552,10.957-21.513     c-2.85-8.755-12.74-13.807-21.513-10.948c-4.326,1.408-7.851,4.412-9.933,8.482c-2.065,4.062-2.432,8.687-1.024,13.013     C240.614,457.207,247.125,461.952,254.558,461.952z"/><path d="M135.62,421.675c11.75,8.542,25.617,13.047,40.09,13.047c21.803,0,42.462-10.522,55.279-28.143     c22.11-30.464,15.334-73.233-15.113-95.36c-11.75-8.533-25.609-13.039-40.073-13.039c-21.82,0-42.47,10.522-55.27,28.143     c-10.726,14.754-15.061,32.794-12.211,50.799C111.172,395.136,120.866,410.957,135.62,421.675z M134.332,336.358     c9.609-13.227,25.105-21.111,41.472-21.111c10.846,0,21.231,3.379,30.046,9.779c22.827,16.589,27.904,48.683,11.332,71.518     c-9.609,13.227-25.114,21.112-41.472,21.112c-10.846,0-21.239-3.388-30.054-9.788c-11.068-8.038-18.347-19.908-20.489-33.408     C123.034,360.951,126.285,347.418,134.332,336.358z"/><path d="M336.299,434.722h0.009c14.464,0,28.322-4.514,40.064-13.047c30.447-22.118,37.231-64.896,15.104-95.351     c-12.8-17.63-33.468-28.143-55.279-28.143c-14.473,0-28.331,4.506-40.073,13.039c-30.455,22.127-37.231,64.896-15.104,95.351     C293.82,424.201,314.487,434.714,336.299,434.722z M306.15,325.026c8.815-6.4,19.191-9.779,30.046-9.779     c16.358,0,31.863,7.893,41.472,21.103c16.597,22.844,11.511,54.929-11.332,71.518c-8.806,6.4-19.191,9.788-30.029,9.788h-0.009     c-16.367,0-31.872-7.893-41.481-21.12C278.238,373.7,283.315,341.615,306.15,325.026z"/><path d="M221.867,256c0,18.816,15.3,34.133,34.133,34.133c18.825,0,34.133-15.317,34.133-34.133     c0-18.825-15.309-34.133-34.133-34.133C237.167,221.867,221.867,237.175,221.867,256z M273.067,256     c0,9.412-7.663,17.067-17.067,17.067c-9.412,0-17.067-7.654-17.067-17.067c0-9.412,7.654-17.067,17.067-17.067     C265.404,238.933,273.067,246.588,273.067,256z"/><path d="M368.188,121.088c7.424,0,13.952-4.745,16.222-11.793c2.91-8.943-1.997-18.594-10.982-21.513     c-8.789-2.833-18.645,2.227-21.47,10.982c-2.901,8.943,2.022,18.586,10.965,21.487     C364.629,120.806,366.404,121.088,368.188,121.088z"/><path d="M320.913,234.897c9.173,28.228,35.26,47.189,64.913,47.189c7.151,0,14.251-1.135,21.111-3.354     c17.348-5.641,31.462-17.69,39.731-33.929c8.286-16.247,9.737-34.748,4.105-52.096c-9.173-28.228-35.26-47.189-64.913-47.189     c-7.151,0-14.251,1.126-21.112,3.354C328.951,160.512,309.291,199.1,320.913,234.897z M370.022,165.103     c5.154-1.673,10.479-2.517,15.838-2.517c22.238,0,41.796,14.225,48.674,35.396c4.233,13.013,3.149,26.889-3.063,39.066     c-6.221,12.186-16.794,21.222-29.798,25.446c-5.163,1.681-10.487,2.526-15.846,2.526c-22.238,0-41.796-14.225-48.683-35.396     C328.431,202.778,343.177,173.833,370.022,165.103z"/><path d="M256,51.2c-37.649,0-68.267,30.618-68.267,68.267c0,37.64,30.618,68.267,68.267,68.267     c37.641,0,68.267-30.626,68.267-68.267C324.267,81.818,293.641,51.2,256,51.2z M256,170.667c-28.237,0-51.2-22.972-51.2-51.2     c0-28.237,22.963-51.2,51.2-51.2c28.228,0,51.2,22.963,51.2,51.2C307.2,147.695,284.228,170.667,256,170.667z"/><path d="M418.133,315.733c0,9.412,7.654,17.067,17.067,17.067c9.404,0,17.067-7.654,17.067-17.067     c0-9.412-7.663-17.067-17.067-17.067C425.788,298.667,418.133,306.321,418.133,315.733z"/></g><g transform="matrix(0.0683206644582697 -0.04240592868458473 0.04240592868458473 0.0683206644582697 166.65399215542925 159.36582764193665)" id="L1_1"><path d="M298.667,102.4c-4.702,0-8.533-3.831-8.533-8.533c0-4.71-3.823-8.533-8.533-8.533c-4.71,0-8.533,3.823-8.533,8.533     c0,14.114,11.486,25.6,25.6,25.6c4.71,0,8.533-3.823,8.533-8.533S303.377,102.4,298.667,102.4z"/><path d="M366.933,119.467c4.71,0,8.533-3.823,8.533-8.533c0-4.702,3.831-8.533,8.533-8.533c4.71,0,8.533-3.823,8.533-8.533     c0-4.71-3.823-8.533-8.533-8.533c-14.114,0-25.6,11.486-25.6,25.6C358.4,115.644,362.223,119.467,366.933,119.467z"/><path d="M76.8,119.467c4.71,0,8.533-3.823,8.533-8.533c0-9.412,7.654-17.067,17.067-17.067c1.843,0,3.738,0.358,5.786,1.101     c2.705,0.998,5.717,0.538,8.021-1.186c2.304-1.715,3.584-4.489,3.405-7.356c-0.009-0.213-0.12-0.879-0.145-1.092     c0-9.412,7.654-17.067,17.067-17.067c2.313,0,4.557,0.461,6.673,1.357c2.987,1.271,6.434,0.742,8.9-1.382     c2.466-2.108,3.507-5.444,2.705-8.593c-0.828-3.217-1.212-5.905-1.212-8.448c0-18.825,15.309-34.133,34.133-34.133     c14.046,0,26.479,8.491,31.676,21.623c1.126,2.842,3.686,4.873,6.724,5.308c3.021,0.444,6.059-0.794,7.936-3.2     c3.302-4.233,8.183-6.664,13.397-6.664c6.869,0,13.047,4.087,15.727,10.419c1.289,3.063,4.241,5.086,7.561,5.205     c3.405,0.188,6.4-1.698,7.902-4.651c8.806-17.297,26.283-28.041,45.611-28.041c28.237,0,51.2,22.963,51.2,51.021     c-0.009,0.196-0.043,0.845-0.043,1.05c0,2.56,1.152,4.992,3.14,6.605c1.988,1.63,4.608,2.261,7.108,1.749     c2.244-0.461,4.548-0.691,6.861-0.691c18.825,0,34.133,15.309,34.133,34.133c0,4.71,3.823,8.533,8.533,8.533     s8.533-3.823,8.533-8.533c0-28.237-22.963-51.2-51.2-51.2h-0.529C387.789,26.103,359.023,0,324.267,0     c-21.274,0-40.858,9.745-53.649,26.103c-6.178-5.7-14.379-9.037-23.151-9.037c-6.34,0-12.425,1.758-17.69,5.001     C220.373,8.38,204.86,0,187.733,0c-28.237,0-51.2,22.963-51.2,51.2c-15.881,0-29.269,10.906-33.058,25.617     C84.25,76.194,68.267,91.75,68.267,110.933C68.267,115.644,72.09,119.467,76.8,119.467z"/><path d="M336.333,92.399c1.664,1.664,3.849,2.5,6.033,2.5c2.185,0,4.369-0.836,6.033-2.5     c6.443-6.451,10.001-15.019,10.001-24.132c0-9.122-3.558-17.69-10.001-24.132c-13.295-13.312-34.953-13.312-48.273-0.009     c-3.328,3.328-3.328,8.73,0,12.066c3.336,3.337,8.738,3.337,12.066,0c6.656-6.639,17.485-6.647,24.141,0.009     c3.226,3.217,5.001,7.501,5.001,12.066c0,4.557-1.775,8.841-5.001,12.066C332.996,83.669,332.996,89.071,336.333,92.399z"/><path d="M441.54,139.358c-1.613-1.8-3.925-2.825-6.34-2.825H196.267c-4.71,0-8.533,3.823-8.533,8.533     c0,4.71,3.823,8.533,8.533,8.533h229.453L392.61,468.156c-1.707,12.356-9.463,26.778-25.677,26.778H145.067     c-16.247,0-23.987-14.413-25.643-26.487L86.281,153.6h58.786c18.825,0,34.133-15.309,34.133-34.133s-15.309-34.133-34.133-34.133     c-4.71,0-8.533,3.823-8.533,8.533c0,4.71,3.823,8.533,8.533,8.533c9.412,0,17.067,7.654,17.067,17.067     s-7.654,17.067-17.067,17.067H76.8c-2.415,0-4.727,1.024-6.34,2.825c-1.621,1.801-2.398,4.198-2.15,6.596l34.167,324.54     c3.405,24.823,20.523,41.506,42.59,41.506h221.867c22.025,0,39.134-16.674,42.624-41.779l34.133-324.267     C443.938,143.556,443.162,141.158,441.54,139.358z"/><path d="M144.316,170.701c-4.693,0.41-8.158,4.557-7.748,9.25l25.6,290.133c0.393,4.437,4.113,7.782,8.491,7.782     c0.247,0,0.503-0.009,0.759-0.034c4.693-0.41,8.158-4.557,7.748-9.25l-25.6-290.133     C153.156,173.756,149.069,170.351,144.316,170.701z"/><path d="M187.733,324.267c0,24.141,12.621,45.338,31.59,57.481l2.543,87.834c0.137,4.625,3.925,8.286,8.533,8.286h0.247     c4.71-0.145,8.422-4.07,8.286-8.781l-2.313-79.394c6.153,1.826,12.646,2.842,19.379,2.842c6.733,0,13.227-1.015,19.379-2.842     l-2.313,79.394c-0.137,4.71,3.576,8.636,8.286,8.781h0.247c4.608,0,8.397-3.661,8.533-8.286l2.543-87.834     c18.97-12.143,31.59-33.34,31.59-57.481c0-22.536-11.025-42.487-27.904-54.929l2.304-89.924c0.119-4.702-3.601-8.619-8.32-8.747     c-4.762-0.401-8.627,3.601-8.747,8.32l-2.074,81.28C272.179,257.553,264.277,256,256,256c-8.277,0-16.179,1.553-23.526,4.267     l-2.074-81.28c-0.12-4.642-3.917-8.32-8.533-8.32h-0.213c-4.719,0.128-8.439,4.045-8.32,8.747l2.304,89.924     C198.758,281.779,187.733,301.73,187.733,324.267z M256,273.067c28.237,0,51.2,22.963,51.2,51.2c0,28.237-22.963,51.2-51.2,51.2     s-51.2-22.963-51.2-51.2C204.8,296.03,227.763,273.067,256,273.067z"/><path d="M341.342,477.867c4.378,0,8.098-3.345,8.491-7.782l25.6-290.133c0.41-4.693-3.055-8.841-7.748-9.25     c-4.642-0.358-8.832,3.063-9.25,7.748l-25.6,290.133c-0.41,4.693,3.055,8.841,7.748,9.25     C340.838,477.858,341.094,477.867,341.342,477.867z"/><path d="M213.333,110.933c4.71,0,8.533-3.823,8.533-8.533c0-9.412,7.654-17.067,17.067-17.067c4.71,0,8.533-3.823,8.533-8.533     s-3.823-8.533-8.533-8.533c-18.825,0-34.133,15.309-34.133,34.133C204.8,107.11,208.623,110.933,213.333,110.933z"/><path d="M196.267,34.133c-14.114,0-25.6,11.486-25.6,25.6c0,4.71,3.823,8.533,8.533,8.533s8.533-3.823,8.533-8.533     c0-4.702,3.831-8.533,8.533-8.533c4.71,0,8.533-3.823,8.533-8.533C204.8,37.956,200.977,34.133,196.267,34.133z"/></g><g transform="matrix(0.08302623783648483 -0.013837706346414643 0.013837706346414643 0.08302623783648483 168.2095193850971 249.280587328115)" id="L1_2"><path d="M111.053,324.128h-0.094c-4.71,0-8.482,3.823-8.482,8.533s3.857,8.533,8.576,8.533c4.71,0,8.533-3.823,8.533-8.533     S115.763,324.128,111.053,324.128z"/><path d="M183.441,219.654l14.387-14.379l19.772,59.315c1.195,3.575,4.523,5.845,8.098,5.845c0.888,0,1.801-0.145,2.697-0.444     c4.463-1.493,6.886-6.323,5.393-10.795l-24.141-72.414c-0.939-2.807-3.251-4.924-6.135-5.606     c-2.884-0.683-5.905,0.179-7.996,2.27l-24.141,24.141c-3.328,3.328-3.328,8.73,0,12.066     C174.711,222.982,180.113,222.982,183.441,219.654z"/><path d="M76.919,289.995h-0.094c-4.71,0-8.482,3.823-8.482,8.533c0,4.71,3.857,8.533,8.576,8.533c4.71,0,8.533-3.823,8.533-8.533     C85.453,293.818,81.63,289.995,76.919,289.995z"/><path d="M259.84,222.359c1.186,3.576,4.514,5.837,8.09,5.837c0.887,0,1.801-0.145,2.697-0.444     c4.471-1.493,6.886-6.323,5.393-10.795l-4.369-13.099l28.74-28.74l13.107,4.361c4.497,1.519,9.293-0.93,10.786-5.393     c1.493-4.471-0.922-9.301-5.393-10.795l-72.397-24.141c-3.046-1.015-6.451-0.23-8.73,2.057c-2.287,2.287-3.089,5.675-2.065,8.738     L259.84,222.359z M282.291,169.077l-16.674,16.683l-8.328-25.02L282.291,169.077z"/><path d="M367.053,153.461c4.71,0,8.533-3.823,8.533-8.533s-3.823-8.533-8.533-8.533h-0.094c-4.71,0-8.482,3.823-8.482,8.533     S362.334,153.461,367.053,153.461z"/><path d="M145.186,358.261h-0.094c-4.71,0-8.482,3.823-8.482,8.533c0,4.71,3.857,8.533,8.576,8.533     c4.71,0,8.533-3.823,8.533-8.533C153.719,362.084,149.897,358.261,145.186,358.261z"/><path d="M332.919,119.328c4.71,0,8.533-3.823,8.533-8.533c0-4.71-3.823-8.533-8.533-8.533h-0.094     c-4.71,0-8.482,3.823-8.482,8.533C324.344,115.505,328.201,119.328,332.919,119.328z"/><path d="M298.786,85.195c4.71,0,8.533-3.823,8.533-8.533s-3.823-8.533-8.533-8.533h-0.094c-4.702,0-8.482,3.823-8.482,8.533     S294.067,85.195,298.786,85.195z"/><path d="M261.487,346.349l-10.479-5.137l1.271-12.049c0.384-3.601-1.553-7.04-4.813-8.593c-3.26-1.562-7.151-0.887-9.702,1.664     l-8.346,8.337l-13.099-4.369c-3.063-1.024-6.46-0.222-8.73,2.065c-2.287,2.287-3.089,5.666-2.065,8.73l4.369,13.099l-8.346,8.346     c-2.611,2.611-3.243,6.613-1.562,9.907c1.673,3.294,5.291,5.163,8.943,4.557l11.895-1.894l5.086,10.743     c1.417,2.995,4.429,4.89,7.714,4.89h0.316c3.413-0.128,6.417-2.27,7.646-5.461l5.402-13.978l13.764-5.214     c3.174-1.203,5.342-4.181,5.504-7.578C266.411,351.017,264.533,347.851,261.487,346.349z M232.806,356.683     c-1.143-1.621-2.799-2.782-4.668-3.311c0.137-1.22,0.017-2.466-0.384-3.669l-0.631-1.911l1.903,0.64     c1.545,0.521,3.149,0.572,4.685,0.205c0.495,1.69,1.493,3.2,2.893,4.301C234.965,353.747,233.634,355.061,232.806,356.683z"/><path d="M401.186,170.528h-0.094c-4.702,0-8.482,3.823-8.482,8.533c0,4.71,3.857,8.533,8.576,8.533     c4.71,0,8.533-3.823,8.533-8.533C409.719,174.351,405.897,170.528,401.186,170.528z"/><path d="M435.319,204.661h-0.094c-4.702,0-8.482,3.823-8.482,8.533s3.857,8.533,8.576,8.533c4.71,0,8.533-3.823,8.533-8.533     S440.03,204.661,435.319,204.661z"/><path d="M177.417,322.234l24.132-24.132c3.337-3.337,3.337-8.738,0-12.066c-3.328-3.337-8.73-3.337-12.066,0l-18.099,18.099     l-12.075-12.075l18.099-18.099c3.337-3.337,3.337-8.73,0-12.066l-24.132-24.141c-1.596-1.596-3.763-2.5-6.033-2.5     c-2.261,0-4.429,0.905-6.033,2.5l-24.132,24.141c-3.337,3.328-3.337,8.73,0,12.066c3.337,3.328,8.73,3.328,12.066,0     l18.099-18.099l12.066,12.066l-18.099,18.099c-1.596,1.604-2.5,3.772-2.5,6.033c0,2.261,0.905,4.437,2.5,6.033l24.141,24.141     c1.673,1.664,3.849,2.5,6.033,2.5C173.568,324.734,175.753,323.898,177.417,322.234z"/><path d="M382.165,225.67l-10.479-5.137l1.263-12.049c0.384-3.601-1.544-7.04-4.804-8.593c-3.26-1.553-7.159-0.896-9.711,1.664     l-8.337,8.337l-13.099-4.369c-3.072-1.024-6.451-0.222-8.738,2.065c-2.278,2.287-3.081,5.666-2.057,8.73l4.369,13.099     l-8.346,8.346c-2.62,2.611-3.251,6.613-1.57,9.907c1.681,3.294,5.265,5.154,8.943,4.557l11.912-1.894l5.077,10.743     c1.417,2.995,4.42,4.89,7.714,4.89h0.307c3.413-0.128,6.426-2.278,7.646-5.461l5.402-13.978l13.773-5.214     c3.174-1.203,5.342-4.181,5.495-7.578C387.089,230.338,385.212,227.172,382.165,225.67z M353.476,235.996     c-1.135-1.621-2.79-2.782-4.668-3.311c0.145-1.212,0.017-2.458-0.384-3.661l-0.631-1.911l1.911,0.64     c1.536,0.512,3.157,0.563,4.685,0.205c0.486,1.69,1.485,3.191,2.884,4.301C355.644,233.069,354.313,234.374,353.476,235.996z"/><path d="M509.21,212.725c-23.936-23.945-23.945-62.916-0.008-86.861c3.336-3.337,3.336-8.738,0-12.066L397.918,2.507     c-1.596-1.604-3.763-2.5-6.033-2.5c-2.261,0-4.429,0.896-6.033,2.5c-11.597,11.597-27.025,17.98-43.426,17.98     c-16.41,0-31.829-6.383-43.435-17.98c-3.328-3.337-8.73-3.337-12.066,0L2.5,286.923c-1.596,1.604-2.5,3.772-2.5,6.033     c0,2.261,0.905,4.437,2.5,6.033c11.605,11.605,17.997,27.025,17.997,43.435c0,16.401-6.391,31.829-17.997,43.426     c-1.596,1.596-2.5,3.772-2.5,6.033c0,2.261,0.905,4.429,2.5,6.033l111.292,111.292c3.2,3.2,8.866,3.2,12.066,0     c11.605-11.597,27.025-17.98,43.435-17.98c16.41,0,31.838,6.383,43.443,17.988c1.664,1.664,3.849,2.492,6.033,2.492     c2.185,0,4.369-0.828,6.033-2.5L509.21,224.791C512.546,221.463,512.546,216.062,509.21,212.725z M218.445,491.433     c-13.892-11.196-31.061-17.271-49.152-17.271c-18.099,0-35.26,6.076-49.143,17.271l-99.866-99.874     c11.196-13.884,17.28-31.044,17.28-49.135c0-18.099-6.084-35.251-17.28-49.143L293.282,20.282     c13.892,11.196,31.053,17.271,49.143,17.271c18.091,0,35.251-6.076,49.135-17.271l99.866,99.874     c-22.98,28.595-22.98,69.683,0.009,98.278L218.445,491.433z"/><path d="M321.818,286.01l-10.462-5.137l1.254-12.058c0.384-3.593-1.553-7.031-4.804-8.593c-3.26-1.545-7.159-0.887-9.711,1.673     l-8.346,8.337l-13.09-4.369c-3.063-1.015-6.451-0.222-8.73,2.065c-2.287,2.287-3.089,5.666-2.057,8.73l4.352,13.107l-8.329,8.337     c-2.62,2.611-3.251,6.613-1.57,9.907c1.664,3.294,5.342,5.137,8.934,4.557l11.913-1.894l5.069,10.743     c1.417,2.995,4.429,4.89,7.723,4.89c0.094,0,0.205,0,0.307-0.008c3.413-0.12,6.426-2.27,7.646-5.453l5.402-13.978l13.764-5.214     c3.174-1.203,5.342-4.19,5.504-7.578C326.741,290.677,324.873,287.503,321.818,286.01z M293.137,296.335     c-1.135-1.621-2.79-2.782-4.668-3.311c0.145-1.212,0.017-2.458-0.384-3.661l-0.632-1.911l1.911,0.64     c1.536,0.512,3.166,0.555,4.685,0.205c0.495,1.681,1.493,3.191,2.884,4.292C295.305,293.4,293.973,294.714,293.137,296.335z"/><path d="M179.319,392.395h-0.094c-4.702,0-8.482,3.823-8.482,8.533s3.857,8.533,8.576,8.533c4.71,0,8.533-3.823,8.533-8.533     S184.03,392.395,179.319,392.395z"/><path d="M213.453,426.528h-0.094c-4.702,0-8.482,3.823-8.482,8.533s3.857,8.533,8.576,8.533c4.71,0,8.533-3.823,8.533-8.533     S218.163,426.528,213.453,426.528z"/></g><g transform="matrix(0.06352924464353245 -0.03866997579378411 0.03866997579378411 0.06352924464353245 269.83703894204524 109.63597577350653)" id="L1_3"><path d="M469.333,68.267H307.2v-25.6c0-4.71-3.823-8.533-8.533-8.533s-8.533,3.823-8.533,8.533v25.6H170.667     c-4.71,0-8.533,3.823-8.533,8.533s3.823,8.533,8.533,8.533h298.667c14.114,0,25.6,11.486,25.6,25.6v384H153.6v-384     c0-23.526-19.14-42.667-42.667-42.667c-9.643,0-18.449,3.337-25.6,8.747V42.667c0-4.71-3.823-8.533-8.533-8.533     s-8.533,3.823-8.533,8.533v25.6h-25.6c-4.71,0-8.533,3.823-8.533,8.533s3.823,8.533,8.533,8.533h25.6v25.6v8.533h-25.6     c-4.71,0-8.533,3.823-8.533,8.533s3.823,8.533,8.533,8.533h25.6v34.133h-25.6c-4.71,0-8.533,3.823-8.533,8.533     s3.823,8.533,8.533,8.533h25.6v34.133h-25.6c-4.71,0-8.533,3.823-8.533,8.533s3.823,8.533,8.533,8.533h25.6v34.133h-25.6     c-4.71,0-8.533,3.823-8.533,8.533s3.823,8.533,8.533,8.533h25.6v34.133h-25.6c-4.71,0-8.533,3.823-8.533,8.533     c0,4.71,3.823,8.533,8.533,8.533h25.6v34.133h-25.6c-4.71,0-8.533,3.823-8.533,8.533s3.823,8.533,8.533,8.533h25.6v8.533     c0,14.114-11.486,25.6-25.6,25.6s-25.6-11.486-25.6-25.6v-384H358.4v25.6c0,4.71,3.823,8.533,8.533,8.533     s8.533-3.823,8.533-8.533V8.533c0-4.71-3.823-8.533-8.533-8.533H8.533C3.823,0,0,3.823,0,8.533v392.533     c0,23.526,19.14,42.667,42.667,42.667c23.526,0,42.667-19.14,42.667-42.667V110.933c0-14.114,11.486-25.6,25.6-25.6     s25.6,11.486,25.6,25.6v315.733H93.867c-4.71,0-8.533,3.823-8.533,8.533s3.823,8.533,8.533,8.533h42.667v59.733     c0,4.71,3.823,8.533,8.533,8.533h358.4c4.71,0,8.533-3.823,8.533-8.533V110.933C512,87.407,492.86,68.267,469.333,68.267z"/><path d="M179.2,443.733c-4.71,0-8.533,3.823-8.533,8.533c0,4.71,3.823,8.533,8.533,8.533h25.6v8.533     c0,4.71,3.823,8.533,8.533,8.533c4.71,0,8.533-3.823,8.533-8.533V204.8h179.2c4.71,0,8.533-3.823,8.533-8.533     s-3.823-8.533-8.533-8.533h-179.2v-76.8c0-4.71-3.823-8.533-8.533-8.533c-4.71,0-8.533,3.823-8.533,8.533v25.6h-25.6     c-4.71,0-8.533,3.823-8.533,8.533c0,4.71,3.823,8.533,8.533,8.533h25.6v34.133h-25.6c-4.71,0-8.533,3.823-8.533,8.533     s3.823,8.533,8.533,8.533h25.6v34.133h-25.6c-4.71,0-8.533,3.823-8.533,8.533S174.49,256,179.2,256h25.6v34.133h-25.6     c-4.71,0-8.533,3.823-8.533,8.533s3.823,8.533,8.533,8.533h25.6v34.133h-25.6c-4.71,0-8.533,3.823-8.533,8.533     s3.823,8.533,8.533,8.533h25.6v34.133h-25.6c-4.71,0-8.533,3.823-8.533,8.533s3.823,8.533,8.533,8.533h25.6v34.133H179.2z"/><path d="M435.2,102.4c-4.71,0-8.533,3.823-8.533,8.533v281.6h-179.2c-4.71,0-8.533,3.823-8.533,8.533s3.823,8.533,8.533,8.533     h179.2v59.733c0,4.71,3.823,8.533,8.533,8.533s8.533-3.823,8.533-8.533V460.8h25.6c4.71,0,8.533-3.823,8.533-8.533     c0-4.71-3.823-8.533-8.533-8.533h-25.6V409.6h25.6c4.71,0,8.533-3.823,8.533-8.533s-3.823-8.533-8.533-8.533h-25.6V358.4h25.6     c4.71,0,8.533-3.823,8.533-8.533s-3.823-8.533-8.533-8.533h-25.6V307.2h25.6c4.71,0,8.533-3.823,8.533-8.533     s-3.823-8.533-8.533-8.533h-25.6V256h25.6c4.71,0,8.533-3.823,8.533-8.533s-3.823-8.533-8.533-8.533h-25.6V204.8h25.6     c4.71,0,8.533-3.823,8.533-8.533s-3.823-8.533-8.533-8.533h-25.6V153.6h25.6c4.71,0,8.533-3.823,8.533-8.533     c0-4.71-3.823-8.533-8.533-8.533h-25.6v-25.6C443.733,106.223,439.91,102.4,435.2,102.4z"/></g><g transform="matrix(0.07970237373966513 -0.04723103484948335 0.04723103484948335 0.07970237373966513 69.50507011151039 219.68735947590906)" id="L1_4"><path d="M76.804,119.467h-8.533v-8.533c0-4.71-3.823-8.533-8.533-8.533c-4.719,0-8.533,3.823-8.533,8.533v8.533h-8.533     c-4.719,0-8.533,3.823-8.533,8.533s3.814,8.533,8.533,8.533h8.533v8.533c0,4.71,3.814,8.533,8.533,8.533     c4.71,0,8.533-3.823,8.533-8.533v-8.533h8.533c4.71,0,8.533-3.823,8.533-8.533S81.515,119.467,76.804,119.467z"/><path d="M299.516,153.643c-4.736-0.461-8.866,2.961-9.344,7.637c-0.077,0.862-8.576,86.357-8.576,137.387     c0,51.319,8.303,101.683,8.653,103.808c0.691,4.164,4.309,7.125,8.414,7.125c0.461,0,0.93-0.034,1.408-0.12     c4.642-0.768,7.791-5.171,7.014-9.822c-0.085-0.503-8.414-51.072-8.414-100.992c0-50.185,8.405-134.835,8.491-135.68     C307.622,158.293,304.209,154.112,299.516,153.643z"/><path d="M211.93,409.481c0.478,0.085,0.947,0.12,1.408,0.12c4.105,0,7.723-2.961,8.414-7.125     c0.35-2.125,8.653-52.489,8.653-103.808c0-51.029-8.499-136.525-8.576-137.387c-0.469-4.676-4.574-8.09-9.344-7.637     c-4.693,0.469-8.107,4.651-7.646,9.344c0.085,0.845,8.499,85.487,8.499,135.68c0,49.86-8.337,100.489-8.422,100.992     C204.139,404.309,207.287,408.713,211.93,409.481z"/><path d="M198.609,289.801c4.531-1.289,7.159-6.016,5.862-10.547c-0.162-0.58-16.742-58.88-16.742-82.987V128     c0-7.518,10.837-22.554,51.849-25.626c3.345-0.247,6.238-2.449,7.381-5.606c1.143-3.157,0.324-6.69-2.091-9.028     c-8.021-7.765-14.464-31.01-14.464-45.073c0-22.272,16.034-25.6,25.591-25.6c9.566,0,25.6,3.328,25.6,25.6     c0,14.063-6.443,37.308-14.464,45.073c-2.415,2.338-3.234,5.871-2.091,9.028s4.036,5.359,7.381,5.606     c41.011,3.072,51.84,18.108,51.84,25.626v68.267c0,24.107-16.572,82.406-16.734,82.987c-1.297,4.531,1.331,9.259,5.862,10.547     c0.785,0.23,1.57,0.333,2.347,0.333c3.712,0,7.125-2.441,8.201-6.187c0.708-2.492,17.391-61.193,17.391-87.68V128     c0-16.307-14.31-34.688-53.316-40.986c6.997-13.995,10.658-32.606,10.658-44.348C298.671,16.742,281.92,0,255.996,0     c-25.916,0-42.658,16.742-42.658,42.667c0,11.742,3.652,30.353,10.65,44.348c-39.006,6.298-53.325,24.678-53.325,40.986v68.267     c0,26.487,16.691,85.188,17.399,87.68C189.359,288.478,194.095,291.072,198.609,289.801z"/><path d="M119.471,324.267c0-4.71-3.823-8.533-8.533-8.533c-4.719,0-8.533,3.823-8.533,8.533c-4.719,0-8.533,3.823-8.533,8.533     c0,4.71,3.814,8.533,8.533,8.533c0,4.71,3.814,8.533,8.533,8.533c4.71,0,8.533-3.823,8.533-8.533c4.71,0,8.533-3.823,8.533-8.533     C128.004,328.09,124.181,324.267,119.471,324.267z"/><path d="M281.067,460.8h-49.596c-4.719,0-8.533,3.823-8.533,8.533s3.814,8.533,8.533,8.533h49.596     c4.719,0,8.533-3.823,8.533-8.533S285.786,460.8,281.067,460.8z"/><path d="M469.329,68.267h-25.6v-25.6c0-4.71-3.814-8.533-8.533-8.533c-4.71,0-8.533,3.823-8.533,8.533v25.6h-25.591     c-4.719,0-8.533,3.823-8.533,8.533s3.814,8.533,8.533,8.533h25.591v25.6c0,4.71,3.823,8.533,8.533,8.533     c4.719,0,8.533-3.823,8.533-8.533v-25.6h25.6c4.719,0,8.533-3.823,8.533-8.533S474.048,68.267,469.329,68.267z"/><path d="M341.073,433.126c-0.947-3.797-4.361-6.46-8.277-6.46h-153.6c-3.908,0-7.322,2.662-8.269,6.46l-17.067,68.267     c-0.64,2.552-0.068,5.257,1.544,7.322c1.621,2.074,4.105,3.285,6.724,3.285h187.742c2.62,0,5.103-1.212,6.724-3.285     c1.613-2.065,2.185-4.77,1.545-7.322L341.073,433.126z M173.069,494.933l12.8-51.2h140.262l12.8,51.2H173.069z"/></g><g transform="matrix(0.07457766909532502 -0.05524271583887865 0.05524271583887865 0.07457766909532502 283.76598145684386 293.0502519663497)" id="L1_5"><path d="M251.29,239.838c-4.215-2.108-9.344-0.401-11.452,3.814c-0.154,0.299-15.13,29.414-52.105,29.414     c-36.582,0-51.482-28.211-52.113-29.449c-2.116-4.198-7.228-5.88-11.435-3.78c-4.215,2.108-5.922,7.228-3.814,11.452     c0.794,1.587,19.977,38.844,67.362,38.844c47.394,0,66.577-37.257,67.371-38.844C257.212,247.066,255.505,241.946,251.29,239.838     z"/><path d="M161.101,137.745c2.534-14.37-13.611-28.39-37.564-32.614c-4.326-0.759-8.644-1.152-12.843-1.152     c-18.398,0-31.599,7.441-33.63,18.961c-2.526,14.37,13.619,28.39,37.572,32.614c4.326,0.768,8.644,1.152,12.834,1.152     C145.877,156.706,159.078,149.265,161.101,137.745z M93.875,125.901c0.171-0.99,5.018-4.855,16.819-4.855     c3.209,0,6.528,0.299,9.873,0.896c16.273,2.867,24.107,10.761,23.731,12.851c-0.171,0.981-5.018,4.847-16.828,4.847     c-3.2,0-6.519-0.299-9.865-0.887C101.333,135.876,93.5,127.991,93.875,125.901z"/><path d="M375.467,59.733c0-50.79-24.764-59.733-76.8-59.733c-16.375,0-29.116,5.248-42.607,10.795     C239.198,17.732,220.075,25.6,187.733,25.6c-32.333,0-51.456-7.868-68.318-14.805C105.924,5.248,93.184,0,76.8,0     C24.772,0,0,8.943,0,59.733c0,112.956,66.27,332.8,187.733,332.8C309.205,392.533,375.467,172.689,375.467,59.733z      M187.733,375.467c-105.873,0-170.667-204.416-170.667-315.733c0-35.482,10.052-42.667,59.733-42.667     c13.013,0,23.202,4.198,36.122,9.515c17.425,7.159,39.108,16.085,74.812,16.085c35.712,0,57.395-8.926,74.82-16.085     c12.919-5.316,23.108-9.515,36.113-9.515c49.69,0,59.733,7.185,59.733,42.667C358.4,171.051,293.615,375.467,187.733,375.467z"/><path d="M264.772,103.987c-4.19,0-8.508,0.393-12.834,1.152c-10.257,1.809-19.678,5.598-26.513,10.667     c-8.516,6.323-12.45,14.114-11.059,21.948c2.031,11.511,15.232,18.961,33.63,18.961c4.19,0,8.508-0.384,12.834-1.152     c23.953-4.224,40.107-18.244,37.572-32.623C296.371,111.428,283.17,103.987,264.772,103.987z M257.86,138.761     c-3.337,0.589-6.665,0.887-9.865,0.887c-11.802,0-16.648-3.866-16.828-4.855c-0.068-0.452,0.862-2.628,4.429-5.282     c4.685-3.473,11.716-6.221,19.311-7.561c3.345-0.597,6.664-0.896,9.865-0.896c11.81,0,16.657,3.866,16.819,4.847     C281.967,127.991,274.133,135.893,257.86,138.761z"/><path d="M435.2,119.467c-16.299,0-26.897,4.378-39.159,9.455c-3.396,1.408-7.023,2.91-11.051,4.437     c-4.412,1.664-6.639,6.588-4.966,10.999s6.63,6.63,10.999,4.958c4.216-1.596,7.996-3.157,11.537-4.625     c11.887-4.907,19.738-8.158,32.64-8.158c49.69,0,59.733,7.185,59.733,42.667c0,111.317-64.785,315.733-170.667,315.733     c-39.561,0-80.58-31.787-109.713-85.026c-2.261-4.139-7.45-5.649-11.58-3.396c-4.139,2.27-5.649,7.45-3.388,11.588     C231.757,476.894,278.374,512,324.267,512C445.739,512,512,292.156,512,179.2C512,128.41,487.236,119.467,435.2,119.467z"/><path d="M324.267,358.4c-47.386,0-66.569,37.265-67.362,38.852c-2.108,4.215-0.401,9.344,3.814,11.452s9.344,0.401,11.452-3.814     c0.154-0.299,15.13-29.423,52.096-29.423c36.591,0,51.49,28.211,52.122,29.449c1.502,2.978,4.506,4.685,7.62,4.685     c1.289,0,2.586-0.282,3.814-0.896c4.216-2.108,5.922-7.236,3.814-11.452C390.844,395.665,371.661,358.4,324.267,358.4z"/><path d="M434.168,242.406c-2.031-11.511-15.232-18.953-33.63-18.953c-4.19,0-8.508,0.393-12.834,1.152     c-10.257,1.809-19.678,5.598-26.505,10.667c-8.516,6.323-12.45,14.114-11.068,21.948c2.031,11.511,15.232,18.961,33.63,18.961     c4.19,0,8.508-0.384,12.834-1.152C420.548,270.805,436.702,256.785,434.168,242.406z M383.761,259.115     c-11.802,0-16.649-3.866-16.828-4.855c-0.068-0.452,0.862-2.628,4.429-5.282c4.685-3.473,11.716-6.221,19.311-7.561     c3.345-0.597,6.665-0.896,9.865-0.896c11.81,0,16.657,3.866,16.828,4.847c0.375,2.091-7.458,9.992-23.74,12.86     C390.289,258.816,386.961,259.115,383.761,259.115z"/></g><g transform="matrix(0.07195607305003932 -0.044280659883791734 0.044280659883791734 0.07195607305003932 77.2540362421031 113.88145344272068)" id="L1_6"><path d="M500.94,191.81H31.606c-5.888,0-10.667,4.779-10.667,10.667v256c0,29.397,23.915,53.333,53.333,53.333h384    c29.419,0,53.333-23.936,53.333-53.333v-256C511.606,196.588,506.828,191.81,500.94,191.81z M490.273,458.476    c0,17.643-14.357,32-32,32h-384c-17.643,0-32-14.357-32-32V213.143h448V458.476z"/><path d="M511.265,93.1L493.11,24.215C488.929,7.468,471.82-3.049,454.86,0.791L25.078,102.764    c-8.448,1.92-15.595,7.061-20.139,14.443c-4.544,7.381-5.888,16.085-3.755,24.533l20.096,79.445    c1.195,4.821,5.547,8.043,10.325,8.043c0.853,0,1.728-0.085,2.645-0.32c5.696-1.429,9.152-7.232,7.701-12.949l-1.173-4.629    l462.528-105.088c2.816-0.661,5.269-2.411,6.763-4.885C511.585,98.882,511.99,95.895,511.265,93.1z M35.553,190.636l-13.696-54.08    c-0.704-2.816-0.235-5.717,1.259-8.192c1.515-2.453,3.904-4.16,6.805-4.843L459.702,21.57c0.768-0.192,1.557-0.277,2.325-0.277    c4.779,0,9.195,3.285,10.411,8.213l15.381,58.347L35.553,190.636z"/><path d="M121.718,192.919c-5.291-2.581-11.648-0.491-14.336,4.779l-42.667,85.333c-2.624,5.269-0.491,11.669,4.779,14.315    c1.557,0.768,3.179,1.131,4.779,1.131c3.904,0,7.68-2.155,9.557-5.909l42.667-85.333    C129.121,201.964,126.987,195.564,121.718,192.919z"/><path d="M228.364,192.919c-5.269-2.581-11.669-0.491-14.315,4.779l-42.667,85.333c-2.624,5.269-0.491,11.669,4.779,14.315    c1.557,0.768,3.179,1.131,4.779,1.131c3.904,0,7.68-2.155,9.536-5.909l42.667-85.333    C235.766,201.964,233.633,195.564,228.364,192.919z"/><path d="M335.03,192.919c-5.248-2.581-11.648-0.491-14.315,4.779l-42.667,85.333c-2.624,5.269-0.491,11.669,4.779,14.315    c1.557,0.768,3.179,1.131,4.779,1.131c3.904,0,7.68-2.155,9.536-5.909l42.667-85.333    C342.433,201.964,340.299,195.564,335.03,192.919z"/><path d="M441.697,192.919c-5.291-2.581-11.648-0.491-14.315,4.779l-42.667,85.333c-2.624,5.269-0.491,11.669,4.779,14.315    c1.557,0.768,3.179,1.131,4.779,1.131c3.904,0,7.68-2.155,9.536-5.909l42.667-85.333    C449.099,201.964,446.966,195.564,441.697,192.919z"/><path d="M500.94,277.143H31.606c-5.888,0-10.667,4.779-10.667,10.667s4.779,10.667,10.667,10.667H500.94    c5.909,0,10.667-4.779,10.667-10.667S506.828,277.143,500.94,277.143z"/><path d="M134.753,173.186L61.281,99.714c-4.16-4.16-10.923-4.16-15.083,0c-4.16,4.16-4.16,10.923,0,15.083l73.472,73.493    c2.091,2.069,4.821,3.115,7.552,3.115c2.731,0,5.461-1.045,7.531-3.136C138.913,184.108,138.913,177.346,134.753,173.186z"/><path d="M239.115,149.484L165.58,76.012c-4.16-4.16-10.923-4.16-15.083,0c-4.16,4.16-4.16,10.923,0,15.083l73.515,73.472    c2.091,2.069,4.821,3.115,7.552,3.115c2.731,0,5.461-1.045,7.552-3.115C243.276,160.407,243.276,153.644,239.115,149.484z"/><path d="M343.393,125.783L269.985,52.29c-4.16-4.16-10.923-4.16-15.083,0c-4.16,4.16-4.16,10.923,0,15.083l73.408,73.493    c2.091,2.069,4.821,3.115,7.552,3.115s5.461-1.024,7.531-3.115C347.553,136.706,347.553,129.943,343.393,125.783z"/><path d="M447.628,102.103L374.198,28.61c-4.16-4.16-10.923-4.16-15.083,0c-4.16,4.16-4.16,10.923,0,15.083l73.429,73.493    c2.091,2.069,4.821,3.115,7.552,3.115s5.461-1.045,7.531-3.115C451.788,113.026,451.788,106.263,447.628,102.103z"/></g><g transform="matrix(0.09167558493209374 0.04825030889312951 -0.04825030889312951 0.09167558493209374 39.577887314275486 49.32490705945208)" id="L1_8"><path d="M33.319,0C15.676,0,1.323,14.353,1.323,31.995c0,3.313,2.687,6,6,6s6-2.687,6-6C13.323,20.97,22.293,12,33.319,12   c11.026,0,19.996,8.97,19.996,19.995s-8.97,19.996-19.996,19.996c-3.313,0-6,2.687-6,6s2.687,6,6,6   c17.643,0,31.996-14.354,31.996-31.996S50.961,0,33.319,0z"/><path d="M147.421,0c-17.643,0-31.996,14.353-31.996,31.995s14.354,31.996,31.996,31.996s31.996-14.354,31.996-31.996   S165.063,0,147.421,0z M147.421,51.991c-11.026,0-19.996-8.97-19.996-19.996c0-11.025,8.97-19.995,19.996-19.995   s19.996,8.97,19.996,19.995C167.417,43.021,158.447,51.991,147.421,51.991z"/><path d="M261.523,63.991c17.643,0,31.996-14.354,31.996-31.996S279.166,0,261.523,0s-31.996,14.353-31.996,31.995   S243.88,63.991,261.523,63.991z M261.523,12c11.025,0,19.996,8.97,19.996,19.995c0,11.026-8.97,19.996-19.996,19.996   c-11.026,0-19.996-8.97-19.996-19.996C241.527,20.97,250.497,12,261.523,12z"/><path d="M33.319,115.425c-17.643,0-31.996,14.354-31.996,31.996s14.353,31.996,31.996,31.996s31.996-14.354,31.996-31.996   S50.961,115.425,33.319,115.425z M33.319,167.417c-11.025,0-19.996-8.97-19.996-19.996s8.97-19.996,19.996-19.996   c11.026,0,19.996,8.97,19.996,19.996S44.345,167.417,33.319,167.417z"/><path d="M173.417,141.421c-3.313,0-6,2.687-6,6c0,11.025-8.97,19.996-19.996,19.996s-19.996-8.971-19.996-19.996   s8.97-19.996,19.996-19.996c3.313,0,6-2.687,6-6s-2.687-6-6-6c-17.643,0-31.996,14.354-31.996,31.996s14.354,31.996,31.996,31.996   s31.996-14.354,31.996-31.996C179.417,144.107,176.73,141.421,173.417,141.421z"/><path d="M261.523,115.425c-17.643,0-31.996,14.354-31.996,31.996s14.354,31.996,31.996,31.996s31.996-14.354,31.996-31.996   S279.166,115.425,261.523,115.425z M261.523,167.417c-11.026,0-19.996-8.97-19.996-19.996s8.97-19.996,19.996-19.996   c11.025,0,19.996,8.97,19.996,19.996S272.548,167.417,261.523,167.417z"/><path d="M33.319,230.851c-17.643,0-31.996,14.354-31.996,31.996s14.353,31.995,31.996,31.995s31.996-14.353,31.996-31.995   S50.961,230.851,33.319,230.851z M33.319,282.842c-11.025,0-19.996-8.97-19.996-19.995c0-11.026,8.97-19.996,19.996-19.996   c11.026,0,19.996,8.97,19.996,19.996C53.315,273.872,44.345,282.842,33.319,282.842z"/><path d="M147.421,230.851c-17.643,0-31.996,14.354-31.996,31.996s14.354,31.995,31.996,31.995s31.996-14.353,31.996-31.995   S165.063,230.851,147.421,230.851z M147.421,282.842c-11.026,0-19.996-8.97-19.996-19.995c0-11.026,8.97-19.996,19.996-19.996   s19.996,8.97,19.996,19.996C167.417,273.872,158.447,282.842,147.421,282.842z"/><path d="M261.523,230.851c-17.643,0-31.996,14.354-31.996,31.996s14.354,31.995,31.996,31.995s31.996-14.353,31.996-31.995   S279.166,230.851,261.523,230.851z M261.523,282.842c-11.026,0-19.996-8.97-19.996-19.995c0-11.026,8.97-19.996,19.996-19.996   c11.025,0,19.996,8.97,19.996,19.996C281.519,273.872,272.548,282.842,261.523,282.842z"/></g><g transform="matrix(0.13964142131589008 0.01939464175841331 -0.01939464175841331 0.13964142131589008 225.05719172143026 311.98033553402365)" id="L1_9"><path d="M44.982,3.271c-3.672,2.448-8.568,3.06-11.628,6.12c-2.448,1.836-2.448,5.508,0,7.344c2.448,1.224,5.508,0,7.956-0.612    c1.836-0.612,2.448-1.836,2.448-3.672c1.836-1.224,3.672-2.448,4.896-4.284C51.102,5.719,48.042,0.823,44.982,3.271z"/><path d="M20.502,39.379c-3.672,3.06-7.344,6.732-10.404,10.404c-3.06,3.672-6.732,8.568-6.732,12.852    c0,2.448,3.06,3.672,4.284,1.836c3.06-3.06,3.672-7.956,6.12-11.628c2.448-4.284,5.508-7.344,9.18-11.016    C24.174,39.991,21.726,38.155,20.502,39.379z"/><path d="M5.814,94.459C4.59,89.563,3.978,84.055,3.978,78.547c0-1.836-3.06-1.836-3.06,0c0,7.344-3.672,22.032,3.672,26.928    c1.224,1.224,3.06-0.612,3.06-1.836C7.65,100.579,6.426,97.519,5.814,94.459z"/><path d="M40.086,117.715c-9.792,1.224-18.36,3.06-27.54-1.836c-1.224-0.612-1.836,0.612-0.612,1.224    c9.18,6.732,19.584,9.792,29.988,4.284C44.37,120.163,41.922,117.103,40.086,117.715z"/><path d="M84.15,85.891c-4.896,1.836-8.568,5.508-12.852,8.568c-4.896,3.672-9.18,7.344-13.464,11.628    c-1.224,1.224,0.612,3.672,2.448,2.448c3.672-3.672,7.956-6.12,12.24-9.18c4.284-3.06,9.792-5.508,13.464-9.18    C87.822,88.339,86.598,84.667,84.15,85.891z"/><path d="M125.154,41.827c-11.016,4.284-21.42,14.688-29.376,23.256c-1.224,1.836,0.612,3.672,2.448,2.448    c4.896-4.284,10.404-8.568,15.912-12.24c4.284-3.06,9.18-5.508,12.852-9.18C128.826,43.663,126.99,41.215,125.154,41.827z"/><path d="M179.622,19.183c-11.016-0.612-22.032,3.672-31.824,7.344c-1.836,0.612-1.224,3.06,0.612,3.06    c10.404-3.06,20.808-4.284,31.212-4.896C182.682,24.079,182.682,19.183,179.622,19.183z"/><path d="M220.626,39.379c-3.06-3.672-7.344-7.344-11.016-10.404c-3.06-2.448-6.732,1.224-4.284,4.284    c3.061,3.06,6.12,6.732,9.18,10.404c3.061,3.672,6.12,9.18,10.404,12.24c1.836,1.224,4.284-0.612,3.672-3.06    C228.582,47.947,224.298,43.051,220.626,39.379z"/><path d="M232.254,72.427c0-2.448-4.283-2.448-4.283,0c-0.612,6.12-1.836,11.628-3.061,17.748    c-1.224,5.508-4.284,11.016-4.284,17.136c0,3.06,4.284,4.284,5.509,1.224C231.643,98.131,232.866,83.443,232.254,72.427z"/><path d="M205.938,134.239c-3.061,4.284-6.12,8.568-9.181,12.852c-2.447,4.284-6.731,8.568-7.344,13.464    c0,2.448,2.448,3.06,4.284,2.448c4.284-1.836,6.12-7.344,7.956-11.016c3.06-4.896,5.508-10.404,8.568-15.3    C211.446,133.627,207.774,131.791,205.938,134.239z"/><path d="M175.338,178.915c-5.508,4.896-9.792,9.792-13.464,15.3c-3.672,5.508-8.568,13.464-7.344,20.196    c0.612,3.06,3.672,3.672,5.508,1.224c3.06-4.284,3.672-10.404,5.508-15.3c2.448-7.344,6.732-14.076,11.628-20.196    C178.398,179.527,176.562,177.691,175.338,178.915z"/><path d="M140.454,238.891c-5.508,4.896-9.792,10.404-13.464,17.136c-3.672,6.732-7.956,15.301-6.732,22.645    c0.612,2.448,4.284,2.448,4.896,0.612c3.672-5.509,3.672-12.853,6.12-18.973c2.448-6.731,6.732-13.464,11.628-19.584    C144.126,239.503,142.29,237.055,140.454,238.891z"/><path d="M139.842,332.526c-4.284-2.447-7.956-4.283-11.016-7.955c-3.06-4.896-4.284-12.24-4.284-17.748c0-1.837-3.06-1.837-3.06,0    c-1.224,11.628,1.224,31.823,17.136,31.212C141.066,337.423,142.29,333.751,139.842,332.526z"/><path d="M204.714,353.947c-6.731-0.612-13.464,0.611-20.195,0.611c-8.569-0.611-16.525-3.06-23.257-7.956    c-1.224-0.611-1.836,1.225-1.224,1.836c12.852,9.792,30.601,18.36,46.513,11.628C209.61,358.23,207.774,353.947,204.714,353.947z"/><path d="M256.734,312.331c-4.284,2.448-7.956,6.12-12.852,9.18c-4.284,2.448-9.181,3.672-14.076,4.284    c-3.061,0.612-3.061,4.896,0,4.896c11.016,0.612,25.092-3.06,31.212-13.464C263.467,314.167,259.794,311.106,256.734,312.331z"/><path d="M281.826,275.61c-7.956,7.956-16.523,16.524-22.032,26.316c-1.836,3.061,2.448,4.896,4.284,2.448    c6.732-8.568,17.748-14.688,22.645-25.092C287.334,276.223,284.274,273.163,281.826,275.61z"/><path d="M327.727,276.223c-1.836-3.672-6.732-6.12-10.404-7.956c-4.284-1.836-9.18-2.447-14.076-2.447c-3.06,0-3.06,4.283,0,4.283    c4.284,0,7.956,1.225,11.628,3.061c3.061,1.836,5.509,4.896,8.568,6.731C325.891,281.73,328.95,278.671,327.727,276.223z"/><path d="M364.446,300.091c-8.568-14.076-14.076-29.988-21.42-44.676c-3.672-6.732-13.464-0.612-10.404,6.12    c5.508,12.239,10.404,25.092,17.748,36.72c-5.508,0.612-11.016,1.224-17.136,1.836c-2.448,0.612-6.732,0.612-8.568,3.061    l-0.611,0.611c0,0-0.612,0-0.612,0.612c-1.224,1.224,0,3.672,1.224,3.672l0,0c0.612,0.612,1.225,0.612,2.448,0.612    c3.061,0.611,6.12,0,9.792,0c7.956-0.612,15.3-1.225,23.256-0.612C363.834,308.659,366.282,303.763,364.446,300.091z"/></g><path d="M57,6H47H11H1C0.448,6,0,6.447,0,7v11v11v11v11c0,0.553,0.448,1,1,1h10h36h10c0.552,0,1-0.447,1-1V40V29V18V7  C58,6.447,57.552,6,57,6z M56,28h-8v-9h8V28z M46,18v10H12V18V8h34V18z M10,28H2v-9h8V28z M2,30h8v9H2V30z M12,40V30h34v10v10H12V40  z M48,30h8v9h-8V30z M56,8v9h-8V8H56z M2,8h8v9H2V8z M2,50v-9h8v9H2z M56,50h-8v-9h8V50z" transform="matrix(0.6484118892231302 -0.40525742021646394 0.40525742021646394 0.6484118892231302 72.44358883415887 331.9485192067138)" id="L1_10"/><path d="M36.068,20.176l-29-20C6.761-0.035,6.363-0.057,6.035,0.114C5.706,0.287,5.5,0.627,5.5,0.999v40  c0,0.372,0.206,0.713,0.535,0.886c0.146,0.076,0.306,0.114,0.465,0.114c0.199,0,0.397-0.06,0.568-0.177l29-20  c0.271-0.187,0.432-0.494,0.432-0.823S36.338,20.363,36.068,20.176z M7.5,39.095V2.904l26.239,18.096L7.5,39.095z" transform="matrix(0.8171144474475048 -0.350191918180321 0.350191918180321 0.8171144474475048 10.662376463759518 191.88959557332723)" id="L1_11"/><g transform="matrix(0.0609433881537561 -0.034824792354960256 0.034824792354960256 0.0609433881537561 306.483286661961 33.31358034770065)" id="L1_12"><path d="M481.086,188.037c-3.454-2.062-7.737-2.159-11.278-0.253l-73.901,39.777v-34.087c0-6.312-5.118-11.429-11.428-11.429    h-18.586c23.179-18.799,38.024-47.493,38.024-79.594C403.918,45.96,357.958,0,301.465,0c-48.218,0-88.757,33.487-99.598,78.424    c-14.182-17.112-35.587-28.032-59.497-28.032c-42.6,0-77.256,34.657-77.256,77.256c0,21.199,8.586,40.426,22.459,54.4H77.138    c-6.312,0-11.429,5.117-11.429,11.429v51.879H36.776c-6.312,0-11.429,5.117-11.429,11.429v44.944    c0,6.312,5.117,11.429,11.429,11.429h28.932v51.879c0,6.312,5.117,11.429,11.429,11.429h134.825l-61.946,118.825    c-2.918,5.596-0.746,12.499,4.851,15.417c1.688,0.88,3.494,1.297,5.273,1.297c4.123,0,8.105-2.239,10.143-6.147l60.523-116.098    l60.524,116.098c2.038,3.91,6.021,6.147,10.144,6.147c1.779,0,3.586-0.417,5.273-1.297c5.597-2.918,7.769-9.821,4.85-15.417    l-61.946-118.825h134.827c6.311,0,11.429-5.117,11.429-11.429v-34.088l73.901,39.777c1.694,0.911,3.555,1.365,5.416,1.365    c2.03,0,4.059-0.541,5.862-1.617c3.454-2.063,5.567-5.789,5.567-9.811V197.848C486.653,193.825,484.54,190.1,481.086,188.037z     M65.709,290.297H48.205V268.21h17.504V290.297z M301.465,22.857c43.888,0,79.595,35.706,79.595,79.595    c0,43.889-35.706,79.594-79.595,79.594c-43.888,0-79.594-35.706-79.594-79.594C221.872,58.564,257.578,22.857,301.465,22.857z     M214.192,156.054c6.104,9.904,13.847,18.693,22.847,25.992h-39.872C204.476,174.684,210.3,165.855,214.192,156.054z     M142.37,73.248c29.995,0,54.399,24.403,54.399,54.399c0,29.996-24.403,54.4-54.399,54.4c-29.995,0-54.399-24.403-54.399-54.4    C87.972,97.651,112.375,73.248,142.37,73.248z M373.05,246.691v65.123v41.79H231.013c-0.021,0-0.041,0-0.062,0h-0.302    c-0.013,0-0.026,0-0.039,0H88.566v-51.879v-44.944v-51.879H373.05V246.691z M463.796,341.529l-67.889-36.542v-51.468    l67.889-36.542V341.529z"/><path d="M142.37,92.931c-19.143,0-34.716,15.574-34.716,34.716c0,19.143,15.574,34.716,34.716,34.716    c19.143,0,34.716-15.574,34.716-34.716C177.087,108.505,161.513,92.931,142.37,92.931z M142.37,141.791    c-7.8,0-14.145-6.345-14.145-14.145c0-7.8,6.345-14.145,14.145-14.145c7.8,0,14.145,6.345,14.145,14.145    C156.515,135.446,150.169,141.791,142.37,141.791z"/><path d="M301.465,52.595c-27.491,0-49.856,22.366-49.856,49.857c0,27.49,22.365,49.856,49.856,49.856    c27.491,0,49.856-22.366,49.856-49.856C351.321,74.961,328.957,52.595,301.465,52.595z M301.465,129.451    c-14.887,0-26.999-12.112-26.999-26.999c0-14.887,12.112-27,26.999-27s26.999,12.112,26.999,27S316.352,129.451,301.465,129.451z"/><path d="M264.593,238.137h-124.26c-5.997,0-10.857,4.861-10.857,10.857v60.519c0,5.997,4.861,10.857,10.857,10.857h124.26    c5.997,0,10.857-4.861,10.857-10.857v-60.519C275.45,242.999,270.589,238.137,264.593,238.137z M253.735,298.656H151.19v-38.804    h102.546V298.656z"/><circle cx="324" cy="260" r="11"/><circle cx="324" cy="298" r="11"/></g><g transform="matrix(0.06352912558320585 -0.044194175037037715 0.044194175037037715 0.06352912558320585 170.42283504121764 63.05025266018096)" id="L1_14"><path d="M477.606,128.055C443.431,68.863,388.251,26.52,322.229,8.83C256.208-8.862,187.25,0.217,128.055,34.394    C68.861,68.57,26.52,123.75,8.83,189.772c-17.69,66.021-8.611,134.981,25.564,194.173    C68.568,443.137,123.75,485.48,189.771,503.17c22.046,5.908,44.417,8.83,66.646,8.83c44.339,0,88.101-11.629,127.529-34.393    c59.192-34.175,101.535-89.355,119.225-155.377C520.862,256.207,511.781,187.249,477.606,128.055z M477.429,315.333    c-15.848,59.146-53.78,108.581-106.81,139.197c-53.028,30.617-114.806,38.749-173.952,22.903    c-59.147-15.848-108.581-53.78-139.198-106.81c-30.616-53.028-38.749-114.807-22.9-173.954    C50.418,137.523,88.35,88.09,141.379,57.472c35.325-20.395,74.524-30.812,114.249-30.812c19.91,0,39.959,2.618,59.702,7.909    c59.146,15.848,108.581,53.78,139.197,106.81C485.144,194.408,493.278,256.186,477.429,315.333z"/><path d="M378.778,231.852l-164.526-94.99c-8.731-5.041-19.155-5.039-27.886-0.001c-8.731,5.04-13.944,14.069-13.944,24.15v189.98    c0,10.081,5.212,19.109,13.944,24.15c4.365,2.521,9.152,3.78,13.941,3.78c4.79,0,9.579-1.262,13.944-3.781l164.528-94.989    c8.73-5.042,13.941-14.07,13.941-24.151C392.72,245.92,387.508,236.892,378.778,231.852z M365.452,257.074l-164.527,94.989    c-0.201,0.117-0.62,0.358-1.236,0c-0.618-0.357-0.618-0.839-0.618-1.071v-189.98c0-0.232,0-0.714,0.618-1.071    c0.242-0.14,0.453-0.188,0.633-0.188c0.28,0,0.482,0.117,0.605,0.188l164.526,94.99c0.201,0.116,0.618,0.357,0.618,1.071    C366.071,256.716,365.652,256.958,365.452,257.074z"/><path d="M413.303,134.44c-31.689-40.938-79.326-68.442-130.698-75.461c-7.283-0.997-14.009,4.106-15.006,11.399    c-0.995,7.291,4.108,14.009,11.399,15.006c44.512,6.081,85.783,29.909,113.232,65.369c2.626,3.392,6.565,5.168,10.546,5.168    c2.849,0,5.72-0.909,8.146-2.789C416.741,148.628,417.807,140.259,413.303,134.44z"/></g></defs><g fi:class="KUsePattern"><pattern id="pattern_L1_0" width="350" height="350" patternUnits="userSpaceOnUse"><use xlink:href="#L1_0" x="-350" y="-350"/><use xlink:href="#L1_0" x="0" y="-350"/><use xlink:href="#L1_0" x="350" y="-350"/><use xlink:href="#L1_0" x="-350" y="0"/><use xlink:href="#L1_0" x="0" y="0"/><use xlink:href="#L1_0" x="350" y="0"/><use xlink:href="#L1_0" x="-350" y="350"/><use xlink:href="#L1_0" x="0" y="350"/><use xlink:href="#L1_0" x="350" y="350"/></pattern><rect x="0" y="0" width="100%" height="100%" fill="url(#pattern_L1_0)"/></g><g fi:class="KUsePattern"><pattern id="pattern_L1_1" width="350" height="350" patternUnits="userSpaceOnUse"><use xlink:href="#L1_1" x="-350" y="-350"/><use xlink:href="#L1_1" x="0" y="-350"/><use xlink:href="#L1_1" x="350" y="-350"/><use xlink:href="#L1_1" x="-350" y="0"/><use xlink:href="#L1_1" x="0" y="0"/><use xlink:href="#L1_1" x="350" y="0"/><use xlink:href="#L1_1" x="-350" y="350"/><use xlink:href="#L1_1" x="0" y="350"/><use xlink:href="#L1_1" x="350" y="350"/></pattern><rect x="0" y="0" width="100%" height="100%" fill="url(#pattern_L1_1)"/></g><g fi:class="KUsePattern"><pattern id="pattern_L1_2" width="350" height="350" patternUnits="userSpaceOnUse"><use xlink:href="#L1_2" x="-350" y="-350"/><use xlink:href="#L1_2" x="0" y="-350"/><use xlink:href="#L1_2" x="350" y="-350"/><use xlink:href="#L1_2" x="-350" y="0"/><use xlink:href="#L1_2" x="0" y="0"/><use xlink:href="#L1_2" x="350" y="0"/><use xlink:href="#L1_2" x="-350" y="350"/><use xlink:href="#L1_2" x="0" y="350"/><use xlink:href="#L1_2" x="350" y="350"/></pattern><rect x="0" y="0" width="100%" height="100%" fill="url(#pattern_L1_2)"/></g><g fi:class="KUsePattern"><pattern id="pattern_L1_3" width="350" height="350" patternUnits="userSpaceOnUse"><use xlink:href="#L1_3" x="-350" y="-350"/><use xlink:href="#L1_3" x="0" y="-350"/><use xlink:href="#L1_3" x="350" y="-350"/><use xlink:href="#L1_3" x="-350" y="0"/><use xlink:href="#L1_3" x="0" y="0"/><use xlink:href="#L1_3" x="350" y="0"/><use xlink:href="#L1_3" x="-350" y="350"/><use xlink:href="#L1_3" x="0" y="350"/><use xlink:href="#L1_3" x="350" y="350"/></pattern><rect x="0" y="0" width="100%" height="100%" fill="url(#pattern_L1_3)"/></g><g fi:class="KUsePattern"><pattern id="pattern_L1_4" width="350" height="350" patternUnits="userSpaceOnUse"><use xlink:href="#L1_4" x="-350" y="-350"/><use xlink:href="#L1_4" x="0" y="-350"/><use xlink:href="#L1_4" x="350" y="-350"/><use xlink:href="#L1_4" x="-350" y="0"/><use xlink:href="#L1_4" x="0" y="0"/><use xlink:href="#L1_4" x="350" y="0"/><use xlink:href="#L1_4" x="-350" y="350"/><use xlink:href="#L1_4" x="0" y="350"/><use xlink:href="#L1_4" x="350" y="350"/></pattern><rect x="0" y="0" width="100%" height="100%" fill="url(#pattern_L1_4)"/></g><g fi:class="KUsePattern"><pattern id="pattern_L1_5" width="350" height="350" patternUnits="userSpaceOnUse"><use xlink:href="#L1_5" x="-350" y="-350"/><use xlink:href="#L1_5" x="0" y="-350"/><use xlink:href="#L1_5" x="350" y="-350"/><use xlink:href="#L1_5" x="-350" y="0"/><use xlink:href="#L1_5" x="0" y="0"/><use xlink:href="#L1_5" x="350" y="0"/><use xlink:href="#L1_5" x="-350" y="350"/><use xlink:href="#L1_5" x="0" y="350"/><use xlink:href="#L1_5" x="350" y="350"/></pattern><rect x="0" y="0" width="100%" height="100%" fill="url(#pattern_L1_5)"/></g><g fi:class="KUsePattern"><pattern id="pattern_L1_6" width="350" height="350" patternUnits="userSpaceOnUse"><use xlink:href="#L1_6" x="-350" y="-350"/><use xlink:href="#L1_6" x="0" y="-350"/><use xlink:href="#L1_6" x="350" y="-350"/><use xlink:href="#L1_6" x="-350" y="0"/><use xlink:href="#L1_6" x="0" y="0"/><use xlink:href="#L1_6" x="350" y="0"/><use xlink:href="#L1_6" x="-350" y="350"/><use xlink:href="#L1_6" x="0" y="350"/><use xlink:href="#L1_6" x="350" y="350"/></pattern><rect x="0" y="0" width="100%" height="100%" fill="url(#pattern_L1_6)"/></g><g fi:class="KUsePattern"><pattern id="pattern_L1_8" width="350" height="350" patternUnits="userSpaceOnUse"><use xlink:href="#L1_8" x="-350" y="-350"/><use xlink:href="#L1_8" x="0" y="-350"/><use xlink:href="#L1_8" x="350" y="-350"/><use xlink:href="#L1_8" x="-350" y="0"/><use xlink:href="#L1_8" x="0" y="0"/><use xlink:href="#L1_8" x="350" y="0"/><use xlink:href="#L1_8" x="-350" y="350"/><use xlink:href="#L1_8" x="0" y="350"/><use xlink:href="#L1_8" x="350" y="350"/></pattern><rect x="0" y="0" width="100%" height="100%" fill="url(#pattern_L1_8)"/></g><g fi:class="KUsePattern"><pattern id="pattern_L1_9" width="350" height="350" patternUnits="userSpaceOnUse"><use xlink:href="#L1_9" x="-350" y="-350"/><use xlink:href="#L1_9" x="0" y="-350"/><use xlink:href="#L1_9" x="350" y="-350"/><use xlink:href="#L1_9" x="-350" y="0"/><use xlink:href="#L1_9" x="0" y="0"/><use xlink:href="#L1_9" x="350" y="0"/><use xlink:href="#L1_9" x="-350" y="350"/><use xlink:href="#L1_9" x="0" y="350"/><use xlink:href="#L1_9" x="350" y="350"/></pattern><rect x="0" y="0" width="100%" height="100%" fill="url(#pattern_L1_9)"/></g><g fi:class="KUsePattern"><pattern id="pattern_L1_10" width="350" height="350" patternUnits="userSpaceOnUse"><use xlink:href="#L1_10" x="-350" y="-350"/><use xlink:href="#L1_10" x="0" y="-350"/><use xlink:href="#L1_10" x="350" y="-350"/><use xlink:href="#L1_10" x="-350" y="0"/><use xlink:href="#L1_10" x="0" y="0"/><use xlink:href="#L1_10" x="350" y="0"/><use xlink:href="#L1_10" x="-350" y="350"/><use xlink:href="#L1_10" x="0" y="350"/><use xlink:href="#L1_10" x="350" y="350"/></pattern><rect x="0" y="0" width="100%" height="100%" fill="url(#pattern_L1_10)"/></g><g fi:class="KUsePattern"><pattern id="pattern_L1_11" width="350" height="350" patternUnits="userSpaceOnUse"><use xlink:href="#L1_11" x="-350" y="-350"/><use xlink:href="#L1_11" x="0" y="-350"/><use xlink:href="#L1_11" x="350" y="-350"/><use xlink:href="#L1_11" x="-350" y="0"/><use xlink:href="#L1_11" x="0" y="0"/><use xlink:href="#L1_11" x="350" y="0"/><use xlink:href="#L1_11" x="-350" y="350"/><use xlink:href="#L1_11" x="0" y="350"/><use xlink:href="#L1_11" x="350" y="350"/></pattern><rect x="0" y="0" width="100%" height="100%" fill="url(#pattern_L1_11)"/></g><g fi:class="KUsePattern"><pattern id="pattern_L1_12" width="350" height="350" patternUnits="userSpaceOnUse"><use xlink:href="#L1_12" x="-350" y="-350"/><use xlink:href="#L1_12" x="0" y="-350"/><use xlink:href="#L1_12" x="350" y="-350"/><use xlink:href="#L1_12" x="-350" y="0"/><use xlink:href="#L1_12" x="0" y="0"/><use xlink:href="#L1_12" x="350" y="0"/><use xlink:href="#L1_12" x="-350" y="350"/><use xlink:href="#L1_12" x="0" y="350"/><use xlink:href="#L1_12" x="350" y="350"/></pattern><rect x="0" y="0" width="100%" height="100%" fill="url(#pattern_L1_12)"/></g><g fi:class="KUsePattern"><pattern id="pattern_L1_14" width="350" height="350" patternUnits="userSpaceOnUse"><use xlink:href="#L1_14" x="-350" y="-350"/><use xlink:href="#L1_14" x="0" y="-350"/><use xlink:href="#L1_14" x="350" y="-350"/><use xlink:href="#L1_14" x="-350" y="0"/><use xlink:href="#L1_14" x="0" y="0"/><use xlink:href="#L1_14" x="350" y="0"/><use xlink:href="#L1_14" x="-350" y="350"/><use xlink:href="#L1_14" x="0" y="350"/><use xlink:href="#L1_14" x="350" y="350"/></pattern><rect x="0" y="0" width="100%" height="100%" fill="url(#pattern_L1_14)"/></g></svg>