<svg xmlns="http://www.w3.org/2000/svg" xmlns:xlink="http://www.w3.org/1999/xlink" xmlns:fi="http://pattern.flaticon.com/" x="0" y="0" width="2000" height="1000" viewBox="0 0 2000 1000"><rect x="0px" y="0px" width="100%" height="100%" opacity="0" fill="#ffffff"/><defs><g transform="matrix(0.9375 0 0 0.9375 251 346)" id="L1_1"><path d="M60,5a13.05,13.05,0,0,0-8.3,3l-.4-.27A12,12,0,0,0,34.71,12l-.82,1.41-.09.16a1,1,0,0,0,.37,1.34,1,1,0,0,0,1.38-.38l.11-.16L36.45,13A10,10,0,0,1,50.27,9.44a10.25,10.25,0,0,1,3.31,13.89l-.6,1A30.33,30.33,0,0,0,49.1,39.14,16,16,0,0,1,38.69,53.78,1,1,0,0,0,39,55.71a1,1,0,0,0,.35-.06A18,18,0,0,0,51.1,39.18a28.43,28.43,0,0,1,3.61-13.81l.61-1a12.37,12.37,0,0,0-2-15.06A11,11,0,0,1,60,7a1,1,0,0,0,0-2Z"/><path d="M21,36a8,8,0,1,0,8,8A8,8,0,0,0,21,36Zm0,14a6,6,0,1,1,6-6A6,6,0,0,1,21,50Z"/><path d="M21.14,12H21a8,8,0,0,0-8,8v1.58A31.25,31.25,0,0,1,8.84,37.07,14,14,0,0,0,19.39,57.91,14.48,14.48,0,0,0,21,58a13.92,13.92,0,0,0,9.9-4.1,14.1,14.1,0,0,0,1-1.12,1,1,0,0,0-.15-1.4,1,1,0,0,0-1.41.14c-.29.36-.57.68-.85,1A12,12,0,0,1,10.57,38.07,33.23,33.23,0,0,0,15,21.58V20a6,6,0,0,1,6-6h.12A6.23,6.23,0,0,1,27,20.36v1.21a34.35,34.35,0,0,0,4.52,16.67,12,12,0,0,1,.67,10.09,1,1,0,1,0,1.86.72,13.93,13.93,0,0,0-.78-11.78A32.38,32.38,0,0,1,29,21.57V20.36A8.23,8.23,0,0,0,21.14,12Z"/><path d="M36.78,35.34A28.38,28.38,0,0,1,33,21.57V20.36A12.29,12.29,0,0,0,22.09,8.06,5,5,0,0,1,27,4a1,1,0,0,0,0-2,7,7,0,0,0-6.93,6.06,12.18,12.18,0,0,0-4.5,1.24,1,1,0,1,0,.91,1.79A9.74,9.74,0,0,1,21.19,10,10.24,10.24,0,0,1,31,20.36v1.21a30.33,30.33,0,0,0,4,14.74A16,16,0,1,1,7.1,36.08,29.25,29.25,0,0,0,11,21.58V20a10,10,0,0,1,2.57-6.68,1,1,0,0,0-.07-1.41,1,1,0,0,0-1.42.08A12,12,0,0,0,9,20v1.58a27.25,27.25,0,0,1-3.63,13.5A18,18,0,0,0,18.94,61.89c.7.07,1.4.11,2.09.11a17.78,17.78,0,0,0,12-4.58,18,18,0,0,0,3.78-22.08Z"/></g><g transform="matrix(0.9375 0 0 0.9375 102 204)" id="L1_4"><path d="M46,13a10.85,10.85,0,0,0-1.4.09A10.82,10.82,0,0,1,51,11a1,1,0,0,0,0-2,13,13,0,0,0-9.23,3.91l.16-1.27A10.94,10.94,0,0,1,52,5h5V6a9,9,0,0,1-2.38,6.1,1,1,0,0,0,.05,1.42,1,1,0,0,0,.68.26,1,1,0,0,0,.73-.32A11,11,0,0,0,59,6V4a1,1,0,0,0-1-1H52a13,13,0,0,0-9.51,4.16l.5-4a1,1,0,0,0-.24-.78A1,1,0,0,0,42,2H36a1,1,0,0,0-.75.34,1,1,0,0,0-.24.78l1.33,10.64A13.09,13.09,0,0,0,32,13a16,16,0,0,0-10.39,3.85,1,1,0,0,0,1.3,1.52A14,14,0,0,1,32,15a11.67,11.67,0,0,1,6.45,2,1,1,0,0,0,1.1,0,12.65,12.65,0,0,1,2.21-1.16h0A11,11,0,0,1,46,15,14,14,0,0,1,60,29c0,7.69-7.87,23-15.31,24a1,1,0,0,0,.12,2h.13C53.4,53.85,62,37.51,62,29A16,16,0,0,0,46,13Zm-7.53,1.71L37.13,4h3.74L39.53,14.71c-.18.1-.36.19-.53.3C38.83,14.9,38.65,14.81,38.47,14.71Z"/><path d="M27,39v4a1,1,0,0,0,2,0V39a1,1,0,0,0-2,0Z"/><path d="M21,39v4a1,1,0,0,0,2,0V39a1,1,0,0,0-2,0Z"/><path d="M39.9,46.44A1,1,0,0,0,41.23,46,25.26,25.26,0,0,0,44,36,12,12,0,0,0,32,24a9.69,9.69,0,0,0-5.36,1.7L25,26.77,23.36,25.7A9.69,9.69,0,0,0,18,24,12,12,0,0,0,6,36c0,7.09,7.84,22,14,22a4.81,4.81,0,0,0,3.08-1.27L25,55.13l1.92,1.6A4.81,4.81,0,0,0,30,58c3.88,0,7.81-5.88,9.31-8.41a1,1,0,0,0-1.72-1C34.9,53.08,31.92,56,30,56a2.9,2.9,0,0,1-1.8-.81l-2.56-2.13a1,1,0,0,0-1.28,0L21.8,55.19A2.9,2.9,0,0,1,20,56C15.85,56,8,42.92,8,36A10,10,0,0,1,18,26a7.78,7.78,0,0,1,4.27,1.37l2.18,1.43a1,1,0,0,0,1.1,0l2.18-1.43A7.78,7.78,0,0,1,32,26,10,10,0,0,1,42,36a23.75,23.75,0,0,1-2.58,9.11A1,1,0,0,0,39.9,46.44Z"/><path d="M32,20a13.65,13.65,0,0,0-7,2,13.65,13.65,0,0,0-7-2,15.82,15.82,0,0,0-7.06,1.66,1,1,0,0,0,.88,1.79A13.92,13.92,0,0,1,18,22a11.67,11.67,0,0,1,6.45,2,1,1,0,0,0,1.1,0A11.67,11.67,0,0,1,32,22,14,14,0,0,1,46,36c0,8.14-8.64,24-16,24a6.74,6.74,0,0,1-4.36-1.74,1,1,0,0,0-1.28,0A6.74,6.74,0,0,1,20,60C12.64,60,4,44.14,4,36A14,14,0,0,1,8.67,25.58a1,1,0,1,0-1.33-1.49A16,16,0,0,0,2,36c0,8.12,8.7,26,18,26a8.45,8.45,0,0,0,5-1.7A8.45,8.45,0,0,0,30,62c9.3,0,18-17.88,18-26A16,16,0,0,0,32,20Z"/></g><path d="m61.12 15.61a3 3 0 0 0 0-4.25l-2.83-2.82-2.83-2.83a1 1 0 0 1 0-1.42 1 1 0 0 1 1.42 0l2.83 2.83a1 1 0 0 0 1.41-1.41l-2.83-2.83a3 3 0 0 0 -4.24 0 3 3 0 0 0 -.58.83l-.83-.83a3.09 3.09 0 0 0 -4.25 0l-1.39 1.41a3.16 3.16 0 0 0 -.58.84l-.84-.84a3 3 0 0 0 -4.24 0l-1.43 1.42a3 3 0 0 0 0 4.24l2.83 2.83a1 1 0 0 1 0 1.41l-1.42 1.42a1 1 0 0 1 -1.41 0l-2.83-2.83a1 1 0 0 1 0-1.42 1 1 0 0 0 -1.41-1.36 3 3 0 0 0 -.87 2 2.91 2.91 0 0 0 -2 .86l-1.42 1.41a3 3 0 0 0 -.86 2 2.93 2.93 0 0 0 -2 .83l-1.41 1.42a3 3 0 0 0 -.86 2 3 3 0 0 0 -2 .83l-1.41 1.42a3 3 0 0 0 -.87 2 3 3 0 0 0 -2 .84l-.14.13-2.12-2.12a1 1 0 0 0 -1.41 1.42l2.82 2.83a11 11 0 0 1 0 15.55l-7.55 7.56a1 1 0 1 0 1.41 1.41l11.23-11.19a13 13 0 0 1 18.39 0l.71.71-12 12a15 15 0 0 1 -21.24-21.19l5.09-5.09a1 1 0 0 0 0-1.42 1 1 0 0 0 -1.41 0l-5.09 5.09a17 17 0 0 0 -3.46 19l-2.91 2.92a1 1 0 0 0 0 1.42 1 1 0 0 0 1.42 0l2.47-2.48a16.43 16.43 0 0 0 5.66 5.66l-2.48 2.47a1 1 0 0 0 0 1.42 1 1 0 0 0 .71.29 1 1 0 0 0 .71-.29l2.91-2.91a17 17 0 0 0 19-3.46l12.74-12.72a1 1 0 0 0 0-1.42l-1.43-1.41c-.26-.27-.54-.51-.82-.75a2.81 2.81 0 0 0 .41-1.36 3 3 0 0 0 2-.86l1.41-1.41a3 3 0 0 0 .86-2 3 3 0 0 0 2-.86l1.41-1.42a2.91 2.91 0 0 0 .86-2 3 3 0 0 0 2-.87l1.41-1.41a3 3 0 0 0 .87-2 2.91 2.91 0 0 0 2-.86l1.42-1.41a3 3 0 0 0 0-4.24l-.84-.84a3.16 3.16 0 0 0 .84-.58zm-13-9.2a1 1 0 0 1 .29-.7l1.42-1.42a1 1 0 0 1 1.41 0l2.83 2.83a1 1 0 0 1 0 1.42l-1.43 1.46a1 1 0 0 1 -1.42 0l-2.83-2.88a1 1 0 0 1 -.29-.71zm4.83 8.49a1 1 0 0 1 -.29.71l-1.44 1.39a1 1 0 0 1 -1.41 0l-2.81-2.81a1 1 0 0 1 0-1.41l1.41-1.42a1 1 0 0 1 1.42 0l2.83 2.83a1 1 0 0 1 .27.71zm-11.95-7.07a1 1 0 0 1 .29-.71l1.42-1.41a1 1 0 0 1 1.41 0l2.88 2.83a1 1 0 0 1 0 1.46l-1.42 1.41a1 1 0 0 1 -1.41 0l-2.85-2.87a1 1 0 0 1 -.32-.71zm3.12 7.78a1 1 0 0 1 .71-.3 1 1 0 0 1 .7.3l2.83 2.83a1 1 0 0 1 .3.7 1 1 0 0 1 -.3.71l-1.36 1.41a1 1 0 0 1 -1.42 0l-2.82-2.82a1 1 0 0 1 0-1.42zm-17 21.17-1.37-1.37a1 1 0 0 1 0-1.42l1.41-1.41a1 1 0 0 1 1.41 0l2.83 2.83a.52.52 0 0 1 .1.11 15 15 0 0 0 -4.36 1.26zm5.72-2.78-2.84-2.84a1 1 0 0 1 0-1.41l1.41-1.42a1 1 0 0 1 1.42 0l2.83 2.83a1 1 0 0 1 0 1.42l-1.41 1.42a1 1 0 0 1 -1.41 0zm4.24-4.24-2.83-2.83a1 1 0 0 1 0-1.41l1.42-1.42a1 1 0 0 1 1.41 0l2.83 2.83a1 1 0 0 1 .29.71 1 1 0 0 1 -.29.7l-1.42 1.42a1 1 0 0 1 -1.41-.01zm4.24-4.24-2.83-2.83a1 1 0 0 1 0-1.42l1.42-1.41a1 1 0 0 1 1.41 0l2.83 2.83a1 1 0 0 1 0 1.41l-1.41 1.42a1 1 0 0 1 -1.42-.01zm-8.48-9.9 1.41-1.42a1 1 0 0 1 .75-.3 1 1 0 0 1 .71.29l2.78 2.81a1 1 0 0 1 0 1.42l-1.41 1.41a1 1 0 0 1 -1.41 0l-2.83-2.83a1 1 0 0 1 0-1.39zm-4.25 4.24 1.41-1.42a1 1 0 0 1 1.41 0l2.83 2.82a1 1 0 0 1 0 1.42l-1.41 1.41a1 1 0 0 1 -1.42 0l-2.83-2.83a1 1 0 0 1 .01-1.41zm-4.24 4.24 1.42-1.41a1 1 0 0 1 1.41 0l2.82 2.82a1 1 0 0 1 0 1.41l-1.42 1.41a1 1 0 0 1 -1.41 0l-2.83-2.82a1 1 0 0 1 .01-1.42zm-1.41 2.83 2.83 2.83a1 1 0 0 1 0 1.41l-1.42 1.42a1.24 1.24 0 0 1 -.18.14 13 13 0 0 0 -2.82-5.63l.17-.17a1 1 0 0 1 1.42-.01zm1.16 11.71a14.74 14.74 0 0 0 .32-1.76l.89.89a14.82 14.82 0 0 0 -1.21.87zm11.44-3.08a.93.93 0 0 1 .13-.15l1.41-1.41a1 1 0 0 1 1.41 0l2.83 2.83a1 1 0 0 1 .3.71.94.94 0 0 1 -.06.28 14.92 14.92 0 0 0 -6.02-2.26zm10-1.57-1.41 1.42a1 1 0 0 1 -1.41 0l-2.83-2.83a1 1 0 0 1 0-1.42l1.41-1.41a1 1 0 0 1 1.42 0l2.82 2.83a1 1 0 0 1 0 1.41zm4.25-4.24-1.42 1.41a1 1 0 0 1 -1.41 0l-2.83-2.83a1 1 0 0 1 -.29-.7 1 1 0 0 1 .29-.71l1.41-1.41a1 1 0 0 1 1.42 0l2.83 2.82a1 1 0 0 1 .02 1.42zm4.24-4.24-1.41 1.41a1 1 0 0 1 -1.42 0l-2.83-2.83a1 1 0 0 1 0-1.41l1.42-1.42a1 1 0 0 1 1.41 0l2.83 2.83a1 1 0 0 1 .02 1.42zm4.24-4.25-1.41 1.42a1 1 0 0 1 -1.42 0l-2.82-2.83a1 1 0 0 1 0-1.41l1.43-1.44a1 1 0 0 1 .71-.29 1 1 0 0 1 .7.29l2.83 2.83a1 1 0 0 1 0 1.41zm-4.24-8.48a1 1 0 0 1 0-1.42l1.43-1.36a1 1 0 0 1 .71-.29 1 1 0 0 1 .71.29l2.83 2.83a1 1 0 0 1 0 1.41l-1.42 1.42a1 1 0 0 1 -1.41 0z" transform="matrix(0.9375 0 0 0.9375 36 149)" id="L1_3"/><g transform="matrix(0.9375 0 0 0.9375 35 284)" id="L1_6"><path d="M40,36a1,1,0,0,0,1,1h5a1,1,0,0,0,.81-.42,1,1,0,0,0,.14-.9L45.39,31H49a1,1,0,0,0,.77-.37A1,1,0,0,0,50,29.8l-1-5a1,1,0,0,0-2,.4l.76,3.8H44a1,1,0,0,0-.81.42,1,1,0,0,0-.14.9L44.61,35H41A1,1,0,0,0,40,36Z"/><path d="M60.09,7.06l1.55-1.29A1,1,0,0,0,62,4.88a1,1,0,0,0-.54-.77l-4-2a1,1,0,0,0-1.09.12,35.33,35.33,0,0,0-9.5,12.47l-.07.16h-.11L45,9.68A1,1,0,0,0,44.23,9a1,1,0,0,0-.94.26L39.08,13.5l-3.3-4.12A1,1,0,0,0,34,9.8l-.78,3.89-4.92-1.64a1,1,0,0,0-1.3.75L26.18,17H21a1,1,0,0,0-.83.44,1,1,0,0,0-.1.93l1.66,4.15-5.18,2.59a1,1,0,0,0-.53.68,1,1,0,0,0,.21.84l2.95,3.61-4,5.15a1,1,0,1,0,1.58,1.22l4.46-5.78a1,1,0,0,0,0-1.24l-2.66-3.26,4.88-2.44a1,1,0,0,0,.48-1.26L22.48,19H27a1,1,0,0,0,1-.8l.78-3.89L33.68,16A1,1,0,0,0,35,15.2l.58-2.9,2.66,3.32a1,1,0,0,0,1.49.09l3.85-3.86,1.33,4-2.33,3.09-5.4-.9A1,1,0,0,0,36,18.8l-.87,4.35L30.8,24a1,1,0,0,0-.75,1.3l1.7,5.1-4.12,1.65a1,1,0,0,0-.58,1.25l1,3A1,1,0,0,0,29,37a1.25,1.25,0,0,0,.32,0A1,1,0,0,0,30,35.68l-.7-2.1,4.12-1.65A1,1,0,0,0,34,30.68l-1.64-4.92L36.2,25A1,1,0,0,0,37,24.2l.81-4.05,5.05.84a1,1,0,0,0,1-.39l2.76-3.68L51,16.18V20a1,1,0,0,0,.8,1l4,.8-.8,4a1,1,0,0,0,.43,1l2.12,1.42L55.2,31.4a1,1,0,0,0,.2,1.4L58.33,35,55.4,37.2a1,1,0,0,0-.26,1.31l2.31,3.85L54.76,43A1,1,0,0,0,54,44v5H51a1,1,0,0,0,0,2h4a1,1,0,0,0,1-1V44.78L59.24,44a1,1,0,0,0,.68-.59,1,1,0,0,0-.06-.89l-2.54-4.23L60.6,35.8a1,1,0,0,0,0-1.6l-3.2-2.4,2.4-3.2a1.06,1.06,0,0,0,.19-.77,1,1,0,0,0-.44-.66l-2.44-1.63L58,21.2A1,1,0,0,0,57.2,20L53,19.18V15.29A33,33,0,0,1,60.09,7.06ZM49.2,14.45A33.39,33.39,0,0,1,57.14,4.19l2,1-.38.32a34.88,34.88,0,0,0-7.41,8.56Z"/><path d="M47.1,47.4l4.53-3.62A1,1,0,0,0,52,43a1,1,0,0,0-.4-.78l-4-3A1,1,0,0,0,47,39H43a1,1,0,0,0,0,2h.9C43,46,35.63,53,27,53S11,46,10.1,41H11a1,1,0,0,0,0-2H6a1,1,0,0,0-.55.17l-3,2A1,1,0,0,0,2,41.9a1,1,0,0,0,.29.81l2.39,2.38L2.2,48.4a1,1,0,0,0-.16.87,1,1,0,0,0,.59.66l4.5,1.8L8,56.2a1,1,0,0,0,.5.68,1,1,0,0,0,.85,0l4.25-1.7,3.55,5.32a1,1,0,0,0,1.43.25l3.31-2.48,3.38,3.39a1,1,0,0,0,1.42,0l3.36-3.37,4.31,3.44A1,1,0,0,0,35,62a1.07,1.07,0,0,0,.25,0,1,1,0,0,0,.68-.6l1.51-3.79,3,2.22a1,1,0,0,0,1,.12,1,1,0,0,0,.6-.8l.87-6.93L46.8,53A1,1,0,0,0,48,51.8Zm-1.72-1.18a1,1,0,0,0-.36,1l.71,3.53L42.2,50a1,1,0,0,0-.78.17,1,1,0,0,0-.41.69l-.79,6.29-2.62-2a1,1,0,0,0-.87-.16,1,1,0,0,0-.66.59l-1.5,3.75-3.94-3.16a1,1,0,0,0-1.34.07L26,59.59l-3.29-3.3a1,1,0,0,0-1.31-.09l-3.15,2.37-3.42-5.12a1,1,0,0,0-1.2-.38L9.75,54.63,9,50.8a1,1,0,0,0-.61-.73L4.58,48.56l2.22-3a1,1,0,0,0-.09-1.31L4.57,42.16,6.3,41H8.08C8.91,46.87,16.75,55,27,55s18.09-8.13,18.92-14h.75l2.7,2Z"/><path d="M18.59,49a3,3,0,0,0,2.95-.08,3,3,0,0,0,.28-.22A5,5,0,0,0,25.59,51c.46,0,.93,0,1.41,0s.95,0,1.41,0a5,5,0,0,0,3.77-2.24,3,3,0,0,0,.28.22,3,3,0,0,0,2.95.08,10.9,10.9,0,0,0,4.84-4.75,3,3,0,0,0-.17-2.85A3,3,0,0,0,37.52,40H36.19A5.21,5.21,0,0,0,32,42a5,5,0,0,0-4-2H26a5,5,0,0,0-4,2,4.86,4.86,0,0,0-4-2H16.72a3.28,3.28,0,0,0-2.81,1.47,2.87,2.87,0,0,0-.16,2.78A10.87,10.87,0,0,0,18.59,49Zm17.6-7h1.33a1,1,0,0,1,.86.48.89.89,0,0,1,.06.91,8.8,8.8,0,0,1-4,3.85A1,1,0,0,1,33,46.35V45A3,3,0,0,1,36.19,42ZM23,45a3,3,0,0,1,3-3h2a3,3,0,0,1,3,3v1a3,3,0,0,1-2.73,3,21.52,21.52,0,0,1-2.54,0A3,3,0,0,1,23,46V45Zm-7.4-2.46A1.29,1.29,0,0,1,16.72,42H18a3.06,3.06,0,0,1,3,3.18v1.17a1,1,0,0,1-.49.87,1,1,0,0,1-1,0,8.8,8.8,0,0,1-4-3.85h0A.86.86,0,0,1,15.6,42.54Z"/></g><g transform="matrix(0.6258792987754757 0.41725286214676105 -0.41725286214676105 0.6258792987754757 18.28345976328532 53.14265587355742)" id="L1_8"><circle cx="9" cy="43" r="1"/><circle cx="10" cy="36" r="1"/><circle cx="16" cy="36" r="1"/><path d="M23.41,59.91a18,18,0,0,1-11.47-2.55,1,1,0,0,0-1.19.07c-1.54,1.28-3.51,1.44-4.57.38s-.89-3,.39-4.57c0,0,0,0,0-.05s.19-.22.3-.32a5.14,5.14,0,0,1,1.38-1,1,1,0,0,0,.47-1.33,1,1,0,0,0-1.34-.47A7,7,0,0,0,6,51C1.86,43.27,4.31,31.4,11.84,23.87s19.41-10,27.13-5.8a6.91,6.91,0,0,0-.92,1.4,1,1,0,0,0,.47,1.33.94.94,0,0,0,.43.1,1,1,0,0,0,.9-.56,5.17,5.17,0,0,1,1-1.38c.13-.13.25-.24.38-.35l0,0c1.54-1.26,3.5-1.43,4.55-.37s.89,3-.39,4.57A1,1,0,0,0,45.33,24a18.71,18.71,0,0,1,2.38,12.89,1,1,0,0,0,2,.28,21,21,0,0,0-2.32-13.67,5.6,5.6,0,0,0,.58-5.6l7.73-7.14A1,1,0,0,0,56,10a1.05,1.05,0,0,0-.29-.73l-4-4A1,1,0,0,0,51,5a1,1,0,0,0-.72.35s-1.78,2.07-4,4.68a1,1,0,0,0,1.54,1.29c1.34-1.61,2.53-3,3.25-3.85l2.5,2.5-6.92,6.38A4.23,4.23,0,0,0,45,15.64V15A13,13,0,0,0,32,2H24a1,1,0,0,0-1,1V5a12.86,12.86,0,0,0,2.49,7.64,1,1,0,1,0,1.61-1.18A10.94,10.94,0,0,1,25,5V4h7A11,11,0,0,1,43,15v.05A13,13,0,0,0,31,7a1,1,0,0,0,0,2,11,11,0,0,1,10.31,7.18,6.06,6.06,0,0,0-.78.45c-8.45-5-21.78-2.49-30.1,5.83S-.42,44.11,4.59,52.56c-1.5,2.26-1.46,5,.18,6.67s4.41,1.69,6.67.18A19.57,19.57,0,0,0,21.51,62c.68,0,1.37,0,2.06-.09a1,1,0,1,0-.16-2Z"/><path d="M60,40H16a1,1,0,0,0-1,1c0,11.58,10.32,21,23,21a24.21,24.21,0,0,0,15.53-5.51A1,1,0,1,0,52.25,55,22.16,22.16,0,0,1,38,60c-11.21,0-20.39-8-21-18h2c.34,3.67,2.49,7.6,5.93,10.7A19.86,19.86,0,0,0,38,58a19.86,19.86,0,0,0,13-5.3c3.44-3.1,5.59-7,5.93-10.7h2a17.76,17.76,0,0,1-4,10.24,1,1,0,1,0,1.55,1.26A19.64,19.64,0,0,0,61,41,1,1,0,0,0,60,40ZM37,56a17.88,17.88,0,0,1-9.81-4l4.38-3.89L37,43.23ZM21.07,42h14.3l-9.68,8.6A14.92,14.92,0,0,1,21.07,42ZM39,43.23l5.43,4.82,4.38,3.89A17.88,17.88,0,0,1,39,56ZM50.31,50.6,40.63,42h14.3A14.92,14.92,0,0,1,50.31,50.6Z"/></g><path d="M60.87,11.84a1,1,0,0,0-.93-.5L52,11.82,51.8,8.35a1,1,0,0,0-.63-.87,1,1,0,0,0-1.06.21l-5.35,5.18-3.07-2a1,1,0,0,0-1.38.29,1,1,0,0,0,.28,1.38L44.32,15a1,1,0,0,0,1.25-.12l4.37-4.22.13,2.3a1,1,0,0,0,.34.68,1,1,0,0,0,.72.25l6.93-.41-3.82,5.79a1,1,0,0,0-.15.75,1.06,1.06,0,0,0,.43.64l1.92,1.26L50.6,23.58a1,1,0,0,0-.72,1l.19,3.2a14.86,14.86,0,0,1-7.79-4.48,19.83,19.83,0,0,1,1.88-1.9l5.91,1,.17,0a1,1,0,0,0,.17-2l-4.08-.69A19.09,19.09,0,0,1,52,17.26a1,1,0,1,0-.5-1.94,21.12,21.12,0,0,0-6.93,3.27l-.27-1.4a1,1,0,0,0-2,.37L42.76,20c-.28.24-.54.49-.8.75,0-.25,0-.49,0-.74a8,8,0,0,0-4.29-7.08L38,11.66a4,4,0,0,1,4.4-3.1L45.88,9a1,1,0,0,0,.78-.24A1,1,0,0,0,47,8V3a1,1,0,0,0-1-1H41.92a9.84,9.84,0,0,0-9.34,6.7A7,7,0,0,0,22.3,18a10,10,0,0,0-7.34,4,7,7,0,0,0-4-2V20a8,8,0,0,1,8-8,1,1,0,0,0,0-2A10,10,0,0,0,9,20v.08a7,7,0,1,0,5.15,12.55,9.24,9.24,0,0,0,1,1.54A7,7,0,0,0,12,40a7.05,7.05,0,0,0,4.41,6.5,7.64,7.64,0,0,0-.35,1.59A7.58,7.58,0,0,0,15,48,8,8,0,0,1,7.73,36.66a1,1,0,1,0-1.81-.84,9.92,9.92,0,0,0,.52,9.32,5.94,5.94,0,0,0,1.61,9.07A6.84,6.84,0,0,0,8,55a7,7,0,0,0,13.79,1.68A7.67,7.67,0,0,0,24,57a8,8,0,0,0,7.06-4.28A7,7,0,0,0,33,53a7,7,0,0,0,6.86-5.59,1,1,0,0,0-2-.4,5,5,0,0,1-9.82-.25,7.94,7.94,0,0,0,8.21-2.83,7,7,0,1,0,7.43-11.84,8,8,0,0,0-.31-5.1,16.93,16.93,0,0,0,7.26,3L51,30h.15a1,1,0,0,0,.68-.26,1,1,0,0,0,.32-.8l-.22-3.66,7.16-2.05a1,1,0,0,0,.27-1.8l-2.89-1.91,4.37-6.63A1,1,0,0,0,60.87,11.84ZM40,20a6,6,0,0,1-6,6,5.76,5.76,0,0,1-1.24-.15A10,10,0,0,0,28,19.38,6,6,0,0,1,40,20ZM41.92,4H45V6.87l-2.36-.3A6,6,0,0,0,36,11.22l-.22,1A6.76,6.76,0,0,0,34.71,12a7.42,7.42,0,0,0-.58-1.42l.16-.67A7.85,7.85,0,0,1,41.92,4ZM28,9a4.94,4.94,0,0,1,4.18,2.29l0,.07a5.05,5.05,0,0,1,.39.77,8,8,0,0,0-6.47,6.39l-.63-.19A5,5,0,0,1,28,9ZM23,20a8,8,0,1,1-8,8A8,8,0,0,1,23,20ZM10,32a5,5,0,1,1,3.9-8.12A10,10,0,0,0,13,28a9.86,9.86,0,0,0,.38,2.68A5,5,0,0,1,10,32Zm4,8a5,5,0,0,1,2.57-4.36A9.94,9.94,0,0,0,22.08,38,7.42,7.42,0,0,0,22,39a7.88,7.88,0,0,0,.31,2.19,8,8,0,0,0-5,3.49A5,5,0,0,1,14,40ZM7,49a3.9,3.9,0,0,1,.69-2.2,10,10,0,0,0,3.39,2.4,7.06,7.06,0,0,0-2.48,3A4,4,0,0,1,7,49Zm8,11a5,5,0,0,1,0-10,5.09,5.09,0,0,1,1.09.14,8,8,0,0,0,3.81,5.71A5,5,0,0,1,15,60Zm14.24-8.1A6,6,0,0,1,18,49.31v0c0-.1,0-.19,0-.29a6,6,0,0,1,5.13-5.93A8.05,8.05,0,0,0,26,45.93s0,0,0,.07A7,7,0,0,0,29.24,51.9ZM30,45a6,6,0,0,1-6-6,5.55,5.55,0,0,1,.11-1.07A10,10,0,0,0,33,28v-.08A6.63,6.63,0,0,0,34,28a8,8,0,0,0,5.86-2.58,6,6,0,0,1,1.75,6.71h0a.11.11,0,0,1,0,0,6,6,0,0,1-4.26,3.64,7.89,7.89,0,0,0-2.18-2.95,1,1,0,0,0-1.29,1.54A6,6,0,0,1,30,45Zm15-7a5,5,0,0,1-7.68,4.21A7.86,7.86,0,0,0,38,39a7.12,7.12,0,0,0-.11-1.23,8,8,0,0,0,5-3.79A5,5,0,0,1,45,38Z" transform="matrix(0.9375 0 0 0.9375 312 217)" id="L1_11"/><g transform="matrix(0.9375 0 0 0.9375 171 96)" id="L1_15"><path d="M14.44,56.4c-6.18-3-9.9-7.48-10.38-12.38C8.36,51.19,18.9,56,31,56c10.28,0,19.58-3.43,24.86-9.18a1,1,0,0,0-1.47-1.36C49.55,50.73,40.59,54,31,54,18.87,54,8.1,48.73,5,41.38l.14-.08A1.67,1.67,0,0,1,7,41.65C12.34,46.88,21.33,50,31,50a41.07,41.07,0,0,0,15.18-2.8A13,13,0,0,0,54,32.82a1,1,0,1,0-2,.36,11,11,0,0,1-6.58,12.17A39.2,39.2,0,0,1,31,48h-.22C18.55,45.05,10,37.13,10.33,29.16c3.25,7.69,13,13.93,25,15.64a44.92,44.92,0,0,0,5.53.43h0a1,1,0,0,0,0-2,41,41,0,0,1-5.28-.41c-12-1.71-21.93-8.44-24-16.16a.94.94,0,0,1,.15-.06,1.66,1.66,0,0,1,1.79.6,26.43,26.43,0,0,0,7,6.11,1,1,0,1,0,1.06-1.69A24.67,24.67,0,0,1,15.1,26a3.64,3.64,0,0,0-3.88-1.31,3.74,3.74,0,0,0-2.79,3.17C7.37,35.27,12.84,42.6,22,47a28.57,28.57,0,0,1-13.7-6.82,3.67,3.67,0,0,0-4-.75A3.76,3.76,0,0,0,2,43c0,6,4.21,11.58,11.56,15.2a1,1,0,0,0,.44.1,1,1,0,0,0,.9-.56A1,1,0,0,0,14.44,56.4Z"/><path d="M59,32H57a1,1,0,0,0,0,2h1v9.7a.78.78,0,0,0,0,.22C57.19,52.93,45.35,60,31,60a39.91,39.91,0,0,1-12.68-2,1,1,0,0,0-1.27.63,1,1,0,0,0,.63,1.27A41.58,41.58,0,0,0,31,62c15.22,0,27.84-7.71,28.92-17.61A1,1,0,0,0,60,44V33A1,1,0,0,0,59,32Z"/><path d="M24.08,35.29a42.32,42.32,0,0,0,12.08,3.57,44.54,44.54,0,0,0,6.19.44,39.59,39.59,0,0,0,7.39-.68,1,1,0,0,0-.38-2,40.11,40.11,0,0,1-12.92.22,40.06,40.06,0,0,1-11.5-3.4,1,1,0,0,0-.86,1.81Z"/></g><path d="m50 25.22a12.1 12.1 0 0 0 -6.19-6.22h-.14a7 7 0 0 0 3.33-6 1 1 0 0 0 -1-1h-8a6.92 6.92 0 0 0 -3.84 1.16 7 7 0 0 1 5.84-3.16 1 1 0 0 0 0-2 8.81 8.81 0 0 0 -3 .53v-3.53a1 1 0 0 0 -1-1 5 5 0 0 0 -3.32 1.29 5 5 0 0 0 -4.68-3.29 1 1 0 0 0 -1 1v3.53a8.81 8.81 0 0 0 -3-.53 1 1 0 0 0 -1 1v5h-5a1 1 0 0 0 -1 1 7 7 0 0 0 3.33 6l-.11.05a12 12 0 0 0 -7.22 10.95v12a1 1 0 0 0 2 0v-3.56l4.24 4.25-4.24 4.21v-.9a1 1 0 0 0 -2 0v4a12 12 0 0 0 3.33 8.28 12 12 0 0 0 8.67 3.72h14a12 12 0 0 0 8.6-3.68 12 12 0 0 0 3.4-8.32v-20a11.89 11.89 0 0 0 -1-4.78zm-10.58 34.78-.35-.35 4.24-4.25 2.2 2.2a10 10 0 0 1 -6.09 2.4zm-11.29 0-.37-.37 4.24-4.25 4.24 4.25-.37.37zm-9.64-2.42 2.2-2.2 4.24 4.25-.35.35a10 10 0 0 1 -6.09-2.4zm11.49-7-2.22-2.23 4.24-4.28 4.24 4.24-9.9 9.9-4.24-4.21 4.24-4.24 2.23 2.24a1 1 0 0 0 .7.29 1 1 0 0 0 .73-.29 1 1 0 0 0 0-1.46zm-4.98-30.58h5.56l-4.25 4.24-3.92-3.92a10 10 0 0 1 2.61-.32zm16.58.35-3.92 3.92-4.25-4.27h5.59a10 10 0 0 1 2.58.35zm-9.58 1.09 4.24 4.25-4.24 4.24-4.24-4.24zm-1.41 9.9-4.25 4.25-4.24-4.25 4.24-4.24zm7.07-4.24 4.24 4.24-4.24 4.25-1.66-1.66a1 1 0 0 0 -1.41 1.41l1.65 1.66-4.24 4.24-4.24-4.24zm11.34 2.9v5.56l-4.24-4.25 3.92-3.92a10 10 0 0 1 .32 2.61zm-1.44 7-4.25 4.24-4.24-4.24 4.24-4.24zm-5.66 5.66-4.24 4.24-4.25-4.24 4.25-4.25zm-11.31 0-4.25 4.24-4.24-4.24 4.24-4.25zm7.07 15.55-4.25-4.21 4.25-4.24 4.24 4.24zm1.41-9.9 4.24-4.24 4.25 4.24-4.25 4.25zm5.66-5.65 4.27-4.25v8.43zm3.13-17.28-4.55 4.55-4.24-4.24 4.55-4.55a10.08 10.08 0 0 1 4.24 4.24zm-9.86-11.38h6.9a5 5 0 0 1 -4.9 4h-6.9a5 5 0 0 1 4.9-4zm-3-7.83v3.35a9 9 0 0 0 -2 1.84v-2.36a3 3 0 0 1 2-2.83zm-6-2a3 3 0 0 1 2 2.83v2.36a9 9 0 0 0 -2-1.84zm-4 3.9a7 7 0 0 1 5.93 6 7 7 0 0 0 -4.93-2.07h-1zm-1 9.93a5 5 0 0 1 -4.9-4h6.9a5 5 0 0 1 4.9 4zm-3.62 3.14 4.55 4.55-4.24 4.24-2.12-2.12a1 1 0 0 0 -1.42 0 1 1 0 0 0 0 1.41l2.12 2.12-4.27 4.25v-5.59a10 10 0 0 1 5.38-8.86zm-3.94 15.86 4.25-4.24 4.24 4.24-4.24 4.24zm4.25 7.07 4.24 4.24-4.24 4.25-4.25-4.25zm-5.69 5.69 4.27 4.24-2.15 2.16a9.9 9.9 0 0 1 -2.12-6.16zm31.88 6.37-2.15-2.13 4.27-4.27v.27a9.9 9.9 0 0 1 -2.12 6.13z" transform="matrix(0.9375 0 0 0.9375 126 4)" id="L1_13"/><g transform="matrix(0.6408155128939175 0.2651650472840038 -0.2651650472840038 0.6408155128939175 285.97918510048277 135.00862207430652)" id="L1_14"><path d="m30.67 55.56-5 1.86 2.33-2.55a1 1 0 1 0 -1.48-1.34l-5.08 5.59a1 1 0 0 0 -.09 1.23 1 1 0 0 0 .83.44 1.07 1.07 0 0 0 .35-.06l8.85-3.3a1 1 0 1 0 -.7-1.87z"/><path d="m52.65 34.38a1 1 0 0 0 -1.24.69 29.27 29.27 0 0 1 -7.81 13 1 1 0 0 0 0 1.41 1 1 0 0 0 1.42 0 31.22 31.22 0 0 0 8.34-13.93 1 1 0 0 0 -.71-1.17z"/><path d="m59.5 5.13-5.2-3a1 1 0 0 0 -1.09.07 14.65 14.65 0 0 0 -5.53 8.29 10.78 10.78 0 0 0 -8.38 1.43 11 11 0 0 0 -5.06 9.23 1 1 0 0 0 .47.85 1 1 0 0 0 .91.07 17.61 17.61 0 0 0 0 2.41l.38 5a29.77 29.77 0 0 1 -.44 7.69 1 1 0 0 0 .79 1.17h.19a1 1 0 0 0 1-.81 31.14 31.14 0 0 0 .46-8.22l-.38-5a15.28 15.28 0 0 1 .13-3.3l3.31-1.64 1.88 7a1 1 0 0 0 1.31.68l6.3-2.32 1.91 7.14a1 1 0 0 0 .64.69 1.26 1.26 0 0 0 .33 0 1 1 0 0 0 .6-.2 11.85 11.85 0 0 0 3.73-14.17 1 1 0 1 0 -1.83.81 9.85 9.85 0 0 1 -2 10.75l-1.73-6.55a1 1 0 0 0 -1.31-.68l-6.31 2.31-1.91-7.13a1 1 0 0 0 -1.41-.64l-4.85 2.4a9 9 0 0 1 4-5.86 8.63 8.63 0 0 1 8.37-.66 23.94 23.94 0 0 1 2.12 1.06 20.92 20.92 0 0 1 1.92 1.23 9.37 9.37 0 0 1 .89.72 1 1 0 1 0 1.35-1.48 12.1 12.1 0 0 0 -1.06-.84l-.38-.26a12.72 12.72 0 0 1 5.28-6.14l.63-.37a1 1 0 0 0 0-1.73zm-7.62 7.15c-.75-.43-1.52-.82-2.3-1.17a12.67 12.67 0 0 1 4.31-6.91l3.16 1.8a14.73 14.73 0 0 0 -5.17 6.28z"/><path d="m38.49 46.51a29.54 29.54 0 0 1 -5.62-10.71l-.58-2a31.7 31.7 0 0 0 -4.2-8.95 9.92 9.92 0 0 0 -1.23-6.42 6 6 0 0 0 -5.61-3.43 11.76 11.76 0 0 0 -4.72 1.35 15.37 15.37 0 0 0 -6.28-8.52 1 1 0 0 0 -1.19.07l-4.7 3.9a1 1 0 0 0 -.35.93 1 1 0 0 0 .62.78l.14.05a13.36 13.36 0 0 1 5.34 3.81 1 1 0 0 0 1.53-1.29 15.37 15.37 0 0 0 -4.76-3.76l2.87-2.32a13.36 13.36 0 0 1 5 7.4 17.42 17.42 0 0 0 -5.75 4.68 6 6 0 0 0 -.33 6.85c1.05 1.82 3.19 2.7 4.91 3.4l.69.29a1 1 0 0 0 1-.11 1 1 0 0 0 .42-.87l-.2-3.38 5.89 2.17a1 1 0 0 0 .94-.13 1 1 0 0 0 .4-.87l-.31-5.21 3.75 1.28a29.72 29.72 0 0 1 4.24 8.85l.57 2a31.63 31.63 0 0 0 6 11.43l8.42 10.22-11.39-5.62a29.71 29.71 0 0 1 -14.2-15.07 30.67 30.67 0 0 0 -1.71-3.31 1 1 0 0 0 -1.74 1 28.51 28.51 0 0 1 1.56 3.13 31.64 31.64 0 0 0 15.15 16.04l15.62 7.73a1 1 0 0 0 .44.1 1 1 0 0 0 .78-1.64zm-16.87-24.66a1 1 0 0 0 -.93.15 1 1 0 0 0 -.39.86l.31 5.14-5.9-2.17a1 1 0 0 0 -.94.13 1 1 0 0 0 -.4.87l.2 3.3a6.49 6.49 0 0 1 -3.17-2.23 4 4 0 0 1 .24-4.71 15.65 15.65 0 0 1 5.06-4.09c2.37-1.37 4.23-2.1 5.72-2.1a4.1 4.1 0 0 1 3.7 2.39 7.82 7.82 0 0 1 1.07 4z"/></g><path d="m54.38 36.54a9.1 9.1 0 0 0 -14.38-4.54 8 8 0 0 0 -1-.68 31.2 31.2 0 0 1 -2-23v3.68a12 12 0 0 0 12 12 1 1 0 0 0 1-1v-9a12 12 0 0 0 -12-12 1 1 0 0 0 -.71.29l-6.36 6.37a32.84 32.84 0 0 0 -9.5 26.41l.57 6a1 1 0 0 0 1 .93h.09a1 1 0 0 0 .91-1.09l-.06-.62a1 1 0 0 0 .76-.29 7.1 7.1 0 0 1 11.76 3.1 13.27 13.27 0 0 1 -3.55 13.33 12.81 12.81 0 0 1 -9.56 3.57 13.14 13.14 0 0 1 -12.35-12.66 13.36 13.36 0 0 1 .51-4.18 7.1 7.1 0 0 1 7.21-5.16 1 1 0 0 0 1.05-.95 1 1 0 0 0 -.95-1.05 9.12 9.12 0 0 0 -9.22 6.6 15.17 15.17 0 0 0 13.66 19.4h.74a14.79 14.79 0 0 0 10.28-4.13 15.07 15.07 0 0 0 4.71-11 15.23 15.23 0 0 0 -.62-4.31 9.08 9.08 0 0 0 -14.64-4.33l-.32-3.33a30.86 30.86 0 0 1 8.92-24.81l2.89-2.88a33.18 33.18 0 0 0 1.07 23 9 9 0 0 0 -8 2.08 1 1 0 0 0 1.32 1.5 7.06 7.06 0 0 1 7.85-1 32 32 0 0 0 1.67 2.81 1 1 0 1 0 1.66-1.1l-.23-.37.1-.07a7.1 7.1 0 0 1 11.8 3.04 13.15 13.15 0 0 1 -12.38 16.9 1 1 0 1 0 0 2 15.15 15.15 0 0 0 14.3-19.46zm-6.38-22.54v8a10 10 0 0 1 -9-10v-4.65a9.91 9.91 0 0 1 5 8.65 1 1 0 0 0 2 0 11.91 11.91 0 0 0 -7-10.89v-1.06a10 10 0 0 1 9 9.95z" transform="matrix(0.7648601350349321 0.1799670850799113 -0.1799670850799113 0.7648601350349321 221.07735992425808 229.56785744034383)" id="L1_17"/></defs><g fi:class="KUsePattern"><pattern id="pattern_L1_1" width="350" height="350" patternUnits="userSpaceOnUse"><use xlink:href="#L1_1" x="-350" y="-350"/><use xlink:href="#L1_1" x="0" y="-350"/><use xlink:href="#L1_1" x="350" y="-350"/><use xlink:href="#L1_1" x="-350" y="0"/><use xlink:href="#L1_1" x="0" y="0"/><use xlink:href="#L1_1" x="350" y="0"/><use xlink:href="#L1_1" x="-350" y="350"/><use xlink:href="#L1_1" x="0" y="350"/><use xlink:href="#L1_1" x="350" y="350"/></pattern><rect x="0" y="0" width="100%" height="100%" fill="url(#pattern_L1_1)"/></g><g fi:class="KUsePattern"><pattern id="pattern_L1_4" width="350" height="350" patternUnits="userSpaceOnUse"><use xlink:href="#L1_4" x="-350" y="-350"/><use xlink:href="#L1_4" x="0" y="-350"/><use xlink:href="#L1_4" x="350" y="-350"/><use xlink:href="#L1_4" x="-350" y="0"/><use xlink:href="#L1_4" x="0" y="0"/><use xlink:href="#L1_4" x="350" y="0"/><use xlink:href="#L1_4" x="-350" y="350"/><use xlink:href="#L1_4" x="0" y="350"/><use xlink:href="#L1_4" x="350" y="350"/></pattern><rect x="0" y="0" width="100%" height="100%" fill="url(#pattern_L1_4)"/></g><g fi:class="KUsePattern"><pattern id="pattern_L1_3" width="350" height="350" patternUnits="userSpaceOnUse"><use xlink:href="#L1_3" x="-350" y="-350"/><use xlink:href="#L1_3" x="0" y="-350"/><use xlink:href="#L1_3" x="350" y="-350"/><use xlink:href="#L1_3" x="-350" y="0"/><use xlink:href="#L1_3" x="0" y="0"/><use xlink:href="#L1_3" x="350" y="0"/><use xlink:href="#L1_3" x="-350" y="350"/><use xlink:href="#L1_3" x="0" y="350"/><use xlink:href="#L1_3" x="350" y="350"/></pattern><rect x="0" y="0" width="100%" height="100%" fill="url(#pattern_L1_3)"/></g><g fi:class="KUsePattern"><pattern id="pattern_L1_6" width="350" height="350" patternUnits="userSpaceOnUse"><use xlink:href="#L1_6" x="-350" y="-350"/><use xlink:href="#L1_6" x="0" y="-350"/><use xlink:href="#L1_6" x="350" y="-350"/><use xlink:href="#L1_6" x="-350" y="0"/><use xlink:href="#L1_6" x="0" y="0"/><use xlink:href="#L1_6" x="350" y="0"/><use xlink:href="#L1_6" x="-350" y="350"/><use xlink:href="#L1_6" x="0" y="350"/><use xlink:href="#L1_6" x="350" y="350"/></pattern><rect x="0" y="0" width="100%" height="100%" fill="url(#pattern_L1_6)"/></g><g fi:class="KUsePattern"><pattern id="pattern_L1_8" width="350" height="350" patternUnits="userSpaceOnUse"><use xlink:href="#L1_8" x="-350" y="-350"/><use xlink:href="#L1_8" x="0" y="-350"/><use xlink:href="#L1_8" x="350" y="-350"/><use xlink:href="#L1_8" x="-350" y="0"/><use xlink:href="#L1_8" x="0" y="0"/><use xlink:href="#L1_8" x="350" y="0"/><use xlink:href="#L1_8" x="-350" y="350"/><use xlink:href="#L1_8" x="0" y="350"/><use xlink:href="#L1_8" x="350" y="350"/></pattern><rect x="0" y="0" width="100%" height="100%" fill="url(#pattern_L1_8)"/></g><g fi:class="KUsePattern"><pattern id="pattern_L1_11" width="350" height="350" patternUnits="userSpaceOnUse"><use xlink:href="#L1_11" x="-350" y="-350"/><use xlink:href="#L1_11" x="0" y="-350"/><use xlink:href="#L1_11" x="350" y="-350"/><use xlink:href="#L1_11" x="-350" y="0"/><use xlink:href="#L1_11" x="0" y="0"/><use xlink:href="#L1_11" x="350" y="0"/><use xlink:href="#L1_11" x="-350" y="350"/><use xlink:href="#L1_11" x="0" y="350"/><use xlink:href="#L1_11" x="350" y="350"/></pattern><rect x="0" y="0" width="100%" height="100%" fill="url(#pattern_L1_11)"/></g><g fi:class="KUsePattern"><pattern id="pattern_L1_15" width="350" height="350" patternUnits="userSpaceOnUse"><use xlink:href="#L1_15" x="-350" y="-350"/><use xlink:href="#L1_15" x="0" y="-350"/><use xlink:href="#L1_15" x="350" y="-350"/><use xlink:href="#L1_15" x="-350" y="0"/><use xlink:href="#L1_15" x="0" y="0"/><use xlink:href="#L1_15" x="350" y="0"/><use xlink:href="#L1_15" x="-350" y="350"/><use xlink:href="#L1_15" x="0" y="350"/><use xlink:href="#L1_15" x="350" y="350"/></pattern><rect x="0" y="0" width="100%" height="100%" fill="url(#pattern_L1_15)"/></g><g fi:class="KUsePattern"><pattern id="pattern_L1_13" width="350" height="350" patternUnits="userSpaceOnUse"><use xlink:href="#L1_13" x="-350" y="-350"/><use xlink:href="#L1_13" x="0" y="-350"/><use xlink:href="#L1_13" x="350" y="-350"/><use xlink:href="#L1_13" x="-350" y="0"/><use xlink:href="#L1_13" x="0" y="0"/><use xlink:href="#L1_13" x="350" y="0"/><use xlink:href="#L1_13" x="-350" y="350"/><use xlink:href="#L1_13" x="0" y="350"/><use xlink:href="#L1_13" x="350" y="350"/></pattern><rect x="0" y="0" width="100%" height="100%" fill="url(#pattern_L1_13)"/></g><g fi:class="KUsePattern"><pattern id="pattern_L1_14" width="350" height="350" patternUnits="userSpaceOnUse"><use xlink:href="#L1_14" x="-350" y="-350"/><use xlink:href="#L1_14" x="0" y="-350"/><use xlink:href="#L1_14" x="350" y="-350"/><use xlink:href="#L1_14" x="-350" y="0"/><use xlink:href="#L1_14" x="0" y="0"/><use xlink:href="#L1_14" x="350" y="0"/><use xlink:href="#L1_14" x="-350" y="350"/><use xlink:href="#L1_14" x="0" y="350"/><use xlink:href="#L1_14" x="350" y="350"/></pattern><rect x="0" y="0" width="100%" height="100%" fill="url(#pattern_L1_14)"/></g><g fi:class="KUsePattern"><pattern id="pattern_L1_17" width="350" height="350" patternUnits="userSpaceOnUse"><use xlink:href="#L1_17" x="-350" y="-350"/><use xlink:href="#L1_17" x="0" y="-350"/><use xlink:href="#L1_17" x="350" y="-350"/><use xlink:href="#L1_17" x="-350" y="0"/><use xlink:href="#L1_17" x="0" y="0"/><use xlink:href="#L1_17" x="350" y="0"/><use xlink:href="#L1_17" x="-350" y="350"/><use xlink:href="#L1_17" x="0" y="350"/><use xlink:href="#L1_17" x="350" y="350"/></pattern><rect x="0" y="0" width="100%" height="100%" fill="url(#pattern_L1_17)"/></g></svg>