<svg xmlns="http://www.w3.org/2000/svg" xmlns:xlink="http://www.w3.org/1999/xlink" xmlns:fi="http://pattern.flaticon.com/" x="0" y="0" width="2000" height="1000" viewBox="0 0 2000 1000"><rect x="0px" y="0px" width="100%" height="100%" opacity="0" fill="#ffffff"/><defs><path d="M31.802,32.153c-4.046-1.609-7.638-5.072-8.233-9.551c-0.033-0.249,0.164-0.59,0.42-0.757   c0.154-0.101,0.309-0.201,0.467-0.304c0.811-0.504,1.568-1.19,2.342-1.829c0.727-0.726,1.473-1.425,2.102-2.254   c2.627-3.467,4.531-8.01,4.268-12.455c-0.061-1.026-0.236-2.047-0.546-3.048c-0.058-0.209-0.109-0.391-0.152-0.543   c-0.084-0.3-0.243-0.31-0.356-0.024c-0.057,0.145-0.125,0.319-0.205,0.519c-0.115,0.324-0.293,0.706-0.53,1.125   c-1.435,2.524-5.435,7.506-8.929,6.581c-0.846-0.224-1.383-1.532-1.9-2.181c-1.523-1.913-3.406-3.574-5.515-4.816   c-3.738-2.201-8.871-3.36-13.118-2.049C1.708,0.625,1.526,0.676,1.374,0.719C1.031,0.815,0.832,0.87,0.832,0.87   s0.377,0.149,1.037,0.41c0.324,0.117,0.706,0.294,1.125,0.531c1.831,1.04,3.429,2.304,4.657,4.042   c1.04,1.473,3.147,4.526,1.043,5.833c-4.992,3.101-8.935,9.485-8.682,15.496c0.015,0.359,0.03,0.705,0.044,1.038   c0.012,0.651,0.112,1.243,0.198,1.755c0.069,0.51,0.165,0.943,0.275,1.297c0.058,0.209,0.109,0.391,0.152,0.543   c0.084,0.301,0.243,0.311,0.356,0.024c0.057-0.146,0.126-0.319,0.205-0.519c0.117-0.324,0.294-0.707,0.532-1.125   c0.221-0.42,0.461-0.881,0.804-1.344c1.118-1.51,2.474-2.874,4.093-3.844c0.855-0.514,3.88-2.198,4.675-0.979   c3.096,4.75,7.824,8.033,13.441,8.955c0.422,0.069,0.832,0.123,1.241,0.133c0.384,0.021,0.757,0.041,1.117,0.061   c0.359-0.016,0.705-0.029,1.039-0.044c0.65-0.013,1.242-0.112,1.754-0.198c0.51-0.068,0.943-0.165,1.297-0.275   c0.209-0.058,0.392-0.108,0.543-0.151C32.075,32.425,32.086,32.267,31.802,32.153z M16.572,19.865   c-1.739,0-3.147-1.371-3.234-3.088c-0.003-0.055-0.016-0.108-0.016-0.164c0-1.796,1.456-3.251,3.25-3.251   c1.74,0,3.148,1.37,3.236,3.088c0.002,0.055,0.016,0.108,0.016,0.164C19.824,18.41,18.369,19.865,16.572,19.865z" transform="matrix(1.2427937087332663 0.2571297334344665 -0.2571297334344665 1.2427937087332663 87.563008881771 311.07772767843363)" fill="#030104" id="L1_1"/><g transform="matrix(0.16912241040278167 -0.03288491356576689 0.03288491356576689 0.16912241040278167 202.94868910436145 -18.308928127978493)" id="L1_2"><path d="M326.979,33.2c1.264-3.908-0.936-6.182-4.883-5.053c0,0-87.959,27.812-156.725,27.812      c-65.222,0-160.19-27.934-160.19-27.934c-3.966-1.062-6.12,1.246-4.785,5.129l9.925,28.875c0.457,1.076-1.077,1.135-1.607,1.125      c-2.95-0.055-5.669,1.897-6.473,4.877c-0.948,3.512,1.131,7.127,4.645,8.076c3.928,1.059,87.681,25.963,158.577,25.963      c74.756,0,152.33-24.805,155.994-25.861c3.496-1.008,5.516-4.657,4.506-8.155c-1.008-3.496-3.879-5.687-7.377-4.677      c-0.041,0.013-1.494,0.291-1.006-1.088L326.979,33.2z"/><path d="M270.315,108.055c-0.338-2.729-2.824-4.563-5.531-4.072l-28.41,4.705c-2.719,0.42-4.814,3.008-4.658,5.754l3.244,57.175      c0.154,2.745-1.967,4.991-4.717,4.991h-45.775c-2.75,0-5-2.25-5-5v-52.37c0-2.75-2.249-4.934-4.998-4.854      c0,0-4.677,0.139-9.457,0.139c-5.6,0-12.147-0.246-12.147-0.246c-2.748-0.102-4.997,2.063-4.997,4.813v52.517c0,2.75-2.25,5-5,5      H97.09c-2.75,0-4.873-2.246-4.717-4.991l3.275-57.737c0.156-2.746-1.939-5.344-4.656-5.771l-28.349-4.746      c-2.706-0.49-5.195,1.344-5.53,4.072l-7.899,64.211c-0.335,2.73-2.86,4.963-5.61,4.963H31.162c-2.75,0-5,2.25-5,5v21.6      c0,2.75,2.25,5,5,5h8.555c2.75,0,4.725,2.232,4.39,4.963l-10.018,81.436c-0.335,2.73,1.64,4.963,4.39,4.963h41.636      c2.75,0,5.127-2.246,5.283-4.991l4.616-81.377c0.156-2.746,2.533-4.991,5.283-4.991h136.738c2.75,0,5.127,2.245,5.283,4.991      l4.615,81.377c0.154,2.745,2.533,4.991,5.283,4.991h41.637c2.75,0,4.727-2.23,4.391-4.963l-10.01-81.436      c-0.338-2.729,1.641-4.964,4.391-4.964h8.545c2.75,0,5-2.25,5-5v-21.599c0-2.75-2.25-5-5-5h-12.43      c-2.75,0-5.273-2.23-5.609-4.963L270.315,108.055z"/></g><g transform="matrix(1.0928013324737549 0 0 1.0928013324737549 7.388497352600098 103.3884973526001)" id="L1_3"><path d="M44.619,19.276c-0.305-0.996-1.239-1.665-2.326-1.665c-0.258,0-0.516,0.039-0.766,0.115l-22.076,7.502l-0.799,3.662    l24.286-6.605c0.627-0.191,1.156-0.617,1.479-1.19C44.732,20.528,44.806,19.882,44.619,19.276z"/><path d="M9.794,32.335c-0.232-0.118-0.473-0.228-0.723-0.319c-0.038-0.015-0.074-0.033-0.112-0.047    c-0.271-0.097-0.552-0.156-0.831-0.216l5.104-1.389l0.491-3.188L3.205,30.749c-0.808,0.248-1.444,0.455-1.82,0.75    c-0.282,0.222-0.436,0.485-0.258,1.067c0.189,0.621,0.494,0.746,0.925,0.746c0.096,0,0.2-0.012,0.307-0.024    c-0.18,0.158-0.346,0.33-0.506,0.508c-0.129,0.144-0.266,0.281-0.382,0.435c-0.403,0.535-0.731,1.137-0.962,1.791    c-1.215,3.449,0.604,7.24,4.052,8.453c0.711,0.25,1.449,0.377,2.197,0.377c1.712,0,3.311-0.67,4.512-1.787    c0.042-0.389,0.113-0.781,0.184-1.154l1.07-6.945C11.884,33.83,10.942,32.926,9.794,32.335z M11.123,39.756    c-0.649,1.852-2.404,3.096-4.365,3.096c-0.521,0-1.037-0.09-1.533-0.265c-2.408-0.846-3.678-3.493-2.831-5.899    c0.649-1.853,2.404-3.094,4.364-3.094c0.521,0,1.038,0.088,1.535,0.264c1.166,0.41,2.104,1.248,2.638,2.363    C11.465,37.333,11.534,38.59,11.123,39.756z"/><circle cx="6" cy="38" r="2"/><path d="M4.561,27.521c0.711,0.25,1.449,0.377,2.197,0.377c2.809,0,5.32-1.781,6.252-4.432c0.588-1.669,0.489-3.469-0.275-5.065    c-0.766-1.596-2.107-2.8-3.777-3.386c-0.711-0.25-1.451-0.377-2.198-0.377c-2.808,0-5.319,1.781-6.253,4.431    C-0.705,22.518,1.113,26.309,4.561,27.521z M2.394,19.733c0.65-1.851,2.404-3.094,4.365-3.094c0.521,0,1.037,0.089,1.534,0.264    c1.166,0.41,2.104,1.25,2.638,2.364s0.603,2.37,0.192,3.536c-0.649,1.85-2.404,3.094-4.365,3.094    c-0.521,0-1.037-0.088-1.533-0.264C2.817,24.787,1.547,22.139,2.394,19.733z"/><circle cx="6" cy="21" r="2"/><path d="M4.561,13.184c0.711,0.25,1.45,0.376,2.197,0.376c2.81,0,5.321-1.78,6.252-4.43c0.588-1.67,0.489-3.469-0.275-5.065    c-0.767-1.596-2.106-2.798-3.776-3.385C8.247,0.43,7.507,0.303,6.759,0.303c-2.808,0-5.319,1.78-6.252,4.431    C-0.706,8.181,1.113,11.972,4.561,13.184z M2.394,5.397c0.649-1.851,2.404-3.094,4.364-3.094c0.521,0,1.038,0.089,1.535,0.264    c1.166,0.41,2.104,1.25,2.638,2.364c0.534,1.114,0.604,2.37,0.192,3.536c-0.649,1.851-2.404,3.094-4.365,3.094    c-0.521,0-1.037-0.088-1.533-0.263C2.816,10.451,1.547,7.804,2.394,5.397z"/><circle cx="6" cy="6" r="2"/><path d="M22.922,1.06c-0.354-0.543-0.896-0.906-1.52-1.021C21.262,0.013,21.122,0,20.984,0c-1.159,0-2.162,0.869-2.386,2.065    l-3.641,23.634l-0.086,0.559l-0.086,0.557l-0.503,3.267L14.2,30.622l-0.083,0.541l-0.879,5.707l-0.705,4.59l-0.096,0.621    c-0.357,1.922-0.315,2.504,0.65,2.687c0.935,0.168,1.212-0.334,1.57-2.258l2.666-12.22l0.12-0.551l0.12-0.552l0.781-3.582    l0.125-0.571l0.124-0.569l4.699-21.542C23.414,2.276,23.283,1.609,22.922,1.06z"/></g><g transform="matrix(0.14167281985282898 0 0 0.14167281985282898 136 228.99999792471465)" id="L1_5"><path d="M211.783,217.539C103.006,221.63,45.757,261.799,0.507,323.434c-0.509,0.692-1.231,2.813,1.231,2.813      c11.189,0,43.594,0,43.594,0c19.807,0,43.764-80.233,166.45-80.233c124.332,0,146.644,80.233,168.575,80.233h40.923      c3.5,0,2.058-2.438,1.162-3.646C377.363,261.837,319.641,221.596,211.783,217.539z"/><path d="M404.845,209.709c-0.688,0-1.25-0.9-1.25-2v-4.5c0-1.1-0.009-2-0.019-2c-0.012,0,0.626-0.627,1.417-1.393      c0,0,4.853-4.705,4.853-9.305c0-6.766-5.483-12.25-12.25-12.25c-6.765,0-12.25,5.484-12.25,12.25c0,4.6,4.854,9.305,4.854,9.305      c0.79,0.766,1.427,1.393,1.417,1.393c-0.011,0-0.021,0.9-0.021,2v4.5c0,1.1-0.562,2-1.25,2c-0.687,0-1.25,0.9-1.25,2v14.803      c0,1.75-0.962,1.376-1.443,0.875c-16.769-17.432-34.443-30.897-54.228-41.42c-0.485-0.258-1.461-0.518-1.461-1.643v-26.498      c0-1.1-0.562-2-1.25-2s-1.25-0.9-1.25-2v-4.141c0-1.1,0.646-2.628,1.434-3.396c0,0,4.816-4.694,4.816-9.278      c0-6.766-5.483-12.25-12.25-12.25c-6.766,0-12.25,5.484-12.25,12.25c0,4.584,4.817,9.278,4.817,9.278      c0.787,0.768,1.433,2.296,1.433,3.396v4.141c0,1.1-0.562,2-1.25,2s-1.25,0.9-1.25,2v17.436c0,1.5-1.401,1.427-2.105,1.144      c-27.016-10.878-58.036-17.214-94.113-19.216c-0.304-0.017-0.913-0.115-0.913-0.928v-24.834c0-1.1-0.563-2-1.25-2      c-0.688,0-1.25-0.9-1.25-2v-5.242c0-1.101,0.645-2.629,1.433-3.396c0,0,4.817-4.693,4.817-9.277      c0-6.766-5.485-12.25-12.25-12.25c-6.766,0-12.25,5.484-12.25,12.25c0,4.584,4.817,9.278,4.817,9.278      c0.788,0.768,1.433,2.296,1.433,3.396v5.242c0,1.1-0.563,2-1.25,2s-1.25,0.9-1.25,2v24.334c0,1.167-0.99,1.415-1.483,1.443      c-36.161,2.024-67.24,8.409-94.294,19.362c-0.453,0.184-1.355,0.277-1.355-0.806v-17.936c0-1.1-0.563-2-1.25-2s-1.25-0.9-1.25-2      v-4.141c0-1.1,0.645-2.628,1.432-3.396c0,0,4.818-4.694,4.818-9.278c0-6.766-5.484-12.25-12.25-12.25      c-6.766,0-12.25,5.484-12.25,12.25c0,4.584,4.817,9.278,4.817,9.278c0.788,0.768,1.433,2.296,1.433,3.396v4.141      c0,1.1-0.563,2-1.25,2s-1.25,0.9-1.25,2v26.186c0,1.25-0.641,1.334-0.96,1.502c-20.131,10.589-38.077,24.188-55.088,41.873      c-0.362,0.376-1.084,0.708-1.084-0.625v-15.053c0-1.1-0.563-2-1.25-2s-1.25-0.9-1.25-2v-4.5c0-1.1-0.009-2-0.019-2      c-0.011,0,0.626-0.627,1.417-1.393c0,0,4.853-4.705,4.853-9.305c0-6.766-5.484-12.25-12.25-12.25      c-6.765,0-12.25,5.484-12.25,12.25c0,4.6,4.853,9.305,4.853,9.305c0.79,0.766,1.427,1.393,1.417,1.393c-0.01,0-0.02,0.9-0.02,2      v4.5c0,1.1-0.563,2-1.25,2s-1.25,0.9-1.25,2v36.417c-0.005,0.008-0.011,0.014-0.016,0.021l0.016,0.015v41.187      c0,1.667,1.264,0.896,1.897,0.188c4.66-5.195,9.385-10.101,14.196-14.726c0.302-0.291,0.906-0.897,0.906-1.769v-21.196      c0-0.875,0.458-1.337,0.687-1.607c17.025-20.078,35.194-35.832,55.667-47.794c0.259-0.152,0.778-0.43,0.778,0.508v27.812      c0,1.875,1.325,0.95,1.991,0.643c4.513-2.094,9.126-4.062,13.848-5.9c0.386-0.149,1.161-0.429,1.161-1.615v-29.708      c0-0.813,0.845-1.288,1.269-1.476c26.82-11.903,57.6-18.413,94.483-20.492c0.459-0.025,1.38,0.134,1.38,1.218v31.646      c0,1,1.063,0.809,1.595,0.78c2.186-0.118,4.382-0.227,6.604-0.311l0.301-0.012l0.301,0.012c2.246,0.085,4.464,0.195,6.672,0.313      c0.512,0.027,1.527,0.092,1.527-0.846v-31.875c0-0.875,0.694-0.941,1.04-0.922c36.707,2.07,67.373,8.525,94.103,20.322      c0.666,0.294,1.989,1.308,1.989,2.392v28.332c0,1.333,0.874,1.418,1.311,1.584c4.941,1.877,9.776,3.881,14.493,6.035      c0.399,0.184,1.196,0.506,1.196-0.744v-26.875c0-0.917,1.021-0.478,1.527-0.177c19.896,11.808,37.616,27.229,54.243,46.769      c0.455,0.534,1.36,1.075,1.36,3.241v14.75c0,1.584,0.92,2.39,1.379,2.81c4.776,4.375,9.099,8.623,13.716,13.537      c0.515,0.547,1.905,0.653,1.905-1.013v-71.47C406.095,210.609,405.532,209.709,404.845,209.709z"/></g><path d="M9.894,3.985V3.983c-0.029,0-0.057,0-0.082,0c-0.011,0-0.019,0-0.029,0l0,0   C2.035,3.983,0,3.131,0,3.131l0.587,1.336c0,0,0.122,0.025,0.473,0.066v0.528c0,0,0.564,0.178,2.82,0.307V5.72h0.316L4.18,6.451   H3.634v0.26H1.255v1.107h2.891l-0.23,7.428c-0.354,0.072-0.621,0.389-0.621,0.766v0.018h-1.85v0.513h6.94v-0.513H6.624v-0.018   c0-0.377-0.268-0.693-0.619-0.766L5.771,7.819h4.012v0.002h4.121l-0.233,7.426c-0.353,0.071-0.621,0.389-0.621,0.766v0.019h-1.758   v0.512h6.942v-0.512h-1.852v-0.019c0-0.377-0.268-0.692-0.621-0.766l-0.234-7.426h2.896V6.713h-2.378V6.451h-0.549l-0.019-0.732   h0.317v-0.35c2.254-0.131,2.82-0.309,2.82-0.309V4.533c0.35-0.041,0.472-0.066,0.472-0.066l0.588-1.336   C19.676,3.131,17.641,3.983,9.894,3.985z M9.126,6.711H6.288v-0.26H5.737L5.72,5.719h0.319V5.447   c0.983,0.034,1.666,0.055,3.087,0.061V6.711z M13.938,6.451h-0.549v0.262H10.55V5.508c1.419-0.006,2.106-0.027,3.085-0.061v0.271   h0.321L13.938,6.451z" transform="matrix(3.095783357187196 0.6879518532361218 -0.6879518532361218 3.095783357187196 116.33003075132349 41.01122050398166)" fill="#030104" id="L1_6"/><g transform="matrix(0.1908925175666809 0 0 0.1908925175666809 274.0000005359532 248)" id="L1_7"><path d="M274.372,289.079l-39.889-116.402c0.394-6.587,0.967-19.816-2.47-25.914l-42.072,27.71    c-17.865,9.559-48.379,29.834-49.788,31.081c-6.784,6.038-8.354,16.003-3.795,23.832l41.44,71.089    c2.512,4.302,6.444,7.262,10.848,8.61c4.917,1.516,10.418,1.038,15.21-1.748c9.088-5.305,12.166-16.97,6.874-26.057    l-33.468-57.395c7.089-5.919,15.09-12.316,22.579-17.877c1.868-0.036,3.723-0.245,5.585-0.585l32.907,96.007    c2.059,5.991,6.808,10.317,12.423,12.041c3.717,1.14,7.823,1.164,11.779-0.185C272.481,309.873,277.785,299.032,274.372,289.079z" fill="#010002"/><path d="M182.166,162.498l46.196-28.319c-10.842-14.112-44.322-45.861-53.821-56.435    c-13.05-14.541-41.428-14.738-55.969-1.683c-4.762,4.278-8.061,9.559-9.929,15.227c-12.256,15.371-33.987,10.812-52.914,7.685    c-8.807-1.462-16.582,7.852-16.815,15.842c-0.286,9.786,7.071,15.359,15.842,16.809c19.798,3.27,41.183,4.374,58.541-2.989    c0,0,4.177,51.924,37.436,51.834C150.739,180.464,169.23,169.861,182.166,162.498z" fill="#010002"/><path d="M100.528,70.781c15.544,4.779,32.024-3.938,36.798-19.476c2.989-9.702,0.716-19.774-5.203-27.137    l5.507,0.806c3.252,0.477,6.271-1.772,6.749-5.03c0.477-3.252-1.766-6.277-5.024-6.749l-11.367-1.665l1.48-1.802    c2.088-2.542,1.718-6.289-0.823-8.372c-2.542-2.094-6.283-1.718-8.372,0.817l-7.673,9.332c-0.442,0.4-0.835,0.871-1.134,1.39    l-0.31,0.388c-13.324-0.895-25.998,7.381-30.103,20.699C76.272,49.521,84.99,65.995,100.528,70.781z" fill="#010002"/></g><g transform="matrix(1.0501444339752197 0 0 1.0501444339752197 247 62.99999931097085)" id="L1_9"><path d="M42.842,33.271c0.084-0.372,0.113-0.793-0.021-1.362l-0.106-0.101    c-0.291,0.265-0.563,0.547-0.834,0.83c-0.945-0.647-1.486-1.097-1.508-1.112l-0.3,0.355c0.386-1.01,0.232-2.27-0.858-3.074    c-3.512-2.593-7.023-5.186-10.538-7.779c-0.054-0.061-0.107-0.125-0.166-0.182c-1.775-1.752-4.258-1.46-6.048,0.032    c0,0-10.427,5.945-21.179,20.315c0,0,0.621,0.509,1.514,1.117c-0.736,0.954-1.472,1.908-2.216,2.856    c-1.978,2.521,1.557,6.106,3.558,3.556c1.137-1.448,2.264-2.904,3.383-4.367c0.499-0.006,0.928-0.155,1.233-0.517    c1.742-2.057,3.771-6.213,3.771-6.213l2.736-0.457c0.004,0.006,0.009,0.013,0.013,0.017l2.067,8.174l1.147-0.192    c0.137,0.994,0.211,2.033,0.222,3.119c0.032,3.244,5.063,3.248,5.03,0c-0.014-1.357-0.11-2.68-0.293-3.957l2.9-0.49l-5.356-7.104    c-0.435-0.799-0.927-1.571-1.474-2.315c2.613-2.178,5.226-4.356,7.839-6.536l2.418,3.03l1.769-1.735    c1.735,1.28,3.471,2.562,5.205,3.842c1.078,0.796,2.133,0.485,2.803-0.272c0.211,0.168,0.664,0.515,1.332,0.963    c-0.354,0.4-0.713,0.797-1.038,1.225l0.106,0.1c0.619,0.088,1.055,0.008,1.436-0.121c0.281-0.104,0.509-0.256,0.713-0.43    c2.785,1.684,7.541,3.96,13.326,4.354l1.707-0.978C51.127,37.857,45.804,35.145,42.842,33.271z" fill="#010002"/><circle cx="30" cy="15" r="4" fill="#010002"/><path d="M25.887,13.614 26.293,12.328 26.646,12.046 23.278,6.415 23.257,8.707 21.019,8.213     23.413,10.79 20.403,9.378 21.667,11.29 19.534,12.133z" fill="#010002"/><path d="M43.814,21.355c1.819,0.84,3.405,2.119,4.709,3.616c1.306,1.502,2.33,3.228,3.081,5.057    c0.753,1.832,1.225,3.756,1.439,5.725l1.446-0.217c-0.694-4.113-2.521-8.085-5.432-11.062c-1.45-1.479-3.179-2.705-5.103-3.456    c-1.916-0.76-4.025-1.01-6.031-0.664C39.949,20.13,42.001,20.508,43.814,21.355z" fill="#010002"/></g><g transform="matrix(0.2063550502061844 0 0 0.2063550502061844 15.000001461009902 233)" id="L1_10"><path d="M98.093,85.728c1.319,0,2.411-0.764,2.542-1.772c0.072-0.531-0.066-1.199-0.269-1.82    c-0.31-0.973,0.919-0.43,2.924,1.146c2.005,1.575,3.634,3.807,3.634,4.976c0,1.175,0.835,2.124,1.862,2.124h1.862h14.559    c0,0,1.014,0,2.267,0c1.253,0,7.602,0,14.195,0c2.423,0,4.97,0,7.393,0c6.587,0,12.948,0,14.201,0c1.128,0,2.267,0,2.267,0h14.571    c0,0,0.835,0,1.862,0c1.032,0,1.862-0.949,1.862-2.118c0-1.169,1.629-3.395,3.634-4.976c2.005-1.581,3.234-2.118,2.924-1.146    c-0.203,0.621-0.34,1.289-0.274,1.82c0.131,1.014,1.229,1.778,2.548,1.778c0.829,0,1.629-0.31,2.261-0.871    c0.68-0.609,0.883-1.349,0.865-2.041c-0.036-1.265-0.668-3.825-0.668-5.859c0-2.041-0.167-3.622-0.388-3.538l-0.382,0.155    c-0.024,0.012-2.709,1.056-7.184,1.056c-4.41,0-11.391-1.038-19.607-5.991c-5.692-3.425-9.469-7.381-11.976-11.015    c-3.735-5.43-3.807-10.776-2.661-10.716c0.722,0.036,1.414,0.054,2.076,0.054c7.178,0,8.801-2.13,8.956-2.375    c0,0,0.09-0.125,0.197-0.28c0.101-0.155,0.048-0.346-0.125-0.418l-0.316-0.137c-2.542-1.104-4.779-2.44-6.629-3.735    c-3.455-2.417-5.806-5.155-5.871-5.394s-0.728-5.728-1.635-12.256c-0.764-5.49-1.689-11.993-2.476-17.483    c-0.937-6.522-2.47-6.528-3.419-0.006l-2.542,17.507c-0.949,6.522-1.587,11.993-1.599,12.238s-2.381,2.972-5.842,5.388    c-1.85,1.295-4.093,2.631-6.647,3.735c0,0-0.137,0.06-0.31,0.137c-0.173,0.078-0.227,0.263-0.125,0.418l0.191,0.286    c0.161,0.239,1.796,2.369,8.974,2.369c0.662,0,1.354-0.018,2.076-0.054c1.146-0.06,1.074,5.293-2.661,10.722    c-2.494,3.628-6.271,7.584-11.964,11.009c-8.216,4.953-15.198,5.991-19.607,5.991c-4.475,0-7.16-1.044-7.184-1.056    c0,0-0.173-0.072-0.388-0.155c-0.215-0.084-0.388,1.498-0.388,3.532s-0.627,4.589-0.662,5.854    c-0.018,0.722,0.191,1.468,0.847,2.047C96.458,85.417,97.263,85.728,98.093,85.728z" fill="#010002"/><path d="M57.434,142.353c0.841-0.072,1.891-0.692,2.554-1.51c0.585-0.722,0.829-1.545,0.716-2.363    c-0.095-0.734-0.453-1.414-0.883-1.999c-0.722-0.985-1.522-1.79-1.51-2.053c0.018-0.263,2.524,1.933,6.14,4.123    c3.616,2.19,7.113,3.335,7.113,4.147s0.776,1.468,1.736,1.468h1.736h132.214c6.587,0,11.934-0.656,11.934-1.468    s3.491-1.951,7.101-4.147c3.616-2.19,6.116-4.38,6.134-4.123c0.018,0.257-0.782,1.074-1.504,2.053    c-0.424,0.579-0.788,1.265-0.877,1.993c-0.113,0.829,0.137,1.647,0.722,2.369c0.656,0.823,1.712,1.444,2.554,1.51    c1.921,0.012,4.475-0.853,4.636-3.222c0.06-0.817-0.119-1.492-0.394-2.029c-0.537-1.038-1.408-3.27-1.408-5.394    c0-2.124-0.316-3.998-0.71-4.189c-0.394-0.191-1.76,0.388-3.049,1.289c-1.295,0.901-7.733,2.727-14.207,1.492    c-3.479-0.662-7.5-1.951-11.767-4.308c-12.745-7.065-18.145-21.415-18.205-21.564c0,0-0.03-0.084-0.066-0.185    c-0.036-0.101-0.579-0.185-1.205-0.185c-0.627,0-1.128-0.495-1.128-1.098s-0.442-1.098-0.99-1.098    c-0.549,0-6.337-0.006-12.924-0.006c-21.6-0.006-64.973-0.006-64.973-0.006s-0.442,0-0.991,0c-0.549,0-0.991,0.495-0.991,1.098    s-0.507,1.098-1.134,1.098c-0.627,0-1.164,0.084-1.205,0.185l-0.072,0.185c-0.054,0.143-5.454,14.494-18.199,21.564    c-4.266,2.363-8.288,3.652-11.767,4.314c-6.474,1.235-12.912-0.591-14.207-1.498c-1.295-0.907-2.655-1.48-3.049-1.289    c-0.394,0.191-0.71,2.065-0.71,4.189c0,2.124-0.877,4.356-1.408,5.394c-0.274,0.537-0.453,1.217-0.4,2.047    C52.959,141.625,55.817,142.461,57.434,142.353z" fill="#010002"/><path d="M237.556,192.212c-0.537-1.032-1.408-3.27-1.408-5.394c0-2.124-0.316-3.998-0.71-4.189    c-0.394-0.185-1.76,0.388-3.049,1.295c-1.295,0.895-7.733,2.727-14.207,1.492c-3.479-0.662-7.5-1.957-11.767-4.314    c-12.745-7.065-18.145-21.415-18.205-21.558c0,0-0.03-0.089-0.066-0.185c-0.036-0.107-0.579-0.185-1.205-0.185    c-0.627,0-1.128-0.495-1.128-1.098c0-0.609-0.442-1.104-0.99-1.104c-0.549,0-6.337-0.006-12.924-0.006    c-21.6-0.006-64.973-0.006-64.973-0.006s-0.442,0-0.991,0c-0.549,0-0.991,0.495-0.991,1.104c0,0.603-0.507,1.098-1.134,1.098    c-0.627,0-1.164,0.084-1.205,0.185l-0.072,0.185c-0.054,0.137-5.454,14.494-18.199,21.552c-4.266,2.363-8.288,3.652-11.767,4.32    c-6.474,1.235-12.912-0.597-14.207-1.504c-1.295-0.901-2.655-1.48-3.049-1.283c-0.394,0.185-0.71,2.065-0.71,4.183    c0,2.118-0.877,4.356-1.408,5.394c-0.274,0.537-0.453,1.217-0.4,2.047c0.167,2.488,3.025,3.33,4.642,3.216    c0.841-0.072,1.891-0.692,2.554-1.51c0.585-0.722,0.829-1.545,0.716-2.363c-0.095-0.734-0.453-1.408-0.883-1.993    c-0.722-0.991-1.522-1.796-1.51-2.059c0.018-0.263,2.524,1.933,6.14,4.123c3.616,2.184,7.113,3.335,7.113,4.141    c0,0.817,0.776,1.468,1.736,1.468h1.736c0,0,1.253,0,2.804,0c1.545,0,2.804,0.794,2.804,1.772c0,0.967,2.548,1.76,5.686,1.76    c3.139,0,5.597,0.662,5.49,1.468c-0.066,0.477-0.125,0.967-0.191,1.468c-0.644,4.72-1.426,10.233-2.071,16.134    c-0.752,5.907-1.283,12.208-1.903,18.503c-0.519,6.307-2.041,12.596-2.166,18.509c0,0.489,0.018,0.967,0.036,1.45    c0.036,0.8-1.032,1.45-2.405,1.45c-1.372,0-2.482,1.074-2.482,2.387s-2.208,2.393-4.929,2.393c-2.721,0-4.929,5.346-4.929,11.934    v0.334c0,6.587,5.179,11.934,11.564,11.934H93.91h1.79h48.773h1.79h48.612h1.79c0,0,5.048,0,11.259,0    c6.212,0,11.254-5.346,11.254-11.934v-0.334c0-6.587-2.071-11.934-4.618-11.934c-2.548,0-4.612-1.08-4.612-2.393    s-1.116-2.387-2.482-2.387c-1.372,0-2.44-0.65-2.405-1.45c0.024-0.477,0.036-0.961,0.036-1.45    c-0.125-5.907-1.635-12.202-2.16-18.509c-0.621-6.295-1.152-12.59-1.897-18.503c-0.65-5.901-1.426-11.415-2.076-16.134    c-0.066-0.501-0.125-0.991-0.185-1.468c-0.113-0.812,2.351-1.468,5.49-1.468c3.133,0,5.686-0.794,5.686-1.76    c0-0.979,2.065-1.772,4.612-1.772c2.548,0,4.618-0.65,4.618-1.468c0-0.812,3.491-1.945,7.101-4.141    c3.616-2.19,6.116-4.38,6.134-4.123c0.018,0.257-0.782,1.08-1.504,2.059c-0.424,0.579-0.788,1.259-0.877,1.993    c-0.113,0.829,0.137,1.641,0.722,2.363c0.656,0.817,1.707,1.444,2.554,1.51c1.945,0.018,4.499-0.847,4.66-3.21    C238.01,193.424,237.837,192.749,237.556,192.212z M142.2,205.739c-0.644,4.732-1.426,10.233-2.071,16.14    c-0.752,5.907-1.283,12.202-1.903,18.509c-0.519,6.301-2.041,12.596-2.166,18.503c0,0.489,0.018,0.967,0.036,1.45    c0.036,0.8-1.032,1.45-2.405,1.45c-1.372,0-2.482,1.074-2.482,2.393c0,1.319-4.976,2.387-11.11,2.387s-11.11-1.074-11.11-2.387    c0-1.325-1.11-2.393-2.482-2.393c-1.372,0-2.44-0.65-2.405-1.45c0.024-0.477,0.036-0.961,0.036-1.45    c-0.119-5.901-1.641-12.202-2.166-18.503c-0.621-6.307-1.152-12.596-1.903-18.509c-0.65-5.907-1.426-11.409-2.071-16.14    c-0.066-0.501-0.131-0.979-0.191-1.456c-0.107-0.817,2.351-1.468,5.49-1.468s5.686-0.794,5.686-1.772    c0-0.967,4.976-1.76,11.11-1.76s11.11,0.794,11.11,1.76c0,0.979,2.548,1.772,5.686,1.772c3.139,0,5.597,0.656,5.49,1.468    C142.325,204.761,142.259,205.238,142.2,205.739z M192.602,205.739c-0.644,4.732-1.426,10.233-2.071,16.14    c-0.758,5.907-1.283,12.202-1.897,18.509c-0.519,6.301-2.041,12.596-2.166,18.503c0,0.489,0.024,0.967,0.036,1.45    c0.036,0.8-1.032,1.45-2.399,1.45c-1.372,0-2.482,1.074-2.482,2.393c0,1.319-4.941,2.387-11.027,2.387    c-6.092,0-11.039-1.074-11.039-2.387c0-1.325-1.11-2.393-2.482-2.393s-2.44-0.65-2.405-1.45c0.024-0.477,0.036-0.961,0.036-1.45    c-0.119-5.901-1.641-12.202-2.166-18.503c-0.621-6.307-1.152-12.596-1.903-18.509c-0.65-5.907-1.426-11.409-2.071-16.14    c-0.066-0.501-0.131-0.979-0.191-1.456c-0.107-0.817,2.351-1.468,5.49-1.468s5.686-0.794,5.686-1.772    c0-0.967,4.941-1.76,11.033-1.76s11.027,0.794,11.027,1.76c0,0.979,2.554,1.772,5.686,1.772c3.139,0,5.597,0.656,5.49,1.468    C192.727,204.761,192.662,205.238,192.602,205.739z" fill="#010002"/></g><g transform="matrix(1.6758795325328 -0.46354115169846394 0.46354115169846394 1.6758795325328 140.67039659402485 116.28346244541925)" id="L1_11"><path d="M21.442,24.339c0.072-0.009,1.777-0.21,2.865-0.21c0.382,0,0.65,0.024,0.846,0.082l0.895-0.493    c0.08-0.044,0.17-0.066,0.258-0.066c0.114,0,0.229,0,0.323,0.072c0.009,0.006,0.812,0.568,1.614,0.568l0.066-0.076    c0.008,0,0.015,0,0.022,0c0.112,0,0.222,0.11,0.312,0.176c0.084,0.061,6.545,4.734,15.101,8.481    c0.024-0.382,0.058-0.759,0.058-1.146c0-9.622-7.801-17.422-17.423-17.422c-9.292,0-16.863,7.281-17.372,16.446    c4.3-1.952,8.403-4.068,12.227-6.342C21.297,24.372,21.368,24.348,21.442,24.339z" fill="#010002"/><path d="M43.713,33.459c-8.795-3.8-15.382-8.561-15.382-8.561c-0.029,0.001-0.059,0.002-0.089,0.002    c-1.004,0-1.937-0.715-1.937-0.715l-1.183,0.649c0.026-0.128-0.328-0.172-0.822-0.172c-1.069,0-2.807,0.206-2.807,0.206    c-4.226,2.512-8.476,4.659-12.519,6.483c-1.831,0.826-3.623,1.594-5.344,2.286c0.554,0.343,1.031,0.632,1.14,0.632    c0.271,0-4.77,2.457-4.77,2.457l4.036-1.24v0.359v0.182l3.152-0.631l3.287-0.777l-3.089,2.107l5.083-2.107l1.01,1.049l2.984-3.157    l-0.447,2.706l2.257-1.264c0,0-3.425,3.608-3.155,3.697c0.003,0.002,0.007,0.002,0.012,0.002c0.38,0,5.218-3.518,5.218-3.518    s-2,2.705-1.496,2.887c0.042,0.014,0.124,0.021,0.239,0.021c1.276,0,6.72-0.909,9.283-2.729c0.878-0.623,1.562-0.837,2.084-0.837    c1.142,0,1.522,1.019,1.522,1.019l4.148,2.164l-1.714-1.577c0,0,0.281-0.025,0.709-0.025c0.854,0,2.298,0.101,3.259,0.701    c0.268,0.167,0.436,0.235,0.532,0.235c0.427,0-0.532-1.317-0.532-1.317s6.672,2.254,7.395,2.345    c0.02,0.002,0.035,0.004,0.051,0.004c0.521,0-2.125-1.537-2.125-1.537l4.328,0.812l3.895,0.386    c0.01-0.088,0.022-0.176,0.031-0.264C49.091,35.616,46.308,34.579,43.713,33.459z" fill="#010002"/></g><path d="m59 61v-14h2v-2h-2v-2h2v-2h-2v-2h-2v2h-4v-12h5c.552 0 1-.447 1-1v-6c0-.553-.448-1-1-1h-5v-2h1c.552 0 1-.447 1-1v-3.764l1.618-3.236h1.382c.379 0 .725-.214.895-.553l4-8c.181-.361.126-.797-.139-1.103-.266-.305-.689-.423-1.072-.293-7.861 2.621-16.047 3.949-24.333 3.949h-10.702c-8.286 0-16.472-1.328-24.333-3.948-.382-.13-.807-.012-1.071.293-.266.305-.32.741-.14 1.102l4 8c.17.339.516.553.895.553h1.382l1.618 3.236v3.764c0 .553.448 1 1 1h1v2h-5c-.552 0-1 .447-1 1v6c0 .553.448 1 1 1h5v12h-4v-2h-2v2h-2v2h2v2h-2v2h2v14h-4v2h62v-2zm-2 0h-2v-9c0-.553-.448-1-1-1h-1v-4h4zm-40-16h-4v-2h4zm0 2v4h-4v-4zm2 6v8h-8v-8zm1-2h-1v-8h2v-2h-2v-12h26v12h-2v2h2v8h-1c-.552 0-1 .447-1 1v9h-22v-9c0-.553-.448-1-1-1zm27 0v-4h4v4zm0-6v-2h4v2zm-2 8h8v8h-8zm12-10v2h-4v-2zm-6-2h-4v-12h4zm0-20h-4v-2h4zm-40-4v-2h8v2zm9 2c.552 0 1-.447 1-1v-3h22v3c0 .553.448 1 1 1h1v2h-26v-2zm25-2v-2h8v2zm-41.048-13.333c7.366 2.213 14.99 3.333 22.697 3.333h10.702c7.707 0 15.331-1.12 22.697-3.333l-2.666 5.333h-50.764zm50.43 7.333-1 2h-42.764l-1-2zm-41.382 8h4v2h-4zm-6 4h50v4h-50zm6 6h4v12h-4zm-6 14h4v2h-4zm0 4h4v4h-1c-.552 0-1 .447-1 1v9h-2z" transform="matrix(0.5841359831603313 0.3972124674225878 -0.3972124674225878 0.5841359831603313 98.120872429539 162.28191033855632)" id="L1_12"/><g transform="matrix(1.1481099101645644 0.42097362280980066 -0.42097362280980066 1.1481099101645644 282.0118340465648 156.87555098714344)" id="L1_13"><path d="M22.539,24.107c-1.712,0.163-3.564-1.934-5.5-1.934c-2.071,0-4.048,2.083-5.859,1.897    c-4.958-0.507-8.674-1.639-9.671-3.014c0.284,2.044,0.798,3.977,1.487,5.768c0.177,0.178,0.353,0.353,0.537,0.536    c0.514,0.569,1.192,1.023,1.805,1.58c0.689,0.466,1.367,0.994,2.14,1.4c0.736,0.469,1.559,0.801,2.359,1.174    c0.833,0.292,1.653,0.632,2.507,0.812c0.837,0.248,1.69,0.347,2.509,0.496c0.828,0.031,1.63,0.18,2.395,0.135    c0.383-0.004,0.756-0.006,1.117-0.01c0.359-0.037,0.706-0.076,1.039-0.111c0.671-0.053,1.273-0.176,1.814-0.278    c0.271-0.05,0.523-0.099,0.758-0.142c0.229-0.066,0.438-0.127,0.628-0.183c0.767-0.212,1.206-0.333,1.206-0.333    s-0.415,0.188-1.143,0.518c-0.184,0.08-0.388,0.168-0.609,0.264c-0.23,0.072-0.479,0.152-0.745,0.236    c-0.532,0.175-1.136,0.38-1.821,0.475c-0.341,0.062-0.695,0.128-1.062,0.195c-0.373,0.031-0.758,0.063-1.154,0.098    c-0.794,0.105-1.636,0.028-2.508,0.014c-0.86-0.129-1.769-0.177-2.652-0.436c-0.902-0.18-1.772-0.521-2.654-0.824    c-0.841-0.402-1.702-0.766-2.472-1.27c-0.811-0.434-1.495-1.033-2.199-1.545c-0.322-0.303-0.648-0.592-0.957-0.883    c2.821,5.754,7.673,9.567,13.206,9.567c7.74,0,14.169-7.438,15.53-17.253C31.548,22.466,27.675,23.618,22.539,24.107z" fill="#010002"/><path d="M22.396,21.582c1.971-0.377,1.928-0.82,1.911-0.989c-0.048-0.451-0.689-0.451-0.997-0.451    c-0.325,0-0.712,0.031-1.12,0.089c-0.353,0.051-1.528,0.245-1.835,0.665c-0.076,0.106-0.107,0.229-0.088,0.349    c0.076,0.461,0.73,0.461,0.977,0.461C21.572,21.707,21.982,21.662,22.396,21.582z" fill="#010002"/><path d="M12.126,21.72c0.219,0,0.883,0,0.962-0.461c0.021-0.119-0.01-0.244-0.086-0.351    c-0.296-0.414-1.387-0.615-1.714-0.666c-0.376-0.06-0.735-0.091-1.039-0.091c-0.274,0-0.918,0-0.979,0.453    c-0.057,0.425,0.547,0.761,1.792,1.002C11.446,21.681,11.814,21.72,12.126,21.72z" fill="#010002"/><path d="M37.067,6.538c0,0-0.106-0.238-0.369-0.596c-0.13-0.182-0.301-0.39-0.513-0.62    c-0.208-0.241-0.471-0.466-0.784-0.654c-0.31-0.202-0.661-0.403-1.045-0.592c-0.382-0.198-0.817-0.269-1.267-0.364    c-0.141-0.021-0.285-0.032-0.43-0.046c0.322-0.124,0.635-0.245,0.922-0.386c0.309-0.132,0.598-0.264,0.857-0.395    c0.259-0.143,0.492-0.238,0.686-0.35c0.389-0.209,0.621-0.379,0.621-0.379l0.008-0.005c0.015-0.011,0.028-0.025,0.039-0.042    c0.051-0.076,0.03-0.179-0.047-0.229c0,0-0.231-0.154-0.658-0.335c-0.213-0.089-0.476-0.201-0.78-0.27    c-0.304-0.069-0.654-0.147-1.036-0.192c-0.381-0.026-0.799-0.044-1.237-0.014c-0.435,0.048-0.899,0.1-1.354,0.257    c-0.456,0.153-0.909,0.366-1.342,0.64c-0.443,0.243-0.861,0.561-1.291,0.828c-0.078,0.058-0.155,0.116-0.233,0.173    c0.375,0.337,0.733,0.695,1.081,1.069c0.174,0.192,0.345,0.388,0.514,0.588c0.383,0.452,0.74,0.928,1.078,1.423    c0.336,0.062,0.672,0.131,0.994,0.206c0.391,0.07,0.752,0.218,1.111,0.294c0.356,0.077,0.726,0.069,1.059,0.117    c0.332,0.051,0.659,0.076,0.975,0.082c0.157,0.007,0.314,0.001,0.465-0.004c0.145,0.009,0.272,0.04,0.408,0.041    c0.262,0.018,0.506,0.027,0.717,0.023c0.42-0.002,0.703-0.036,0.703-0.036l0.02-0.002c0.016-0.002,0.031-0.006,0.047-0.013    C37.067,6.718,37.104,6.621,37.067,6.538z" fill="#010002"/><path d="M29.38,7.575c-0.736-0.469-1.56-0.801-2.359-1.174c-0.833-0.292-1.653-0.632-2.508-0.811    c-0.836-0.248-1.689-0.347-2.508-0.497c-0.828-0.031-1.631-0.179-2.396-0.134c-0.383,0.003-0.756,0.006-1.117,0.009    c-0.358,0.038-0.706,0.076-1.039,0.111c-0.671,0.053-1.274,0.177-1.814,0.279c-0.271,0.05-0.524,0.098-0.758,0.141    c-0.228,0.067-0.438,0.128-0.628,0.183c-0.767,0.212-1.206,0.333-1.206,0.333s0.415-0.188,1.142-0.517    c0.184-0.079,0.388-0.167,0.61-0.263c0.23-0.073,0.479-0.153,0.745-0.237c0.532-0.174,1.135-0.379,1.821-0.474    c0.341-0.063,0.696-0.128,1.063-0.195c0.373-0.032,0.758-0.064,1.154-0.098c0.793-0.105,1.635-0.028,2.508-0.013    c0.859,0.128,1.769,0.176,2.651,0.435c0.902,0.18,1.772,0.522,2.654,0.824c0.555,0.266,1.108,0.53,1.649,0.813    c-0.187-0.248-0.362-0.507-0.562-0.743c-0.169-0.2-0.339-0.396-0.516-0.586c-0.346-0.374-0.705-0.731-1.082-1.069    C24.182,1.462,20.763,0,17.035,0C8.305,0,1.228,7.969,1.228,17.8c0,0.751,0.055,1.486,0.135,2.213    c0.973-1.683,7.612-2.985,15.675-2.985s14.703,1.302,15.672,2.983c0.08-0.727,0.135-1.462,0.135-2.213    c0-3.564-0.941-6.875-2.545-9.656C30.004,7.943,29.705,7.745,29.38,7.575z" fill="#010002"/></g><g transform="matrix(1.2421846389770508 0 0 1.2421846389770508 -12 11.999999128105287)" id="L1_14"><path d="M36.751,15.748c-1.462,0-2.857,0.108-4.143,0.304c-1.088,0.166-1.947-0.329-1.947-1.207v-1.59    c0-2.506-5.172-4.537-11.551-4.537S7.56,10.748,7.56,13.255v6.022c0,0.924-0.887,1.79-1.95,2.041C2.251,22.11,0,23.552,0,25.205    v9.841c0,2.509,5.171,4.539,11.55,4.539s11.55-2.03,11.55-4.537v-6.023c0-0.924,0.477-1.74,1.057-1.852s1.043,0.485,1.043,1.363    v1.59c0,2.506,5.172,4.537,11.55,4.537c6.379,0,11.552-2.031,11.552-4.537v-9.841C48.302,17.78,43.13,15.748,36.751,15.748z     M11.55,29.274c-4.896,0-8.866-1.56-8.866-3.483s3.969-3.483,8.866-3.483s8.866,1.559,8.866,3.483S16.446,29.274,11.55,29.274z     M19.111,17.325c-4.897,0-8.866-1.559-8.866-3.483c-0.001-1.924,3.969-3.483,8.866-3.483s8.867,1.559,8.867,3.483    C27.977,15.766,24.008,17.325,19.111,17.325z M36.752,24.355c-4.896,0-8.866-1.559-8.866-3.483s3.969-3.483,8.866-3.483    s8.867,1.559,8.867,3.483S41.649,24.355,36.752,24.355z" fill="#030104"/><path d="M16.472,24.339c-0.688-0.281-1.502-0.083-1.91,0.436c-0.103,0.055-0.275,0.117-0.513,0.178    c-0.041-0.125-0.103-0.246-0.184-0.361c-0.488-0.687-1.615-1.069-3.351-1.133c-0.957-0.038-4.183-0.044-5.011,1.378    c-0.286,0.49-0.258,1.042,0.077,1.513c0.759,1.067,2.892,1.364,4.548,1.426c0.102,0.004,0.338,0.011,0.667,0.011    c1.612,0,5.435-0.173,6.366-1.769C17.524,25.393,17.217,24.643,16.472,24.339z" fill="#030104"/><ellipse cx="18px" cy="13px" rx="4px" ry="1px" fill="#030104"/><ellipse cx="36px" cy="20px" rx="4px" ry="1px" fill="#030104"/></g></defs><g fi:class="KUsePattern" opacity="0.55"><pattern id="pattern_L1_1" width="350" height="350" patternUnits="userSpaceOnUse"><use xlink:href="#L1_1" x="-350" y="-350"/><use xlink:href="#L1_1" x="0" y="-350"/><use xlink:href="#L1_1" x="350" y="-350"/><use xlink:href="#L1_1" x="-350" y="0"/><use xlink:href="#L1_1" x="0" y="0"/><use xlink:href="#L1_1" x="350" y="0"/><use xlink:href="#L1_1" x="-350" y="350"/><use xlink:href="#L1_1" x="0" y="350"/><use xlink:href="#L1_1" x="350" y="350"/></pattern><rect x="0" y="0" width="100%" height="100%" fill="url(#pattern_L1_1)"/></g><g fi:class="KUsePattern" opacity="0.55"><pattern id="pattern_L1_2" width="350" height="350" patternUnits="userSpaceOnUse"><use xlink:href="#L1_2" x="-350" y="-350"/><use xlink:href="#L1_2" x="0" y="-350"/><use xlink:href="#L1_2" x="350" y="-350"/><use xlink:href="#L1_2" x="-350" y="0"/><use xlink:href="#L1_2" x="0" y="0"/><use xlink:href="#L1_2" x="350" y="0"/><use xlink:href="#L1_2" x="-350" y="350"/><use xlink:href="#L1_2" x="0" y="350"/><use xlink:href="#L1_2" x="350" y="350"/></pattern><rect x="0" y="0" width="100%" height="100%" fill="url(#pattern_L1_2)"/></g><g fi:class="KUsePattern" opacity="0.55"><pattern id="pattern_L1_3" width="350" height="350" patternUnits="userSpaceOnUse"><use xlink:href="#L1_3" x="-350" y="-350"/><use xlink:href="#L1_3" x="0" y="-350"/><use xlink:href="#L1_3" x="350" y="-350"/><use xlink:href="#L1_3" x="-350" y="0"/><use xlink:href="#L1_3" x="0" y="0"/><use xlink:href="#L1_3" x="350" y="0"/><use xlink:href="#L1_3" x="-350" y="350"/><use xlink:href="#L1_3" x="0" y="350"/><use xlink:href="#L1_3" x="350" y="350"/></pattern><rect x="0" y="0" width="100%" height="100%" fill="url(#pattern_L1_3)"/></g><g fi:class="KUsePattern" opacity="0.55"><pattern id="pattern_L1_5" width="350" height="350" patternUnits="userSpaceOnUse"><use xlink:href="#L1_5" x="-350" y="-350"/><use xlink:href="#L1_5" x="0" y="-350"/><use xlink:href="#L1_5" x="350" y="-350"/><use xlink:href="#L1_5" x="-350" y="0"/><use xlink:href="#L1_5" x="0" y="0"/><use xlink:href="#L1_5" x="350" y="0"/><use xlink:href="#L1_5" x="-350" y="350"/><use xlink:href="#L1_5" x="0" y="350"/><use xlink:href="#L1_5" x="350" y="350"/></pattern><rect x="0" y="0" width="100%" height="100%" fill="url(#pattern_L1_5)"/></g><g fi:class="KUsePattern" opacity="0.55"><pattern id="pattern_L1_6" width="350" height="350" patternUnits="userSpaceOnUse"><use xlink:href="#L1_6" x="-350" y="-350"/><use xlink:href="#L1_6" x="0" y="-350"/><use xlink:href="#L1_6" x="350" y="-350"/><use xlink:href="#L1_6" x="-350" y="0"/><use xlink:href="#L1_6" x="0" y="0"/><use xlink:href="#L1_6" x="350" y="0"/><use xlink:href="#L1_6" x="-350" y="350"/><use xlink:href="#L1_6" x="0" y="350"/><use xlink:href="#L1_6" x="350" y="350"/></pattern><rect x="0" y="0" width="100%" height="100%" fill="url(#pattern_L1_6)"/></g><g fi:class="KUsePattern" opacity="0.55"><pattern id="pattern_L1_7" width="350" height="350" patternUnits="userSpaceOnUse"><use xlink:href="#L1_7" x="-350" y="-350"/><use xlink:href="#L1_7" x="0" y="-350"/><use xlink:href="#L1_7" x="350" y="-350"/><use xlink:href="#L1_7" x="-350" y="0"/><use xlink:href="#L1_7" x="0" y="0"/><use xlink:href="#L1_7" x="350" y="0"/><use xlink:href="#L1_7" x="-350" y="350"/><use xlink:href="#L1_7" x="0" y="350"/><use xlink:href="#L1_7" x="350" y="350"/></pattern><rect x="0" y="0" width="100%" height="100%" fill="url(#pattern_L1_7)"/></g><g fi:class="KUsePattern" opacity="0.55"><pattern id="pattern_L1_9" width="350" height="350" patternUnits="userSpaceOnUse"><use xlink:href="#L1_9" x="-350" y="-350"/><use xlink:href="#L1_9" x="0" y="-350"/><use xlink:href="#L1_9" x="350" y="-350"/><use xlink:href="#L1_9" x="-350" y="0"/><use xlink:href="#L1_9" x="0" y="0"/><use xlink:href="#L1_9" x="350" y="0"/><use xlink:href="#L1_9" x="-350" y="350"/><use xlink:href="#L1_9" x="0" y="350"/><use xlink:href="#L1_9" x="350" y="350"/></pattern><rect x="0" y="0" width="100%" height="100%" fill="url(#pattern_L1_9)"/></g><g fi:class="KUsePattern" opacity="0.55"><pattern id="pattern_L1_10" width="350" height="350" patternUnits="userSpaceOnUse"><use xlink:href="#L1_10" x="-350" y="-350"/><use xlink:href="#L1_10" x="0" y="-350"/><use xlink:href="#L1_10" x="350" y="-350"/><use xlink:href="#L1_10" x="-350" y="0"/><use xlink:href="#L1_10" x="0" y="0"/><use xlink:href="#L1_10" x="350" y="0"/><use xlink:href="#L1_10" x="-350" y="350"/><use xlink:href="#L1_10" x="0" y="350"/><use xlink:href="#L1_10" x="350" y="350"/></pattern><rect x="0" y="0" width="100%" height="100%" fill="url(#pattern_L1_10)"/></g><g fi:class="KUsePattern" opacity="0.55"><pattern id="pattern_L1_11" width="350" height="350" patternUnits="userSpaceOnUse"><use xlink:href="#L1_11" x="-350" y="-350"/><use xlink:href="#L1_11" x="0" y="-350"/><use xlink:href="#L1_11" x="350" y="-350"/><use xlink:href="#L1_11" x="-350" y="0"/><use xlink:href="#L1_11" x="0" y="0"/><use xlink:href="#L1_11" x="350" y="0"/><use xlink:href="#L1_11" x="-350" y="350"/><use xlink:href="#L1_11" x="0" y="350"/><use xlink:href="#L1_11" x="350" y="350"/></pattern><rect x="0" y="0" width="100%" height="100%" fill="url(#pattern_L1_11)"/></g><g fi:class="KUsePattern" opacity="0.55"><pattern id="pattern_L1_12" width="350" height="350" patternUnits="userSpaceOnUse"><use xlink:href="#L1_12" x="-350" y="-350"/><use xlink:href="#L1_12" x="0" y="-350"/><use xlink:href="#L1_12" x="350" y="-350"/><use xlink:href="#L1_12" x="-350" y="0"/><use xlink:href="#L1_12" x="0" y="0"/><use xlink:href="#L1_12" x="350" y="0"/><use xlink:href="#L1_12" x="-350" y="350"/><use xlink:href="#L1_12" x="0" y="350"/><use xlink:href="#L1_12" x="350" y="350"/></pattern><rect x="0" y="0" width="100%" height="100%" fill="url(#pattern_L1_12)"/></g><g fi:class="KUsePattern" opacity="0.55"><pattern id="pattern_L1_13" width="350" height="350" patternUnits="userSpaceOnUse"><use xlink:href="#L1_13" x="-350" y="-350"/><use xlink:href="#L1_13" x="0" y="-350"/><use xlink:href="#L1_13" x="350" y="-350"/><use xlink:href="#L1_13" x="-350" y="0"/><use xlink:href="#L1_13" x="0" y="0"/><use xlink:href="#L1_13" x="350" y="0"/><use xlink:href="#L1_13" x="-350" y="350"/><use xlink:href="#L1_13" x="0" y="350"/><use xlink:href="#L1_13" x="350" y="350"/></pattern><rect x="0" y="0" width="100%" height="100%" fill="url(#pattern_L1_13)"/></g><g fi:class="KUsePattern" opacity="0.55"><pattern id="pattern_L1_14" width="350" height="350" patternUnits="userSpaceOnUse"><use xlink:href="#L1_14" x="-350" y="-350"/><use xlink:href="#L1_14" x="0" y="-350"/><use xlink:href="#L1_14" x="350" y="-350"/><use xlink:href="#L1_14" x="-350" y="0"/><use xlink:href="#L1_14" x="0" y="0"/><use xlink:href="#L1_14" x="350" y="0"/><use xlink:href="#L1_14" x="-350" y="350"/><use xlink:href="#L1_14" x="0" y="350"/><use xlink:href="#L1_14" x="350" y="350"/></pattern><rect x="0" y="0" width="100%" height="100%" fill="url(#pattern_L1_14)"/></g></svg>