<svg className="cover-icon" height="512" viewBox="0 0 64 64" width="512" xmlns="http://www.w3.org/2000/svg"><g id="Filled_outline" data-name="Filled outline"><circle className="cover-icon" cx="20" cy="15" fill="#5a6470" r="10"/><circle className="cover-icon" cx="40" cy="15" fill="#5a6470" r="10"/><circle className="cover-icon" cx="20" cy="15" fill="#aabece" r="6"/><circle className="cover-icon" cx="40" cy="15" fill="#aabece" r="6"/><path className="cover-icon" d="m45 47h-32a2 2 0 0 1 -2-2v-18a2 2 0 0 1 2-2h34a2 2 0 0 1 2 2v16z" fill="#aabece"/><path className="cover-icon" d="m49 30h4v10h-4z" fill="#5a6470"/><path className="cover-icon" d="m61 47-8-5v-14l8-5z" fill="#7d8d9c"/><path className="cover-icon" d="m7 38-4 2v-10l4 2z" fill="#7d8d9c"/><path className="cover-icon" d="m7 32h4v6h-4z" fill="#5a6470"/><path className="cover-icon" d="m18 47h22v4h-22z" fill="#5a6470"/><path className="cover-icon" d="m21 51h16a0 0 0 0 1 0 0 8 8 0 0 1 -8 8 8 8 0 0 1 -8-8 0 0 0 0 1 0 0z" fill="#7d8d9c"/><circle className="cover-icon" cx="20" cy="15" fill="#394d5c" r="2"/><circle className="cover-icon" cx="40" cy="15" fill="#394d5c" r="2"/><path className="cover-icon" d="m11 29h22v12h-22z" fill="#cfdfe8"/><circle className="cover-icon" cx="17" cy="35" fill="#55b56a" r="2"/><circle className="cover-icon" cx="23" cy="35" fill="#e1462b" r="2"/><circle className="cover-icon" cx="43" cy="31" fill="#e1462b" r="2"/><g className="cover-icon" fill="#cfdfe8"><path className="cover-icon" d="m14 44h2v3h-2z"/><path className="cover-icon" d="m18 44h2v3h-2z"/><path className="cover-icon" d="m22 44h2v3h-2z"/><path className="cover-icon" d="m41 44h2v3h-2z"/></g><path className="cover-icon" d="m28 32h2v2h-2z" fill="#fcf05a"/><path className="cover-icon" d="m28 36h2v2h-2z" fill="#fcf05a"/><path className="cover-icon" d="m33 37h12v4h-12z" fill="#fcf05a"/><path className="cover-icon" d="m56 29h2v2h-2z" fill="#5a6470"/><path className="cover-icon" d="m29 55a4 4 0 0 0 4-4h-8a4 4 0 0 0 4 4z" fill="#394d5c"/><path className="cover-icon" d="m61.485 22.125a1 1 0 0 0 -1.015.027l-8 5a1 1 0 0 0 -.47.848v1h-2v-2a3 3 0 0 0 -3-3h-.7a10.992 10.992 0 1 0 -16.3-13.556 10.992 10.992 0 1 0 -16.3 13.556h-.7a3 3 0 0 0 -3 3v4h-2.764l-3.789-1.895a1 1 0 0 0 -1.447.895v10a1 1 0 0 0 1.447.9l3.789-1.9h2.764v6a3 3 0 0 0 3 3h4v3a1 1 0 0 0 1 1h2.059a9 9 0 0 0 17.882 0h2.059a1 1 0 0 0 1-1v-3h4a1 1 0 0 0 .707-.293l4-4a1 1 0 0 0 .293-.707v-2h2v1a1 1 0 0 0 .47.848l8 5a1 1 0 0 0 1.53-.848v-24a1 1 0 0 0 -.515-.875zm-21.485-16.125a9 9 0 1 1 -9 9 9.011 9.011 0 0 1 9-9zm-6.3 18h-7.39a11.061 11.061 0 0 0 3.69-4.444 11.061 11.061 0 0 0 3.7 4.444zm-22.7-9a9 9 0 1 1 9 9 9.011 9.011 0 0 1 -9-9zm23 23h10v2h-10zm-2 2h-20v-10h20zm-28-8.382 2 1v4.764l-2 1zm4 5.382v-4h2v4zm21 21a7.011 7.011 0 0 1 -6.929-6h2.029a5 5 0 0 0 9.8 0h2.03a7.011 7.011 0 0 1 -6.93 6zm-2.829-6h5.658a3 3 0 0 1 -5.658 0zm12.829-2h-20v-2h20zm9-7.414-3.414 3.414h-1.586v-2h-2v2h-17v-2h-2v2h-2v-2h-2v2h-2v-2h-2v2h-1a1 1 0 0 1 -1-1v-3h34v-6h-12v-8h-22v-1a1 1 0 0 1 1-1h34a1 1 0 0 1 1 1zm2-3.586v-8h2v8zm10 6.2-6-3.75v-12.896l6-3.75z"/><path className="cover-icon" d="m20 12a3 3 0 1 0 3 3 3 3 0 0 0 -3-3zm0 4a1 1 0 1 1 1-1 1 1 0 0 1 -1 1z"/><path className="cover-icon" d="m20 8a7 7 0 1 0 7 7 7.008 7.008 0 0 0 -7-7zm0 12a5 5 0 1 1 5-5 5.006 5.006 0 0 1 -5 5z"/><path className="cover-icon" d="m40 18a3 3 0 1 0 -3-3 3 3 0 0 0 3 3zm0-4a1 1 0 1 1 -1 1 1 1 0 0 1 1-1z"/><path className="cover-icon" d="m40 22a7 7 0 1 0 -7-7 7.008 7.008 0 0 0 7 7zm0-12a5 5 0 1 1 -5 5 5.006 5.006 0 0 1 5-5z"/><path className="cover-icon" d="m17 38a3 3 0 1 0 -3-3 3 3 0 0 0 3 3zm0-4a1 1 0 1 1 -1 1 1 1 0 0 1 1-1z"/><path className="cover-icon" d="m23 38a3 3 0 1 0 -3-3 3 3 0 0 0 3 3zm0-4a1 1 0 1 1 -1 1 1 1 0 0 1 1-1z"/><path className="cover-icon" d="m43 28a3 3 0 1 0 3 3 3 3 0 0 0 -3-3zm0 4a1 1 0 1 1 1-1 1 1 0 0 1 -1 1z"/><path className="cover-icon" d="m28 32h2v2h-2z"/><path className="cover-icon" d="m28 36h2v2h-2z"/><path className="cover-icon" d="m56 29h2v2h-2z"/></g></svg>
